<svg width="266" height="200" viewBox="0 0 266 200" fill="none" xmlns="http://www.w3.org/2000/svg">
<g filter="url(#filter0_dd_221_1100)">
<path opacity="0.3" d="M197.393 185.4C206.093 182.8 213.793 178.8 219.993 173.1C256.193 139.7 258.393 82.3004 204.193 49.0004C179.193 33.6004 141.693 20.4004 110.893 27.2004C85.8928 32.7004 68.6928 47.9004 54.1928 62.0004C45.1928 70.7004 37.2928 80.5004 26.4928 88.4004C12.5928 98.7004 -3.10722 112.8 7.89278 129C22.9928 151.1 55.7928 165.4 85.9928 176.1C118.693 187.7 156.493 194.7 189.493 187.4C192.193 186.9 194.793 186.2 197.393 185.4Z" fill="#AFD8DD"/>
<path d="M171.793 26.8003C171.193 29.4003 170.693 32.1003 170.493 34.7003C170.393 36.1003 170.393 37.5003 170.493 38.9003C170.593 40.3003 171.293 42.2003 170.293 43.4003C170.293 43.4003 170.293 43.4003 170.293 43.5003C159.693 42.8003 149.193 42.1003 138.593 41.3003C133.393 40.9003 128.093 40.6003 122.893 40.2003C117.693 39.8003 112.393 39.8003 107.293 39.1003V39.0003C107.293 38.8003 107.093 38.7003 106.893 38.8003C106.993 38.6003 106.993 38.5003 106.893 38.3003C106.893 37.9003 106.893 37.6003 106.893 37.2003C106.893 36.5003 106.993 35.8003 106.993 35.1003C106.993 34.8003 106.993 34.5003 107.093 34.1003C107.093 34.0003 107.093 34.0003 107.093 33.9003C107.193 33.1003 107.193 32.2003 107.293 31.4003C107.493 29.5003 107.493 27.2003 108.293 25.4003L108.393 25.3003C108.593 24.9003 108.893 24.5003 109.193 24.2003C116.893 25.0003 124.593 25.4003 132.293 25.3003C132.393 25.3003 132.493 25.2003 132.493 25.1003C132.593 25.1003 132.693 25.1003 132.793 24.9003L134.193 21.2003C134.393 20.6003 134.593 20.0003 134.893 19.5003C134.993 19.2003 135.193 18.8003 135.293 18.5003C135.493 18.2003 135.493 17.9003 135.493 17.6003C135.593 17.7003 135.793 17.7003 135.793 17.5003C135.793 17.5003 135.793 17.5003 135.793 17.4003C135.893 17.3003 135.793 17.2003 135.793 17.1003C135.793 17.1003 135.793 17.0003 135.693 17.0003L135.593 16.9003L135.493 16.8003C132.193 15.5003 131.293 10.8003 132.193 7.6003C133.093 4.4003 137.093 2.2003 140.293 2.4003C143.993 2.6003 146.193 5.8003 146.293 9.4003C146.393 12.6003 144.693 15.5003 141.693 16.8003C141.593 16.8003 141.593 16.9003 141.593 17.0003C141.393 17.0003 141.193 17.1003 141.293 17.3003C141.993 19.6003 142.593 21.8003 143.193 24.1003C142.893 24.1003 142.893 24.6003 143.193 24.6003C152.793 25.7003 162.293 26.4003 171.793 26.8003ZM166.393 41.6003C166.693 41.6003 166.693 41.1003 166.393 41.1003C165.393 41.0003 164.393 41.0003 163.393 40.9003C163.093 40.9003 163.093 41.4003 163.393 41.4003C164.393 41.5003 165.393 41.6003 166.393 41.6003ZM165.293 42.4003C165.593 42.4003 165.593 41.9003 165.293 41.9003C164.293 41.8003 163.193 41.8003 162.193 41.7003C161.893 41.7003 161.893 42.2003 162.193 42.2003C163.193 42.3003 164.193 42.3003 165.293 42.4003ZM144.393 6.0003C144.493 6.3003 144.993 6.2003 144.893 5.9003C144.593 4.9003 143.793 4.2003 142.893 3.9003C142.593 3.8003 142.493 4.3003 142.793 4.4003C143.493 4.6003 144.093 5.2003 144.393 6.0003ZM143.993 6.9003C144.093 7.2003 144.493 7.1003 144.493 6.8003C144.293 6.0003 143.793 5.3003 143.093 4.8003C142.793 4.6003 142.593 5.1003 142.793 5.2003C143.493 5.6003 143.893 6.2003 143.993 6.9003ZM114.893 26.3003C115.193 26.3003 115.193 25.8003 114.893 25.8003H112.493C112.193 25.8003 112.193 26.3003 112.493 26.3003H114.893ZM114.493 25.6003C114.793 25.6003 114.793 25.1003 114.493 25.1003C113.293 25.0003 111.993 25.0003 110.793 24.9003C110.493 24.9003 110.493 25.4003 110.793 25.4003C112.093 25.4003 113.293 25.5003 114.493 25.6003Z" fill="#414648"/>
<path d="M146.993 3.39973C150.693 7.49973 148.593 14.3997 144.393 17.1997L144.293 17.2997C144.093 17.2997 143.893 17.3997 143.993 17.5997C144.693 20.3997 146.193 22.7997 148.393 24.6997C146.893 24.5997 145.393 24.3997 143.793 24.2997C143.193 21.9997 142.493 19.6997 141.793 17.3997C141.893 17.3997 141.893 17.3997 141.993 17.3997C145.493 15.8997 147.293 12.0997 146.693 8.39973C146.193 4.79973 143.593 1.99973 139.893 2.09973C138.093 2.09973 136.093 2.79973 134.493 3.99973C137.793 0.59973 143.493 -0.40027 146.993 3.39973Z" fill="#6F6F6F"/>
<path d="M172.693 28.1C172.593 28.2 172.593 28.3 172.693 28.5C171.793 30.7 171.493 33 171.493 35.4C171.493 35.7 171.493 36 171.493 36.3C171.493 37.5 171.693 38.7 171.993 39.9C172.193 41.3 172.393 43 171.493 44C171.393 44.1 171.193 44.2 171.093 44.2C170.993 44.2 170.993 44.1 170.893 44.1C170.793 44.1 170.693 44.1 170.493 44.1V43.9C170.593 43.9 170.693 43.8 170.693 43.7C170.693 43.7 170.693 43.7 170.793 43.7C171.393 43 171.493 42.2 171.393 41.3C171.293 39.8 170.993 38.3 170.993 36.7C170.993 33.4 171.593 30.2 172.293 27C172.493 27.4 172.593 27.7 172.693 28.1Z" fill="#6F6F6F"/>
<path d="M170.493 43.9998V44.1998C165.793 43.9998 161.093 43.7998 156.493 43.5998C140.793 42.4998 125.093 41.5998 109.393 40.8998C108.793 40.5998 108.293 40.1998 107.693 39.7998C112.393 40.3998 117.193 40.4998 121.893 40.7998C127.293 41.1998 132.793 41.4998 138.193 41.8998L170.493 43.9998Z" fill="#6F6F6F"/>
<path d="M102.593 103.8C100.193 106.1 97.8928 108.3 95.4928 110.6C94.8928 111.1 94.3928 111.7 93.7928 112.2C93.4928 112.5 93.1928 112.8 92.8928 113.1C92.1928 112.8 91.7928 112.4 91.4928 111.7C91.1928 111.3 90.8928 110.8 90.6928 110.4C90.6928 110.3 90.6928 110.3 90.5928 110.2C90.0928 109.3 89.5928 108.4 89.0928 107.5C89.9928 107.7 90.7928 107.9 91.6928 107.9C92.0928 108.5 92.3928 109 92.7928 109.6C92.8928 109.8 93.0928 109.8 93.2928 109.7C95.6928 107.7 97.8928 105.5 99.8928 103.1C100.793 103.4 101.693 103.6 102.593 103.8Z" fill="#3BB3BD"/>
<path d="M108.793 85.5004C106.493 87.8004 104.193 90.1004 101.893 92.4004C101.393 92.9004 100.793 93.5004 100.293 94.0004C99.9932 94.3004 99.6932 94.6004 99.3932 94.9004C98.6932 94.6004 98.2932 94.2004 97.9932 93.6004C97.6932 93.2004 97.3932 92.7004 97.0932 92.3004C97.0932 92.2004 96.9932 92.2004 96.9932 92.1004C96.4932 91.2004 95.9932 90.3004 95.4932 89.4004C96.3932 89.6004 97.1932 89.8004 98.0932 89.8004C98.4932 90.4004 98.7932 90.9004 99.1932 91.5004C99.2932 91.7004 99.4932 91.7004 99.6932 91.6004C102.093 89.5004 104.193 87.3004 106.193 84.9004C106.993 85.1004 107.893 85.3004 108.793 85.5004Z" fill="#3BB3BD"/>
<path d="M116.193 66.5998C113.893 68.8998 111.693 71.2998 109.393 73.5998C108.893 74.1998 108.293 74.6998 107.793 75.1998C107.493 75.4998 107.193 75.7998 106.893 76.0998C106.193 75.7998 105.793 75.3998 105.493 74.7998C105.193 74.3998 104.893 73.8998 104.593 73.4998C104.593 73.3998 104.493 73.3998 104.493 73.2998C103.993 72.3998 103.493 71.4998 102.893 70.6998C103.793 70.8998 104.593 70.9998 105.493 70.9998C105.893 71.5998 106.293 72.0998 106.593 72.5998C106.693 72.7998 106.893 72.7998 107.093 72.6998C109.393 70.5998 111.493 68.2998 113.493 65.7998C114.393 66.2998 115.193 66.4998 116.193 66.5998Z" fill="#3BB3BD"/>
<path d="M122.393 48.2C120.193 50.6 117.993 53 115.793 55.4C115.293 56 114.793 56.5 114.293 57.1C113.993 57.4 113.693 57.7 113.393 58.1C112.693 57.9 112.193 57.4 111.893 56.8C111.593 56.4 111.293 56 110.993 55.5C110.993 55.4 110.893 55.4 110.893 55.3C110.293 54.4 109.793 53.5 109.293 52.7C110.193 52.9 110.993 53 111.893 52.9C112.293 53.4 112.693 54 113.093 54.5C113.193 54.7 113.393 54.7 113.593 54.6C115.793 52.4 117.893 50.1 119.793 47.5C120.593 47.9 121.493 48.1 122.393 48.2Z" fill="#3BB3BD"/>
<path d="M147.393 122.301C147.093 123.001 146.893 123.701 146.593 124.301C146.593 124.301 146.593 124.301 146.593 124.401C146.593 124.301 146.493 124.201 146.393 124.201C132.393 121.901 118.493 119.301 104.693 116.301V116.201C104.693 115.601 104.893 114.701 105.593 114.501C105.893 114.401 106.593 114.701 106.893 114.801C107.893 115.001 108.793 115.201 109.793 115.401C111.393 115.701 113.093 116.101 114.693 116.401C118.393 117.101 121.993 117.801 125.693 118.501C132.793 120.001 140.093 121.201 147.393 122.301Z" fill="#AFD8DD"/>
<path d="M106.993 108.5C120.993 110.9 134.993 113.2 148.893 115.6C148.793 115.6 148.693 115.7 148.693 115.8C148.493 116.5 148.293 117.2 148.093 117.9C134.093 115.8 120.193 113.4 106.293 110.7C106.593 109.9 106.793 109.2 106.993 108.5Z" fill="#AFD8DD"/>
<path d="M153.993 103.1C153.693 103.8 153.493 104.5 153.193 105.2C153.193 105.2 153.193 105.2 153.193 105.3C153.193 105.2 153.093 105.1 152.993 105.1C138.993 103.1 124.993 100.8 111.093 98.0997V97.9997C111.093 97.3997 111.193 96.4997 111.893 96.2997C112.193 96.1997 112.893 96.4997 113.193 96.4997C114.193 96.6997 115.093 96.8997 116.093 97.0997C117.693 97.3997 119.393 97.6997 120.993 97.9997C124.693 98.6997 128.293 99.2997 131.993 99.8997C139.293 101 146.593 102.1 153.993 103.1Z" fill="#AFD8DD"/>
<path d="M113.293 90.0996C127.293 92.1996 141.293 94.1996 155.393 96.2996C155.293 96.2996 155.193 96.3996 155.093 96.4996C154.893 97.1996 154.693 97.8996 154.593 98.5996C140.593 96.7996 126.593 94.5996 112.693 92.1996C112.893 91.4996 113.093 90.7996 113.293 90.0996Z" fill="#AFD8DD"/>
<path d="M161.593 83.2997C161.393 83.9997 161.093 84.6997 160.893 85.3997C160.893 85.3997 160.893 85.3997 160.893 85.4997C160.893 85.3997 160.793 85.2997 160.693 85.2997C146.593 83.5997 132.593 81.4997 118.693 79.0997V78.9997C118.693 78.3997 118.793 77.4997 119.493 77.2997C119.793 77.1997 120.493 77.4997 120.793 77.4997C121.793 77.6997 122.693 77.7997 123.693 77.9997C125.293 78.2997 126.993 78.4997 128.593 78.7997C132.293 79.3997 135.993 79.9997 139.693 80.4997C146.993 81.5997 154.293 82.4997 161.593 83.2997Z" fill="#AFD8DD"/>
<path d="M120.693 71.2002C134.793 73.0002 148.793 74.8002 162.893 76.6002C162.793 76.6002 162.693 76.7002 162.593 76.8002C162.393 77.5002 162.293 78.2002 162.093 78.9002C148.093 77.3002 133.993 75.5002 120.093 73.3002C120.293 72.6002 120.493 71.9002 120.693 71.2002Z" fill="#AFD8DD"/>
<path d="M168.293 63.5001C168.093 64.2001 167.893 64.9001 167.593 65.6001C167.593 65.6001 167.593 65.6001 167.593 65.7001C167.593 65.6001 167.493 65.5001 167.393 65.5001C153.293 64.2001 139.193 62.6001 125.193 60.6001V60.5001C125.193 59.9001 125.293 59.0001 125.993 58.7001C126.293 58.6001 126.993 58.8001 127.293 58.9001C128.293 59.0001 129.293 59.2001 130.193 59.3001C131.893 59.5001 133.493 59.7001 135.193 60.0001C138.893 60.5001 142.593 60.9001 146.293 61.3001C153.593 62.2001 160.993 62.9001 168.293 63.5001Z" fill="#AFD8DD"/>
<path d="M127.093 52.5996C141.193 53.9996 155.293 55.2996 169.493 56.6996C169.393 56.6996 169.293 56.7996 169.193 56.8996C169.093 57.5996 168.893 58.2996 168.793 58.9996C154.693 57.8996 140.693 56.4996 126.593 54.7996C126.693 53.9996 126.893 53.2996 127.093 52.5996Z" fill="#AFD8DD"/>
<path d="M98.093 109C98.793 108.4 99.493 107.7 100.093 107.1C99.393 110.1 98.793 113.2 97.393 115.9C97.393 116 97.393 116 97.393 116.1C97.393 116.1 97.293 116 97.193 116C94.593 115.6 92.093 115.2 89.493 114.8C89.393 114.8 89.293 114.8 89.293 114.8L89.393 114.7C89.793 113.6 90.193 112.4 90.593 111.3C90.993 112 91.393 112.6 91.793 113.2C92.393 114 92.693 114.1 93.493 113.7C94.293 113.3 95.193 112.1 95.893 111.4C96.493 110.5 97.293 109.7 98.093 109Z" fill="#EBEBEB"/>
<path d="M96.5932 105.8C95.4932 106.9 94.3932 108 93.1932 109C92.8932 108.5 92.5932 108 92.2932 107.5C92.2932 107.4 92.1932 107.3 91.9932 107.3C91.7932 107.3 91.6932 107.3 91.4932 107.3C91.6932 106.7 91.8932 106.1 92.0932 105.5C92.0932 105.4 92.0932 105.4 92.0932 105.3C93.6932 105.3 95.1932 105.4 96.5932 105.8Z" fill="#EBEBEB"/>
<path d="M104.393 90.7002C105.093 90.0002 105.693 89.4002 106.393 88.7002C105.793 91.7002 105.293 94.8002 103.793 97.5002C103.793 97.6002 103.793 97.6002 103.793 97.7002C103.793 97.7002 103.693 97.6002 103.593 97.6002C100.993 97.2002 98.3929 96.9002 95.8929 96.5002C95.7929 96.5002 95.6929 96.5002 95.6929 96.5002L95.7929 96.4002C96.1929 95.2002 96.4929 94.1002 96.8929 92.9002C97.2929 93.5002 97.6929 94.2002 98.0929 94.8002C98.6929 95.6002 98.9929 95.7002 99.7929 95.2002C100.593 94.7002 101.393 93.6002 102.093 92.9002C102.793 92.3002 103.593 91.5002 104.393 90.7002Z" fill="#EBEBEB"/>
<path d="M102.893 87.4996C101.793 88.5996 100.693 89.6996 99.4929 90.7996C99.1929 90.2996 98.8929 89.7996 98.4929 89.3996C98.4929 89.2996 98.3929 89.1996 98.1929 89.1996C97.9929 89.1996 97.8929 89.1996 97.6929 89.1996C97.8929 88.5996 98.0929 87.9996 98.2929 87.3996C98.2929 87.2996 98.2929 87.2996 98.2929 87.1996C99.8929 87.0996 101.393 87.1996 102.893 87.4996Z" fill="#EBEBEB"/>
<path d="M111.793 72C112.493 71.3 113.093 70.7 113.693 70C113.093 73 112.693 76.1 111.293 78.9C111.293 79 111.293 79 111.293 79.1C111.293 79.1 111.193 79 111.093 79C108.493 78.7 105.893 78.4 103.293 78.1C103.193 78.1 103.093 78.1 103.093 78.2C103.093 78.2 103.193 78.1 103.193 78C103.493 76.8 103.893 75.7 104.193 74.5C104.593 75.1 104.993 75.8 105.493 76.3C106.093 77.1 106.393 77.2 107.193 76.7C107.993 76.2 108.793 75 109.493 74.3C110.293 73.5 111.093 72.8 111.793 72Z" fill="#EBEBEB"/>
<path d="M110.293 68.8004C109.193 70.0004 108.093 71.1004 106.993 72.1004C106.693 71.6004 106.293 71.2004 105.993 70.7004C105.993 70.6004 105.893 70.5004 105.693 70.5004C105.493 70.5004 105.393 70.5004 105.193 70.5004C105.393 69.9004 105.593 69.3004 105.793 68.6004C105.793 68.5004 105.793 68.5004 105.793 68.4004C107.293 68.4004 108.793 68.5004 110.293 68.8004Z" fill="#EBEBEB"/>
<path d="M116.593 50.5998C115.593 51.7998 114.493 52.8998 113.393 53.9998C113.093 53.4998 112.693 53.0998 112.393 52.5998C112.393 52.4998 112.293 52.3998 112.093 52.3998C111.893 52.3998 111.793 52.3998 111.593 52.3998C111.793 51.7998 111.893 51.1998 112.093 50.4998C112.093 50.3998 112.093 50.3998 112.093 50.2998C113.493 50.2998 114.993 50.3998 116.593 50.5998Z" fill="#EBEBEB"/>
<path d="M118.193 53.6996C118.793 52.9996 119.493 52.2996 120.093 51.5996C119.593 54.5996 119.293 57.6996 117.993 60.5996C117.993 60.6996 117.993 60.6996 117.993 60.7996C117.993 60.7996 117.893 60.6996 117.793 60.6996C115.193 60.4996 112.593 60.1996 109.993 59.9996C109.893 59.9996 109.793 59.9996 109.793 60.0996C109.793 60.0996 109.893 59.9996 109.893 59.8996C110.193 58.6996 110.493 57.5996 110.793 56.3996C111.193 56.9996 111.593 57.5996 112.093 58.1996C112.693 58.8996 112.993 58.9996 113.793 58.4996C114.593 57.9996 115.293 56.7996 115.993 56.0996C116.793 55.2996 117.493 54.4996 118.193 53.6996Z" fill="#EBEBEB"/>
<path d="M138.893 164.2C144.593 165.4 150.193 166.5 155.893 167.6C143.493 165.7 131.193 163.7 118.793 161.7C107.893 159.9 97.0926 158.1 86.1926 156.2C84.3926 155.9 82.5926 155.6 80.7926 155.3C79.8926 155.1 78.9926 155 78.0926 154.8C76.7926 154.6 77.0926 154.2 77.2926 153C77.8926 149.7 78.3926 146.5 78.6926 143.2C97.1926 153.9 117.993 159.8 138.893 164.2ZM88.5926 150.4C88.8926 150.5 88.9926 150 88.6926 149.9C87.6926 149.6 86.6926 149.3 85.7926 148.9C85.4926 148.8 85.3926 149.3 85.6926 149.4C86.5926 149.8 87.5926 150.1 88.5926 150.4ZM88.1926 149.3C88.4926 149.4 88.5926 148.9 88.2926 148.8C86.8926 148.3 85.5926 147.7 84.1926 147.2C83.8926 147.1 83.7926 147.6 84.0926 147.7C85.4926 148.2 86.8926 148.7 88.1926 149.3Z" fill="white"/>
<path d="M165.393 138.8C166.493 136.6 167.393 134.3 168.293 132C166.193 144 162.393 155.7 156.993 166.6C155.593 166.5 154.193 166.3 152.793 166.1C136.193 162.9 119.593 159.4 103.693 153.7C98.2926 151.6 92.9926 149.3 87.5926 147C84.4926 145.5 81.3926 143.8 78.3926 142.1C78.2926 142 78.1926 142 78.0926 142C77.2926 141.5 76.3926 140.9 75.5926 140.4C74.8926 139.9 65.9926 134 66.4926 133.3C66.5926 133.2 66.4926 133 66.3926 132.9C66.4926 132.9 66.4926 132.9 66.5926 132.8C68.8926 130.7 71.2926 128.9 73.1926 126.3C81.5926 133 90.7926 138.8 100.493 143.3C110.693 148 121.493 151.3 132.393 153.9C138.793 155.4 145.293 156.7 151.893 157.3C152.093 157.3 152.293 157.2 152.293 157H152.393C152.493 156.9 152.593 156.8 152.693 156.7C157.793 151.6 162.093 145.5 165.393 138.8ZM158.993 161.1C159.093 160.8 158.593 160.7 158.493 161C158.093 161.9 157.793 162.8 157.393 163.8C157.293 164.1 157.793 164.2 157.893 163.9C158.293 162.9 158.693 162 158.993 161.1ZM158.293 160.9C158.393 160.6 157.893 160.5 157.793 160.8C157.593 161.4 157.393 161.9 157.193 162.5C157.093 162.8 157.593 162.9 157.693 162.6C157.893 162 158.093 161.5 158.293 160.9Z" fill="white"/>
<path d="M174.893 104.6C174.993 103.7 175.193 102.9 175.293 102C174.493 109.5 173.393 116.9 172.293 124.3C171.193 131.9 169.993 139.6 168.493 147.2C168.393 147.1 168.193 147.1 168.093 147.3C167.893 147.9 167.693 148.5 167.493 149.1C167.393 148.3 167.593 147.5 168.193 146.8C168.393 146.6 168.093 146.2 167.793 146.4C167.093 147.2 166.793 148.1 166.993 149.1C166.993 149.3 167.293 149.4 167.393 149.3C167.293 149.7 167.293 150 167.193 150.4C167.193 150.7 167.693 150.7 167.693 150.4C167.793 149.5 167.993 148.7 168.293 147.9C167.993 149.5 167.593 151.2 167.293 152.8C166.593 156 165.793 159.2 164.993 162.3C164.393 164.4 163.693 166.5 162.993 168.6C161.093 168.3 159.093 168 157.193 167.7C157.293 167.7 157.293 167.6 157.393 167.6C157.593 167.6 157.693 167.6 157.793 167.4C163.593 155.7 167.493 143.1 169.293 130.2C169.293 130.1 169.293 130 169.193 129.9C169.293 129.4 169.393 129 169.493 128.5C169.493 128.4 169.493 128.4 169.493 128.3C171.293 123.5 172.593 118.5 173.393 113.5C173.993 110.6 174.393 107.6 174.893 104.6Z" fill="white"/>
<path d="M186.093 43.9006C186.893 44.2006 186.593 45.6006 186.493 46.4006C186.293 48.5006 185.893 50.6006 185.493 52.6006C184.693 56.4006 183.893 60.1006 183.193 63.9006C181.893 70.9006 180.893 78.0006 180.093 85.1006C179.993 85.1006 179.893 85.2006 179.793 85.3006C178.193 97.1006 176.493 108.801 174.693 120.601C172.993 131.701 171.493 142.901 169.393 154.001C168.193 160.301 166.793 166.601 165.093 172.801C142.393 167.901 119.493 163.901 96.4926 160.701C90.2926 159.801 84.0926 159.001 77.8926 158.301C77.9926 157.901 78.0926 157.501 78.2926 157.201C78.3926 156.801 78.5926 156.501 78.6926 156.101C100.393 159.701 122.093 163.301 143.793 166.701C150.093 167.701 156.493 168.701 162.793 169.701C162.993 169.701 163.093 169.701 163.193 169.601C163.293 169.601 163.293 169.601 163.393 169.601C163.593 169.601 163.793 169.601 163.893 169.301C169.693 150.601 172.293 130.901 174.893 111.601C175.293 108.801 175.593 106.001 175.893 103.301C176.393 99.6006 176.693 95.9006 176.793 92.2006C176.793 92.1006 176.793 92.0006 176.693 92.0006C177.093 89.3006 177.493 86.5006 177.793 83.8006C177.793 83.6006 177.793 83.5006 177.893 83.3006C178.593 78.7006 179.293 74.0006 179.893 69.4006C181.093 60.9006 182.193 52.4006 183.293 43.9006C183.793 43.9006 184.393 43.9006 184.993 43.9006C185.493 43.7006 185.793 43.8006 186.093 43.9006Z" fill="white"/>
<path d="M106.693 34.2004C106.693 34.5004 106.693 34.9004 106.593 35.2004C106.593 35.1004 106.493 35.1004 106.393 35.1004C104.693 34.9004 102.993 34.8004 101.293 34.6004C101.293 34.3004 100.893 34.2004 100.793 34.5004C100.693 34.8004 100.593 35.1004 100.493 35.4004C100.493 35.4004 100.493 35.4004 100.393 35.4004C99.3932 35.3004 98.4932 35.2004 97.4932 35.1004C97.5932 35.0004 97.5932 34.9004 97.4932 34.8004C97.7932 34.3004 98.0932 33.9004 98.4932 33.4004C98.5932 33.4004 98.7932 33.4004 98.8932 33.4004C99.1932 33.4004 99.4932 33.5004 99.7932 33.5004C100.593 33.6004 101.393 33.7004 102.293 33.8004C103.793 33.8004 105.193 34.0004 106.693 34.2004Z" fill="white"/>
<path d="M97.6928 35.4999C98.5928 35.5999 99.4928 35.6999 100.393 35.7999C100.193 36.2999 100.093 36.7999 99.8928 37.2999H97.1928C97.0928 37.2999 96.9928 37.3999 96.9928 37.4999C96.8928 37.4999 96.8928 37.5999 96.7928 37.6999C95.9928 41.7999 95.2928 45.9999 94.4928 50.0999C93.7928 53.9999 92.4928 58.0999 92.9928 62.0999C92.9928 62.0999 92.9928 62.0999 92.9928 62.1999C92.1928 64.9999 91.3928 67.7999 90.5928 70.5999L93.0928 51.5999C93.5928 47.9999 93.9928 44.2999 94.4928 40.6999L94.8928 37.9999C94.9928 37.4999 94.9928 35.6999 95.3928 35.3999C95.6928 34.9999 97.1928 35.3999 97.6928 35.4999Z" fill="white"/>
<path d="M97.2931 37.7998H99.7931C97.3931 45.3998 95.4931 53.0998 93.3931 60.7998C93.2931 57.0998 94.3931 53.2998 95.0931 49.6998C95.7931 45.6998 96.4931 41.6998 97.2931 37.7998Z" fill="white"/>
<path d="M182.793 39.2996C182.593 39.7996 182.493 40.3996 182.293 40.8996C182.293 40.9996 182.293 41.0996 182.293 41.0996C179.193 40.7996 176.093 40.5996 172.893 40.3996C172.793 40.0996 172.793 39.7996 172.693 39.5996C172.593 39.2996 172.493 38.8996 172.493 38.5996C175.993 38.7996 179.393 39.0996 182.793 39.2996Z" fill="white"/>
<path d="M182.893 41.7C181.693 51.5 180.393 61.2 178.993 70.9C178.293 75.6 177.593 80.4 176.893 85.1C176.493 87.5 176.193 89.8 175.793 92.2C175.593 93.4 175.393 94.6 175.193 95.7C175.093 96.2 174.893 96.7 174.993 97.2C173.693 105.9 172.693 114.8 170.193 123.2C167.893 131 164.393 138.5 159.993 145.4C157.393 149.3 154.493 153.1 151.293 156.5C150.093 156 148.393 156 147.193 155.8C145.493 155.5 143.793 155.2 142.093 154.8C138.693 154.1 135.293 153.4 131.993 152.6C125.293 151 118.593 149.2 112.093 146.9C100.093 142.7 88.593 137.1 78.493 129.4C73.093 125.3 68.093 120.6 63.793 115.3C68.493 112 72.993 108.7 76.393 104C79.793 99.2 82.393 93.8 84.693 88.4C86.693 83.6 88.393 78.8 89.893 73.9C89.993 73.9 89.993 73.8 90.093 73.7L90.193 73.2C91.293 69.6 92.393 65.9 93.393 62.2V62.1C94.093 59.5 94.793 56.8 95.493 54.2C96.993 48.7 98.493 43.2 100.193 37.7C100.193 37.6 100.293 37.6 100.293 37.5C100.593 36.7 100.793 35.8 101.093 35C102.793 35.2 104.593 35.4 106.293 35.5C106.393 35.5 106.393 35.5 106.493 35.4C106.493 36 106.393 36.6 106.393 37.1C106.393 37.6 106.093 38.8 106.493 39.2V39.3C106.493 39.4 106.493 39.4 106.593 39.5C107.293 40.1 108.093 40.6 108.793 41C108.693 41.2 108.893 41.5 109.193 41.5C129.393 42.8 149.593 43.9 169.793 44.8C170.093 44.8 170.293 44.8 170.593 44.9C170.693 44.9 170.693 45 170.793 44.9C170.893 44.9 170.993 45 171.093 44.9C172.893 44.2 173.093 42.5 172.893 40.8C176.393 41.2 179.593 41.4 182.893 41.7ZM181.693 43.5C181.993 43.5 181.993 43 181.693 43C181.093 42.9 180.493 42.9 179.893 42.8C179.593 42.8 179.593 43.3 179.893 43.3C180.493 43.4 181.093 43.5 181.693 43.5ZM181.493 43C181.793 43.1 181.893 42.6 181.593 42.5C180.593 42.3 179.593 42.2 178.593 42.3C178.293 42.3 178.293 42.8 178.593 42.8C179.593 42.7 180.493 42.8 181.493 43ZM169.793 57C169.793 56.8 169.693 56.7 169.493 56.6C169.793 56.6 169.793 56 169.493 56C155.293 54.6 141.193 53.3 126.993 51.9C126.893 51.9 126.893 51.9 126.793 51.9C126.793 51.9 126.793 51.9 126.693 51.9C126.393 51.9 126.293 52.2 126.493 52.4C126.293 53.1 126.193 53.9 125.993 54.6C125.993 54.8 126.093 54.9 126.193 55C126.193 55.1 126.293 55.3 126.493 55.3C140.593 57 154.693 58.4 168.793 59.5C168.893 59.7 169.293 59.7 169.293 59.4C169.393 58.7 169.593 57.8 169.793 57ZM168.993 63.5C168.993 63.4 168.993 63.2 168.893 63.2C168.893 63.1 168.793 62.9 168.593 62.9C154.193 61.7 139.793 60.1 125.493 58.1C125.393 58.1 125.193 58.1 125.193 58.2C124.793 59 124.693 59.6 124.693 60.5C124.693 60.7 124.793 60.8 124.993 60.8C124.893 61 124.993 61.1 125.193 61.2C139.293 63.2 153.393 64.8 167.493 66.1C167.693 66.1 167.793 66 167.793 65.8C167.893 66 168.293 66 168.293 65.7C168.493 65 168.693 64.3 168.993 63.5ZM163.193 76.9C163.193 76.7 163.093 76.6 162.893 76.5C163.193 76.5 163.193 75.9 162.893 75.9C148.793 74.1 134.693 72.3 120.593 70.5C120.493 70.5 120.493 70.5 120.393 70.5C120.393 70.5 120.393 70.5 120.293 70.5C119.993 70.5 119.893 70.8 120.093 71C119.893 71.7 119.693 72.4 119.493 73.2C119.493 73.4 119.593 73.5 119.693 73.6C119.693 73.7 119.793 73.9 119.993 73.9C133.993 76 147.993 77.9 162.093 79.5C162.193 79.7 162.493 79.7 162.593 79.4C162.893 78.6 162.993 77.8 163.193 76.9ZM162.193 83.4C162.193 83.3 162.193 83.1 162.093 83.1C162.093 83 161.993 82.8 161.793 82.8C147.393 81.2 133.093 79.1 118.893 76.6C118.793 76.6 118.593 76.6 118.593 76.7C118.193 77.4 117.993 78.1 117.993 79C117.993 79.2 118.093 79.3 118.293 79.3C118.193 79.5 118.293 79.6 118.493 79.7C132.493 82.1 146.593 84.2 160.693 85.9C160.893 85.9 160.993 85.8 160.993 85.7C161.093 85.9 161.493 85.9 161.593 85.6C161.693 84.9 161.993 84.1 162.193 83.4ZM155.693 96.7C155.793 96.5 155.593 96.3 155.393 96.3C155.693 96.3 155.793 95.8 155.393 95.7C141.293 93.6 127.193 91.5 113.193 89.5C113.093 89.5 113.093 89.5 112.993 89.5C112.993 89.5 112.993 89.5 112.893 89.5C112.593 89.5 112.493 89.8 112.693 90C112.493 90.7 112.293 91.4 112.093 92.2C111.993 92.4 112.193 92.5 112.293 92.6C112.293 92.7 112.393 92.9 112.593 92.9C126.593 95.3 140.593 97.4 154.593 99.3C154.693 99.5 154.993 99.5 155.093 99.2C155.293 98.3 155.493 97.5 155.693 96.7ZM154.593 103.1C154.693 103 154.593 102.8 154.493 102.8C154.493 102.7 154.393 102.5 154.193 102.5C139.893 100.6 125.593 98.3 111.393 95.5C111.293 95.5 111.093 95.5 111.093 95.6C110.693 96.3 110.493 97 110.493 97.9C110.493 98.1 110.593 98.2 110.793 98.2C110.693 98.4 110.793 98.5 110.993 98.6C124.993 101.3 138.993 103.6 152.993 105.6C153.193 105.6 153.293 105.5 153.293 105.4C153.393 105.6 153.793 105.6 153.893 105.4C153.993 104.6 154.293 103.9 154.593 103.1ZM149.293 116C149.393 115.8 149.193 115.6 149.093 115.6C149.393 115.6 149.493 115.1 149.093 115C135.093 112.6 120.993 110.3 106.993 107.9C106.893 107.9 106.893 107.9 106.793 107.9C106.793 107.9 106.793 107.9 106.693 107.9C106.393 107.9 106.293 108.2 106.493 108.4C106.293 109.1 106.093 109.8 105.793 110.5C105.693 110.7 105.893 110.8 105.993 110.9C105.993 111 106.093 111.2 106.293 111.2C120.193 113.9 134.193 116.3 148.193 118.5C148.293 118.7 148.593 118.7 148.693 118.4C148.793 117.6 148.993 116.8 149.293 116ZM147.993 122.4C148.093 122.3 147.993 122.1 147.893 122.1C147.893 122 147.793 121.8 147.593 121.8C133.293 119.6 119.093 117 104.993 113.9C104.893 113.9 104.693 113.9 104.693 114C104.293 114.7 104.093 115.4 103.993 116.2C103.993 116.4 104.093 116.5 104.293 116.5C104.193 116.6 104.193 116.8 104.493 116.9C118.393 119.9 132.393 122.5 146.393 124.8C146.593 124.8 146.693 124.7 146.693 124.6C146.793 124.8 147.093 124.8 147.293 124.6C147.393 123.8 147.693 123.1 147.993 122.4ZM144.893 153.7C145.193 153.8 145.293 153.3 144.993 153.2C143.893 152.8 142.793 152.6 141.593 152.4C141.293 152.4 141.293 152.9 141.593 152.9C142.793 153.1 143.893 153.3 144.893 153.7ZM143.993 154.3C144.293 154.4 144.393 153.9 144.093 153.8C142.393 153.5 140.793 153.1 139.093 152.8C138.793 152.7 138.693 153.2 138.993 153.3C140.693 153.6 142.293 154 143.993 154.3ZM122.993 48.4C123.093 48.2 123.093 48.1 122.993 48C122.993 47.9 122.893 47.8 122.693 47.7C121.593 47.6 120.493 47.3 119.393 47C119.093 46.9 118.993 47.2 119.093 47.4C118.393 48.3 117.693 49.2 116.893 50.1C116.893 50.1 116.793 50 116.693 50C114.993 49.8 113.393 49.7 111.693 49.7C111.393 49.7 111.393 50 111.493 50.2C111.493 50.2 111.393 50.3 111.393 50.4C111.193 51.1 110.993 51.7 110.893 52.4C110.293 52.4 109.793 52.3 109.193 52.2C108.893 52.1 108.693 52.5 108.893 52.7C108.693 52.7 108.593 52.9 108.693 53.1C109.293 53.9 109.793 54.9 110.393 55.8C109.993 57.1 109.693 58.5 109.293 59.8C109.193 60.1 109.593 60.3 109.793 60.1C109.693 60.3 109.693 60.6 109.993 60.6C112.593 60.8 115.193 61.1 117.793 61.3C117.993 61.3 118.093 61.1 118.093 61C118.193 61.1 118.393 61.1 118.493 60.9C119.793 57.9 120.193 54.6 120.693 51.4C120.693 51.3 120.593 51.1 120.493 51.1C121.393 50.2 122.193 49.3 122.993 48.4ZM116.793 66.8C116.893 66.7 116.893 66.5 116.793 66.4C116.793 66.3 116.693 66.2 116.493 66.1C115.393 65.9 114.293 65.7 113.193 65.3C112.893 65.2 112.693 65.5 112.893 65.7C112.193 66.6 111.393 67.5 110.593 68.4C110.593 68.4 110.493 68.3 110.393 68.3C108.793 68 107.093 67.9 105.393 67.9C105.093 67.9 104.993 68.2 105.093 68.4C105.093 68.4 104.993 68.5 104.993 68.6C104.793 69.3 104.593 69.9 104.393 70.6C103.793 70.6 103.293 70.5 102.693 70.3C102.393 70.2 102.193 70.6 102.393 70.8C102.193 70.8 102.093 71 102.193 71.2C102.693 72.1 103.193 73 103.793 73.9C103.393 75.2 102.993 76.6 102.593 77.9C102.493 78.2 102.893 78.4 103.093 78.2C102.993 78.4 102.993 78.7 103.293 78.7C105.893 79 108.493 79.3 111.093 79.6C111.293 79.6 111.393 79.4 111.393 79.3C111.493 79.4 111.693 79.4 111.793 79.2C113.193 76.3 113.693 73 114.293 69.8C114.293 69.7 114.293 69.5 114.193 69.5C115.093 68.6 115.993 67.7 116.793 66.8ZM109.493 85.7C109.593 85.6 109.593 85.4 109.493 85.3C109.493 85.2 109.393 85.1 109.193 85C108.093 84.8 106.993 84.5 105.993 84.1C105.693 84 105.493 84.3 105.693 84.5C104.993 85.4 104.193 86.3 103.393 87.1C103.393 87.1 103.293 87 103.193 87C101.493 86.7 99.893 86.5 98.193 86.5C97.893 86.5 97.793 86.8 97.893 87C97.893 87 97.793 87.1 97.793 87.2C97.593 87.9 97.393 88.5 97.193 89.2C96.593 89.1 96.093 89 95.493 88.9C95.193 88.8 94.993 89.2 95.193 89.4C94.993 89.4 94.893 89.6 94.993 89.8C95.493 90.7 95.993 91.6 96.493 92.5C96.093 93.8 95.693 95.2 95.193 96.5C95.093 96.8 95.493 97 95.693 96.8C95.493 96.9 95.593 97.3 95.893 97.4C98.493 97.8 101.093 98.1 103.593 98.5C103.793 98.5 103.893 98.3 103.893 98.2C103.993 98.3 104.193 98.3 104.293 98.2C105.793 95.3 106.293 92 106.993 88.9C106.993 88.8 106.993 88.6 106.893 88.6C107.693 87.4 108.593 86.5 109.493 85.7ZM103.293 104C103.393 103.9 103.393 103.7 103.293 103.6C103.293 103.5 103.193 103.3 102.993 103.3C101.893 103.1 100.793 102.8 99.793 102.3C99.493 102.2 99.293 102.5 99.393 102.7C98.593 103.6 97.793 104.4 96.993 105.3C96.993 105.3 96.893 105.2 96.793 105.2C95.193 104.8 93.493 104.6 91.893 104.6C91.593 104.6 91.493 104.9 91.593 105.1L91.493 105.2C91.293 105.9 90.993 106.5 90.793 107.2C90.193 107.1 89.693 107 89.093 106.8C88.793 106.7 88.593 107 88.693 107.2C88.493 107.2 88.293 107.4 88.493 107.6C88.993 108.5 89.493 109.4 89.993 110.4C89.593 111.7 89.093 113 88.693 114.3C88.593 114.6 88.993 114.8 89.193 114.6C88.993 114.7 89.093 115.1 89.393 115.2C91.993 115.6 94.493 116 97.093 116.4C97.293 116.4 97.393 116.3 97.393 116.1C97.493 116.2 97.693 116.3 97.793 116.1C99.393 113.2 99.993 110 100.693 106.8C100.693 106.7 100.693 106.5 100.593 106.5C101.493 105.7 102.393 104.9 103.293 104ZM101.693 39.3C101.793 39 101.393 38.8 101.293 39C100.893 39.9 100.393 40.8 99.993 41.8C99.893 42.1 100.293 42.3 100.393 42.1C100.793 41.2 101.193 40.3 101.693 39.3ZM101.193 38.8C101.393 38.6 100.993 38.2 100.793 38.4C100.293 39 99.993 39.7 99.993 40.4C99.993 40.7 100.493 40.7 100.493 40.4C100.593 39.9 100.793 39.3 101.193 38.8Z" fill="white"/>
<path d="M179.993 177.2L180.593 177.3C179.993 181.5 179.693 185.6 179.793 189.9V190H179.693H179.593C179.093 190.1 178.693 190.2 178.293 190.4C178.793 185.9 179.393 181.6 179.993 177.2Z" fill="#3BB3BD"/>
<path d="M186.793 129.7C186.293 134.3 185.793 138.8 185.293 143.4C184.693 147.9 184.193 152.4 183.593 157C182.793 162.6 181.993 168.2 181.093 173.8C180.893 175 180.693 176.2 180.593 177.4L179.993 177.3C182.093 161.4 184.293 145.6 185.993 129.7H186.793Z" fill="#3BB3BD"/>
<path d="M198.593 33.0996C198.593 43.5996 196.393 53.9996 195.193 64.3996C195.093 65.6996 194.893 66.9996 194.793 68.2996C193.693 77.2996 192.593 86.2996 191.493 95.3996C191.093 98.9996 190.593 102.7 190.193 106.3C189.693 108.9 189.193 111.5 188.593 114.1V114.2C187.993 119.4 187.493 124.6 186.893 129.8L186.093 129.7C186.693 124.3 187.193 118.9 187.593 113.5L187.693 113.4L190.093 96.5996C190.493 94.0996 190.793 91.5996 191.193 89.0996C191.493 86.3996 191.493 83.7996 191.493 81.0996C191.493 78.1996 192.093 75.4996 192.693 72.6996C193.193 70.1996 193.493 67.5996 193.793 65.0996C194.493 59.4996 195.193 53.9996 195.893 48.3996C196.293 45.2996 196.693 42.1996 197.093 39.0996C197.493 36.2996 197.793 33.3996 197.693 30.5996C197.893 30.7996 198.093 30.9996 198.193 31.1996C198.293 31.5996 198.493 32.2996 198.593 33.0996Z" fill="#3BB3BD"/>
<path d="M199.593 34.4001C199.693 37.6001 199.293 40.8001 198.893 44.0001C197.393 55.6001 195.693 67.2001 194.293 78.8001C194.193 80.2001 193.993 81.7001 193.893 83.1001C193.293 88.8001 192.593 94.4001 191.693 100C191.093 104.8 190.493 109.5 189.993 114.3C189.993 114.5 189.793 114.6 189.693 114.7C189.093 119.8 188.393 125 187.793 130.1C186.593 140.1 185.293 150 184.093 160C182.893 169.9 181.093 179.8 181.093 189.8C181.093 190 180.993 190.1 180.893 190.1C180.893 190.3 180.793 190.4 180.593 190.5C180.093 190.6 179.693 190.8 179.193 190.9C178.993 191 178.793 191 178.593 191.1C178.493 191.1 178.393 191.2 178.193 191.2C178.193 191.3 178.093 191.4 177.993 191.5C177.793 191.6 177.593 191.6 177.493 191.5C169.393 190 161.293 188.6 153.093 187.1C150.493 186.6 147.893 186.2 145.293 185.7C124.293 182.3 103.293 178.6 82.3925 174.8C76.8925 173.9 71.3925 173.1 65.9925 172.3C65.5925 172.2 65.5925 171.6 65.9925 171.5C65.8925 171.5 65.7925 171.4 65.7925 171.2C67.5925 160.1 69.2925 149 71.0925 138C71.0925 138 71.0925 138 71.0925 137.9C67.9925 135.7 65.5925 133.6 66.0925 132.9C66.0925 132.8 66.1925 132.8 66.2925 132.8C66.1925 132.7 66.0925 132.5 66.1925 132.4C68.6925 130.1 71.2925 128.3 73.0925 125.4C69.5925 122.3 66.2925 118.9 63.2925 115.2C63.0925 115 63.3925 114.6 63.5925 114.8C66.3925 112.8 69.2925 110.8 71.8925 108.4C73.5925 106.8 75.0925 105 76.4925 103.1C76.3925 103 76.3925 103 76.3925 102.8C77.5925 97.0001 78.0925 91.1001 78.6925 85.2001C79.6925 75.0001 81.2925 64.9001 82.5925 54.8001L86.6925 24.1001C86.6925 24.0001 86.7925 23.9001 86.8925 23.9001C86.8925 23.8001 86.9925 23.8001 87.0925 23.8001C94.0925 24.4001 101.093 24.7001 108.193 24.9001C108.393 24.5001 108.693 24.1001 109.093 23.7001C109.193 23.6001 109.193 23.6001 109.293 23.6001C109.293 23.5001 109.393 23.5001 109.493 23.5001C117.193 24.3001 124.893 24.7001 132.593 24.6001C133.193 22.9001 133.893 21.3001 134.493 19.6001C134.693 19.0001 134.893 17.7001 135.393 17.1001C132.093 15.6001 131.193 11.2001 131.893 7.90007C131.993 7.30007 132.193 6.70007 132.493 6.20007C132.493 6.10007 132.493 6.10007 132.493 6.00007C134.993 0.500073 142.993 -1.89993 147.493 2.90007C151.493 7.20007 149.193 14.5001 144.793 17.5001H144.693C145.493 20.3001 147.093 22.7001 149.393 24.6001C149.393 24.6001 149.393 24.6001 149.393 24.7001C156.893 25.4001 164.393 25.8001 171.893 26.2001C171.993 26.1001 172.093 26.1001 172.193 26.2001C172.793 26.7001 173.093 27.3001 173.293 28.0001C181.193 28.3001 189.193 28.7001 197.093 29.0001C197.193 29.0001 197.193 29.0001 197.293 29.1001C197.393 29.1001 197.493 29.1001 197.593 29.2001C197.693 29.3001 197.793 29.5001 197.893 29.6001C199.293 30.6001 199.593 32.6001 199.593 34.4001ZM195.193 64.3001C196.393 53.9001 198.593 43.6001 198.593 33.0001C198.493 32.3001 198.293 31.6001 197.993 30.9001C197.893 30.7001 197.693 30.5001 197.493 30.3001C197.593 33.2001 197.193 36.0001 196.893 38.8001C196.493 41.9001 196.093 45.0001 195.693 48.1001C194.993 53.7001 194.293 59.2001 193.593 64.8001C193.293 67.3001 192.993 69.9001 192.493 72.4001C191.993 75.2001 191.393 78.0001 191.293 80.8001C191.293 83.5001 191.293 86.1001 190.993 88.8001C190.693 91.3001 190.293 93.8001 189.893 96.3001L187.493 113.1C187.493 113.2 187.493 113.2 187.393 113.2C186.993 118.6 186.493 124 185.893 129.4C184.093 145.3 181.993 161.1 179.893 177C179.293 181.4 178.693 185.7 178.193 190.1C178.593 189.9 179.093 189.8 179.493 189.7C179.593 189.7 179.593 189.7 179.593 189.7H179.693V189.6C179.593 185.4 179.893 181.2 180.493 177C180.693 175.8 180.793 174.6 180.993 173.4C181.893 167.8 182.693 162.2 183.493 156.6C184.093 152.1 184.593 147.6 185.193 143C185.693 138.4 186.193 133.9 186.693 129.3C187.293 124.1 187.793 118.9 188.393 113.7V113.6C188.993 111 189.493 108.4 189.993 105.8C190.393 102.2 190.893 98.5001 191.293 94.9001C192.393 85.9001 193.493 76.9001 194.593 67.8001C194.893 66.9001 195.093 65.6001 195.193 64.3001ZM195.493 45.8001C196.093 40.6001 197.193 35.3001 196.993 30.1001C196.793 30.0001 196.793 29.8001 196.893 29.6001C189.093 29.3001 181.393 29.0001 173.593 28.6001C172.793 31.8001 172.093 34.9001 172.593 38.1001L183.193 38.9001C183.393 38.9001 183.493 39.0001 183.393 39.2001L182.793 41.1001C182.793 41.1001 182.793 41.2001 182.693 41.2001C182.793 41.2001 182.993 41.2001 183.093 41.2001C183.293 41.1001 183.493 41.2001 183.493 41.4001C183.593 41.5001 183.693 41.6001 183.693 41.7001C183.593 42.2001 183.593 42.7001 183.493 43.1001C183.993 43.1001 184.593 43.2001 185.093 43.2001V43.6001C184.493 43.6001 183.893 43.6001 183.393 43.6001C182.393 52.1001 181.193 60.6001 179.993 69.1001C179.293 73.7001 178.693 78.4001 177.993 83.0001C177.993 83.2001 177.993 83.3001 177.893 83.5001C177.493 86.2001 177.193 89.0001 176.793 91.7001C176.893 91.7001 176.893 91.8001 176.893 91.9001C176.793 95.6001 176.393 99.3001 175.993 103C175.693 105.8 175.393 108.6 174.993 111.3C172.393 130.7 169.793 150.3 163.993 169C163.893 169.2 163.693 169.3 163.493 169.3C163.393 169.3 163.393 169.3 163.293 169.3C163.193 169.4 163.093 169.5 162.893 169.4C156.593 168.4 150.193 167.4 143.893 166.4C122.193 163 100.493 159.4 78.7925 155.8C78.5925 156.2 78.4925 156.5 78.3925 156.9L77.8925 156.7C77.9925 156.4 78.1925 156 78.2925 155.7C77.8925 155.6 77.4925 155.6 77.0925 155.5C76.7925 155.5 76.6925 155.2 76.7925 155C76.6925 155 76.5925 155 76.4925 155C76.3925 155 76.2925 154.8 76.2925 154.7C77.0925 150.8 77.6925 146.8 78.0925 142.9C77.9925 142.9 77.8925 142.8 77.7925 142.8C77.5925 142.7 77.5925 142.6 77.5925 142.4C75.6925 141.2 73.3925 139.7 71.3925 138.3C69.6925 149.3 67.8925 160.4 66.1925 171.4C66.1925 171.4 66.1925 171.4 66.2925 171.4C67.6925 171.7 69.0925 171.9 70.4925 172.2C77.3925 173.2 84.2925 174.3 91.1925 175.5C115.593 179.5 139.993 183.9 164.293 188.3C168.293 188.9 172.293 189.6 176.393 190.2C176.393 190.2 176.493 190.2 176.593 190.2C176.993 190.3 177.393 190.4 177.793 190.5L179.993 173.2C182.593 152.9 185.693 132.7 187.093 112.3C187.093 112.2 187.193 112.1 187.293 112.1C188.093 106.2 188.993 100.3 189.793 94.4001C190.193 91.7001 190.693 88.9001 190.893 86.2001C191.093 83.5001 190.793 80.8001 191.093 78.1001C191.393 75.7001 191.993 73.3001 192.393 70.9001C192.793 68.1001 193.093 65.3001 193.493 62.5001C194.193 56.9001 194.793 51.3001 195.493 45.8001ZM182.893 41.7001C179.593 41.4001 176.393 41.1001 173.093 40.9001C173.293 42.6001 173.093 44.2001 171.293 45.0001C171.193 45.0001 171.093 45.0001 170.993 45.0001C170.893 45.0001 170.793 45.0001 170.793 45.0001C170.493 45.0001 170.293 45.0001 169.993 44.9001C149.793 44.0001 129.593 42.9001 109.393 41.6001C109.093 41.6001 108.993 41.3001 108.993 41.1001C108.193 40.6001 107.493 40.1001 106.793 39.6001C106.693 39.5001 106.693 39.5001 106.693 39.4001V39.3001C106.293 38.9001 106.593 37.7001 106.593 37.2001C106.593 36.6001 106.593 36.0001 106.693 35.5001C106.693 35.5001 106.593 35.6001 106.493 35.6001C104.793 35.4001 102.993 35.3001 101.293 35.1001C100.993 35.9001 100.793 36.8001 100.493 37.6001C100.493 37.7001 100.493 37.8001 100.393 37.8001C98.6925 43.3001 97.1925 48.8001 95.6925 54.3001C94.9925 56.9001 94.2925 59.6001 93.5925 62.2001C93.5925 62.3001 93.5925 62.3001 93.5925 62.3001C92.5925 66.0001 91.5925 69.6001 90.3925 73.3001L90.1925 73.7001C90.1925 73.8001 90.0925 73.9001 89.9925 73.9001C88.4925 78.8001 86.7925 83.7001 84.7925 88.4001C82.4925 93.8001 79.8925 99.2001 76.4925 104C73.1925 108.7 68.5925 112 63.8925 115.3C68.1925 120.6 73.1925 125.2 78.5925 129.4C88.6925 137.1 100.193 142.7 112.193 146.9C118.693 149.2 125.393 151 132.093 152.6C135.493 153.4 138.793 154.1 142.193 154.8C143.893 155.1 145.593 155.5 147.293 155.8C148.493 156 150.193 156.1 151.393 156.5C154.593 153 157.493 149.3 160.093 145.4C164.593 138.6 167.993 131.1 170.293 123.2C172.793 114.7 173.693 105.9 175.093 97.2001C174.993 96.7001 175.193 96.2001 175.293 95.7001C175.493 94.5001 175.693 93.3001 175.893 92.2001C176.293 89.8001 176.593 87.5001 176.993 85.1001C177.693 80.4001 178.393 75.7001 179.093 70.9001C180.393 61.2001 181.693 51.5001 182.893 41.7001ZM182.293 40.9001C182.493 40.4001 182.593 39.8001 182.793 39.3001C179.393 39.1001 175.993 38.8001 172.593 38.5001C172.693 38.8001 172.693 39.2001 172.793 39.5001C172.893 39.8001 172.893 40.1001 172.993 40.3001C176.093 40.5001 179.193 40.7001 182.393 41.0001C182.293 41.1001 182.293 41.0001 182.293 40.9001ZM180.293 186.1C180.493 182.9 180.793 179.8 181.193 176.6C180.793 179.7 180.393 182.9 180.293 186.1ZM175.293 102C175.193 102.9 174.993 103.7 174.893 104.6C174.493 107.6 173.993 110.6 173.493 113.6C172.593 118.7 171.293 123.6 169.593 128.4C169.593 128.5 169.593 128.5 169.593 128.6C169.493 129.1 169.393 129.5 169.293 130C169.393 130.1 169.393 130.2 169.393 130.3C167.593 143.2 163.693 155.8 157.893 167.5C157.793 167.7 157.593 167.7 157.493 167.7C157.493 167.7 157.393 167.8 157.293 167.8C159.193 168.1 161.193 168.4 163.093 168.7C163.793 166.6 164.493 164.5 165.093 162.4C165.893 159.3 166.693 156.1 167.393 152.9C167.793 151.3 168.093 149.6 168.393 148C168.093 148.8 167.893 149.6 167.793 150.5C167.793 150.8 167.293 150.8 167.293 150.5C167.293 150.1 167.393 149.8 167.493 149.4C167.393 149.5 167.093 149.4 167.093 149.2C166.993 148.2 167.293 147.2 167.893 146.5C168.093 146.3 168.493 146.6 168.293 146.9C167.693 147.6 167.493 148.4 167.593 149.2C167.693 148.6 167.893 148 168.193 147.4C168.293 147.2 168.493 147.2 168.593 147.3C170.093 139.7 171.193 132.1 172.393 124.4C173.393 116.9 174.593 109.4 175.293 102ZM172.693 28.4001C172.593 28.3001 172.593 28.1001 172.693 28.0001C172.593 27.6001 172.493 27.3001 172.193 27.0001C171.493 30.2001 170.893 33.4001 170.893 36.7001C170.893 38.3001 171.193 39.8001 171.293 41.3001C171.393 42.2001 171.193 42.9001 170.693 43.7001C170.693 43.7001 170.693 43.7001 170.593 43.7001C170.593 43.8001 170.493 43.9001 170.393 43.9001L138.093 41.7001C132.693 41.3001 127.193 41.0001 121.793 40.6001C117.093 40.3001 112.293 40.2001 107.593 39.6001C108.093 40.0001 108.693 40.4001 109.293 40.7001C124.993 41.5001 140.693 42.4001 156.393 43.4001C161.093 43.6001 165.793 43.8001 170.393 44.0001C170.493 44.0001 170.593 44.0001 170.793 44.0001C170.893 44.0001 170.993 44.0001 170.993 44.1001C171.193 44.0001 171.293 43.9001 171.393 43.9001C172.393 42.9001 172.193 41.2001 171.893 39.8001C171.593 38.6001 171.393 37.4001 171.393 36.2001C171.393 35.9001 171.393 35.6001 171.393 35.3001C171.493 33.0001 171.793 30.6001 172.693 28.4001ZM170.493 34.7001C170.693 32.0001 171.193 29.4001 171.793 26.8001C162.293 26.4001 152.793 25.7001 143.293 24.8001C142.993 24.8001 142.993 24.3001 143.293 24.3001C142.693 22.0001 141.993 19.8001 141.393 17.5001C141.293 17.3001 141.493 17.2001 141.693 17.2001C141.693 17.1001 141.693 17.0001 141.793 17.0001C144.793 15.7001 146.493 12.8001 146.393 9.60007C146.293 6.00007 144.093 2.90007 140.393 2.60007C137.293 2.40007 133.293 4.60007 132.293 7.80007C131.393 10.9001 132.293 15.6001 135.593 17.0001C135.593 17.0001 135.693 17.0001 135.693 17.1001C135.693 17.1001 135.793 17.1001 135.793 17.2001C135.793 17.2001 135.793 17.3001 135.893 17.3001C135.993 17.4001 135.993 17.5001 135.893 17.6001C135.893 17.6001 135.893 17.6001 135.893 17.7001C135.793 17.8001 135.693 17.8001 135.593 17.8001C135.593 18.1001 135.593 18.4001 135.393 18.7001C135.293 19.0001 135.093 19.4001 134.993 19.7001C134.793 20.3001 134.593 20.9001 134.293 21.4001L132.893 25.1001C132.893 25.2001 132.693 25.3001 132.593 25.3001C132.593 25.4001 132.493 25.5001 132.393 25.5001C124.693 25.5001 116.993 25.2001 109.293 24.4001C108.993 24.7001 108.693 25.1001 108.493 25.5001C108.493 25.6001 108.493 25.6001 108.393 25.6001C107.493 27.4001 107.493 29.7001 107.393 31.6001C107.293 32.4001 107.293 33.2001 107.193 34.1001C107.193 34.2001 107.193 34.3001 107.193 34.3001C107.193 34.6001 107.193 34.9001 107.093 35.3001C107.093 36.0001 106.993 36.7001 106.993 37.4001C106.993 37.8001 106.993 38.1001 106.993 38.5001C107.093 38.7001 106.993 38.9001 106.993 39.0001C107.093 38.9001 107.393 39.0001 107.393 39.2001V39.3001C112.493 40.0001 117.893 40.1001 122.993 40.4001C128.193 40.8001 133.493 41.1001 138.693 41.5001C149.293 42.2001 159.793 42.9001 170.393 43.7001C170.393 43.7001 170.393 43.7001 170.393 43.6001C171.393 42.4001 170.693 40.5001 170.593 39.1001C170.393 37.5001 170.393 36.1001 170.493 34.7001ZM168.193 132C167.293 134.3 166.393 136.6 165.293 138.8C162.093 145.5 157.793 151.6 152.493 156.8C152.493 156.9 152.393 157 152.193 157.1H152.093C152.093 157.3 151.893 157.4 151.693 157.4C145.093 156.8 138.693 155.5 132.193 154C121.293 151.4 110.493 148.1 100.293 143.4C90.4925 138.9 81.3925 133.1 72.9925 126.4C71.1925 129 68.7925 130.7 66.3925 132.9C66.2925 132.9 66.2925 133 66.1925 133C66.2925 133.1 66.3925 133.3 66.2925 133.4C65.7925 134 74.6925 140 75.3925 140.5C76.1925 141 76.9925 141.6 77.8925 142.1C77.9925 142.1 78.0925 142.1 78.1925 142.2C81.1925 144 84.2925 145.6 87.3925 147.1C92.6925 149.4 98.0925 151.7 103.493 153.8C119.393 159.5 136.093 163 152.593 166.2C153.993 166.4 155.393 166.6 156.793 166.7C162.393 155.7 166.193 144 168.193 132ZM159.093 148.3C159.893 147.2 160.593 146.1 161.393 144.9C160.693 146.1 159.893 147.2 159.093 148.3ZM144.393 17.2001C148.593 14.4001 150.693 7.50007 146.993 3.40007C143.493 -0.399927 137.793 0.600073 134.493 3.90007C136.093 2.70007 138.093 2.00007 139.893 2.00007C143.693 2.00007 146.193 4.80007 146.693 8.30007C147.293 12.0001 145.493 15.8001 141.993 17.3001C141.893 17.3001 141.893 17.3001 141.793 17.3001C142.493 19.6001 143.193 21.9001 143.793 24.2001C145.293 24.3001 146.793 24.5001 148.393 24.6001C146.193 22.7001 144.693 20.3001 143.993 17.5001C143.893 17.3001 144.093 17.2001 144.293 17.2001C144.293 17.3001 144.393 17.2001 144.393 17.2001ZM155.893 167.6C150.193 166.5 144.493 165.4 138.893 164.2C118.093 159.8 97.2925 153.9 78.6925 143.2C78.3925 146.5 77.9925 149.8 77.2925 153C77.0925 154.1 76.7925 154.5 78.0925 154.8C78.9925 155 79.8925 155.1 80.7925 155.3C82.5925 155.6 84.3925 155.9 86.1925 156.2C97.0925 158.1 107.893 159.9 118.793 161.7C131.093 163.7 143.493 165.7 155.893 167.6ZM143.393 155.5C140.593 155 137.793 154.4 134.993 153.8C131.693 153.1 128.493 152.3 125.193 151.4C131.193 153 137.293 154.5 143.393 155.5ZM107.293 27.8001C107.393 27.0001 107.593 26.2001 107.893 25.5001C100.993 25.4001 93.9925 25.0001 87.0925 24.5001C86.2925 30.3001 85.5925 36.2001 84.7925 42.0001L80.6925 73.3001C79.9925 78.3001 79.3925 83.4001 78.8925 88.4001C78.3925 93.2001 77.9925 97.9001 76.9925 102.6C77.3925 102 77.7925 101.4 78.0925 100.8C83.2925 92.2001 86.7925 83.0001 89.7925 73.5001C91.4925 60.7001 93.0925 47.8001 94.7925 35.0001C94.7925 34.9001 94.8925 34.7001 94.9925 34.8001C95.6925 34.9001 96.4925 35.0001 97.1925 35.0001C96.2925 34.2001 97.1925 33.0001 98.1925 32.9001C99.4925 32.7001 100.993 33.1001 102.293 33.3001L106.693 33.8001C106.793 31.7001 106.993 29.7001 107.293 27.8001ZM106.593 35.1001C106.593 34.8001 106.593 34.4001 106.693 34.1001C105.293 33.9001 103.793 33.8001 102.393 33.6001C101.593 33.5001 100.793 33.4001 99.8925 33.3001C99.5925 33.3001 99.2925 33.2001 98.9925 33.2001C98.8925 33.2001 98.7925 33.2001 98.5925 33.2001C98.2925 33.7001 97.9925 34.1001 97.5925 34.6001C97.6925 34.7001 97.6925 34.8001 97.5925 34.9001C98.5925 35.0001 99.4925 35.1001 100.493 35.2001C100.493 35.2001 100.493 35.2001 100.593 35.2001C100.693 34.9001 100.793 34.6001 100.893 34.3001C100.993 34.0001 101.393 34.1001 101.393 34.4001C103.093 34.6001 104.793 34.8001 106.493 34.9001C106.493 35.0001 106.593 35.1001 106.593 35.1001ZM100.393 35.8001C99.4925 35.7001 98.5925 35.6001 97.6925 35.5001C97.1925 35.4001 95.6925 35.1001 95.2925 35.4001C94.8925 35.7001 94.8925 37.5001 94.7925 38.0001L94.3925 40.7001C93.8925 44.3001 93.4925 48.0001 92.9925 51.6001L90.4925 70.6001C91.2925 67.8001 92.0925 65.0001 92.8925 62.2001C92.8925 62.2001 92.8925 62.2001 92.8925 62.1001C92.3925 58.1001 93.6925 54.0001 94.3925 50.1001C95.1925 46.0001 95.8925 41.8001 96.6925 37.7001C96.6925 37.6001 96.7925 37.5001 96.8925 37.5001C96.8925 37.4001 96.9925 37.3001 97.0925 37.3001H99.7925C100.093 36.8001 100.193 36.3001 100.393 35.8001ZM99.6925 37.8001H97.1925C96.4925 41.8001 95.6925 45.7001 94.9925 49.7001C94.2925 53.3001 93.1925 57.1001 93.2925 60.8001C95.3925 53.1001 97.3925 45.3001 99.6925 37.8001Z" fill="#414648"/>
<path d="M196.993 30C197.193 35.2 196.193 40.6 195.493 45.7C194.793 51.3 194.093 56.8 193.393 62.4C193.093 65.2 192.793 68 192.293 70.8C191.893 73.2 191.293 75.6 190.993 78C190.693 80.7 190.893 83.4 190.793 86.1C190.593 88.9 190.093 91.6 189.693 94.3C188.893 100.2 187.993 106.1 187.193 112C187.093 112 186.993 112.1 186.993 112.2C185.593 132.6 182.493 152.9 179.893 173.1L177.693 190.4C177.293 190.3 176.893 190.2 176.493 190.1C176.393 190.1 176.393 190.1 176.293 190.1C172.293 189.5 168.293 188.8 164.193 188.2C139.893 183.8 115.493 179.4 91.0928 175.4C84.1928 174.3 77.2928 173.2 70.3928 172.1C68.9928 171.8 67.5928 171.6 66.1928 171.3C66.1928 171.3 66.1928 171.3 66.0928 171.3C67.7928 160.3 69.5928 149.2 71.2928 138.2C73.2928 139.6 75.4928 141.1 77.4928 142.3C77.4928 142.4 77.4928 142.6 77.6928 142.7C77.7928 142.7 77.8928 142.8 77.9928 142.8C77.6928 146.8 77.0928 150.7 76.1928 154.6C76.1928 154.7 76.1928 154.9 76.3928 154.9C76.4928 154.9 76.5928 154.9 76.6928 154.9C76.5928 155.1 76.6928 155.4 76.9928 155.4C77.3928 155.5 77.7928 155.5 78.1928 155.6C78.0928 155.9 77.8928 156.3 77.7928 156.6C77.5928 157.1 77.4928 157.6 77.2928 158C77.2928 158.2 77.3928 158.3 77.4928 158.3H77.5928C77.5928 158.5 77.7928 158.7 77.9928 158.7C100.693 161.6 123.393 165.2 145.893 169.6C152.193 170.8 158.493 172.1 164.793 173.5C165.193 173.6 165.393 173.2 165.293 172.9C165.393 172.9 165.393 172.8 165.493 172.7C168.693 161.5 170.693 150.1 172.393 138.7C174.193 127.3 175.793 115.9 177.493 104.5C178.393 98.5 179.193 92.4 179.993 86.4C180.093 86.4 180.293 86.3 180.293 86.2C181.093 78.8 182.093 71.5 183.393 64.2C183.993 60.7 184.793 57.2 185.493 53.7C186.193 50.3 186.893 46.9 186.893 43.4C186.893 43.3 186.793 43.2 186.693 43.2C186.193 43.2 185.593 43.1 185.093 43.1C184.593 43.1 183.993 43 183.493 43C183.593 42.5 183.593 42 183.693 41.6C183.693 41.4 183.693 41.3 183.493 41.3C183.493 41.1 183.293 41 183.093 41.1C182.993 41.1 182.793 41.1 182.693 41.1C182.693 41.1 182.693 41 182.793 41L183.393 39.1C183.393 38.9 183.293 38.8 183.193 38.8L172.593 38C172.193 34.8 172.793 31.7 173.593 28.5C181.393 28.8 189.093 29.1 196.893 29.5C196.793 29.7 196.793 29.9 196.993 30ZM196.193 33.3V30.3C196.193 30 195.693 30 195.693 30.3V33.3C195.693 33.6 196.193 33.6 196.193 33.3ZM195.093 33.9C195.093 34.2 195.593 34.1 195.593 33.8C195.393 32.8 195.393 31.8 195.493 30.7C195.493 30.4 194.993 30.4 194.993 30.7C194.893 31.8 194.893 32.8 195.093 33.9ZM173.693 188.6C173.993 188.7 174.093 188.2 173.793 188.1C172.293 187.7 170.793 187.5 169.293 187.3C168.993 187.3 168.993 187.8 169.293 187.8C170.793 188 172.293 188.2 173.693 188.6ZM172.193 189.2C172.493 189.2 172.593 188.8 172.293 188.7C170.293 188.4 168.393 188.1 166.393 187.8C166.093 187.8 165.993 188.2 166.293 188.3C168.293 188.6 170.293 188.9 172.193 189.2ZM70.5928 156.7C70.6928 156.4 70.1928 156.3 70.0928 156.6C69.8928 157.5 69.8928 158.5 69.9928 159.4C69.9928 159.7 70.4928 159.7 70.4928 159.4C70.3928 158.5 70.3928 157.6 70.5928 156.7ZM69.5928 157C69.5928 156.7 69.1928 156.6 69.0928 156.9C68.8928 158.2 68.6928 159.4 68.4928 160.7C68.4928 161 68.8928 161.1 68.9928 160.8C69.1928 159.5 69.3928 158.3 69.5928 157Z" fill="#3BB3BD"/>
<path d="M196.193 30.3002V33.3002C196.193 33.6002 195.693 33.6002 195.693 33.3002V30.3002C195.693 30.0002 196.193 30.0002 196.193 30.3002Z" fill="#414648"/>
<path d="M195.593 33.7996C195.593 34.0996 195.193 34.1996 195.093 33.8996C194.893 32.7996 194.893 31.7996 194.993 30.6996C194.993 30.3996 195.493 30.3996 195.493 30.6996C195.393 31.6996 195.393 32.6996 195.593 33.7996Z" fill="#414648"/>
<path d="M187.093 43.7002C187.093 47.2002 186.393 50.6002 185.693 54.0002C184.893 57.5002 184.193 61.0002 183.593 64.5002C182.293 71.8002 181.193 79.1002 180.493 86.5002C180.493 86.7002 180.293 86.7002 180.193 86.7002C179.393 92.7002 178.493 98.8002 177.693 104.8C175.993 116.2 174.393 127.6 172.593 139C170.793 150.5 168.793 161.9 165.693 173C165.693 173.1 165.593 173.1 165.493 173.2C165.593 173.5 165.393 173.9 164.993 173.8C158.693 172.5 152.393 171.2 146.093 169.9C123.593 165.5 100.993 161.9 78.1928 159C77.9928 159 77.7928 158.8 77.7928 158.6H77.6928C77.4928 158.6 77.3928 158.5 77.4928 158.3C77.5928 157.8 77.7928 157.3 77.9928 156.9L78.4928 157.1C78.3928 157.5 78.1928 157.8 78.0928 158.2C84.2928 158.9 90.4928 159.7 96.6928 160.6C119.693 163.8 142.593 167.8 165.293 172.7C166.993 166.5 168.393 160.3 169.593 153.9C171.693 142.8 173.193 131.7 174.893 120.5C176.593 108.8 178.393 97.0002 179.993 85.2002C179.993 85.1002 180.093 85.0002 180.293 85.0002C181.093 77.9002 182.093 70.8002 183.393 63.8002C184.093 60.0002 184.893 56.3002 185.693 52.5002C186.093 50.4002 186.493 48.4002 186.693 46.3002C186.793 45.5002 187.093 44.1002 186.293 43.8002C185.993 43.7002 185.693 43.7002 185.393 43.6002V43.2002C185.893 43.2002 186.493 43.3002 186.993 43.3002C186.993 43.4002 187.093 43.5002 187.093 43.7002Z" fill="#414648"/>
<path d="M181.693 42.9998C181.993 42.9998 181.993 43.4998 181.693 43.4998C181.093 43.3998 180.493 43.3998 179.893 43.2998C179.593 43.2998 179.593 42.7998 179.893 42.7998C180.493 42.8998 181.093 42.9998 181.693 42.9998Z" fill="#414648"/>
<path d="M181.593 42.5C181.893 42.6 181.793 43 181.493 43C180.493 42.8 179.593 42.8 178.593 42.8C178.293 42.8 178.293 42.3 178.593 42.3C179.593 42.2 180.593 42.3 181.593 42.5Z" fill="#414648"/>
<path d="M173.793 188.1C174.093 188.2 173.993 188.7 173.693 188.6C172.293 188.2 170.793 188 169.293 187.8C168.993 187.8 168.993 187.3 169.293 187.3C170.893 187.5 172.393 187.7 173.793 188.1Z" fill="#414648"/>
<path d="M172.393 188.7C172.693 188.7 172.593 189.2 172.293 189.2C170.293 188.9 168.393 188.6 166.393 188.3C166.093 188.3 166.193 187.8 166.493 187.8C168.393 188.1 170.393 188.4 172.393 188.7Z" fill="#414648"/>
<path d="M169.493 56.7C169.693 56.7 169.793 56.9 169.793 57.1C169.593 57.9 169.493 58.7 169.293 59.5C169.193 59.8 168.893 59.8 168.793 59.6C154.693 58.5 140.593 57.1 126.493 55.4C126.293 55.4 126.193 55.2 126.193 55.1C126.093 55.1 125.893 54.9 125.993 54.7C126.193 54 126.293 53.2 126.493 52.5C126.293 52.3 126.393 52 126.693 52C126.693 52 126.693 52 126.793 52C126.893 52 126.893 52 126.993 52C141.193 53.4 155.293 54.7 169.493 56.1C169.793 56.1 169.793 56.7 169.493 56.7ZM169.393 56.7C155.293 55.3 141.193 54 126.993 52.6C126.793 53.3 126.693 54 126.493 54.7C140.493 56.4 154.593 57.8 168.693 58.9C168.793 58.2 168.993 57.5 169.093 56.8C169.193 56.7 169.293 56.7 169.393 56.7Z" fill="#414648"/>
<path d="M168.793 63.2C168.893 63.3 168.993 63.4 168.893 63.5C168.693 64.2 168.393 65 168.193 65.7C168.093 66 167.793 66 167.693 65.8C167.693 65.9 167.593 66.1 167.393 66.1C153.193 64.8 139.093 63.2 125.093 61.2C124.893 61.2 124.793 61 124.893 60.8C124.793 60.8 124.593 60.7 124.593 60.5C124.593 59.7 124.793 59 125.093 58.2C125.193 58.1 125.293 58 125.393 58.1C139.693 60.1 154.093 61.7 168.493 62.9C168.693 62.9 168.793 63.1 168.793 63.2ZM167.693 65.6C167.893 64.9 168.093 64.2 168.393 63.5C160.993 62.9 153.693 62.2 146.393 61.4C142.693 61 138.993 60.5 135.293 60.1C133.593 59.9 131.993 59.7 130.293 59.4C129.293 59.3 128.293 59.1 127.393 59C127.093 59 126.393 58.7 126.093 58.8C125.393 59 125.293 60 125.293 60.6V60.7C139.293 62.7 153.393 64.3 167.493 65.6C167.593 65.5 167.593 65.6 167.693 65.6Z" fill="#414648"/>
<path d="M166.393 41.2C166.693 41.2 166.693 41.7 166.393 41.7C165.393 41.6 164.393 41.6 163.393 41.5C163.093 41.5 163.093 41 163.393 41C164.393 41 165.393 41.1 166.393 41.2Z" fill="#414648"/>
<path d="M165.293 41.9002C165.593 41.9002 165.593 42.4002 165.293 42.4002C164.293 42.3002 163.193 42.3002 162.193 42.2002C161.893 42.2002 161.893 41.7002 162.193 41.7002C163.193 41.8002 164.193 41.8002 165.293 41.9002Z" fill="#414648"/>
<path d="M162.993 76.6C163.193 76.6 163.293 76.8 163.293 77C163.093 77.8 162.893 78.6 162.693 79.4C162.593 79.7 162.293 79.7 162.193 79.5C148.093 77.9 134.093 76.1 120.093 73.9C119.893 73.9 119.793 73.7 119.793 73.6C119.693 73.6 119.493 73.4 119.593 73.2C119.793 72.5 119.993 71.8 120.193 71C119.993 70.8 120.093 70.5 120.393 70.5C120.393 70.5 120.393 70.5 120.493 70.5C120.593 70.5 120.593 70.5 120.693 70.5C134.793 72.3 148.893 74.1 162.993 75.9C163.293 76 163.293 76.6 162.993 76.6ZM162.893 76.6C148.793 74.8 134.793 73 120.693 71.2C120.493 71.9 120.293 72.6 120.093 73.3C134.093 75.4 148.093 77.3 162.093 78.9C162.293 78.2 162.393 77.5 162.593 76.8C162.693 76.6 162.793 76.6 162.893 76.6Z" fill="#414648"/>
<path d="M162.093 83.0996C162.193 83.1996 162.293 83.2996 162.193 83.3996C161.893 84.0996 161.693 84.8996 161.393 85.5996C161.293 85.8996 160.993 85.7996 160.793 85.6996C160.793 85.7996 160.693 85.9996 160.493 85.8996C146.393 84.1996 132.293 82.0996 118.293 79.6996C118.093 79.6996 118.093 79.4996 118.093 79.2996C117.993 79.2996 117.793 79.1996 117.793 78.9996C117.793 78.1996 117.993 77.4996 118.393 76.6996C118.493 76.5996 118.593 76.5996 118.693 76.5996C132.893 79.0996 147.193 81.0996 161.593 82.7996C161.993 82.7996 162.093 82.8996 162.093 83.0996ZM160.893 85.3996C161.093 84.6996 161.393 83.9996 161.593 83.2996C154.293 82.4996 146.893 81.4996 139.593 80.4996C135.893 79.9996 132.193 79.3996 128.493 78.7996C126.793 78.4996 125.193 78.2996 123.593 77.9996C122.593 77.7996 121.693 77.6996 120.693 77.4996C120.393 77.3996 119.693 77.1996 119.393 77.2996C118.693 77.4996 118.593 78.3996 118.593 78.9996V79.0996C132.593 81.4996 146.593 83.5996 160.593 85.2996C160.793 85.2996 160.893 85.3996 160.893 85.3996C160.893 85.4996 160.893 85.3996 160.893 85.3996Z" fill="#414648"/>
<path d="M158.493 160.9C158.593 160.6 159.093 160.7 158.993 161C158.593 161.9 158.293 162.8 157.893 163.8C157.793 164.1 157.293 164 157.393 163.7C157.793 162.8 158.193 161.9 158.493 160.9Z" fill="#414648"/>
<path d="M157.793 160.8C157.893 160.5 158.393 160.6 158.293 160.9C158.093 161.5 157.893 162 157.693 162.6C157.593 162.9 157.093 162.8 157.193 162.5C157.393 161.9 157.593 161.3 157.793 160.8Z" fill="#414648"/>
<path d="M155.393 96.3004C155.593 96.3004 155.693 96.5004 155.693 96.7004C155.493 97.5004 155.293 98.3004 155.093 99.1004C154.993 99.4004 154.693 99.3004 154.593 99.2004C140.593 97.4004 126.593 95.2004 112.593 92.8004C112.393 92.8004 112.293 92.6004 112.293 92.5004C112.193 92.5004 111.993 92.3004 112.093 92.1004C112.293 91.4004 112.493 90.7004 112.693 89.9004C112.593 89.7004 112.593 89.4004 112.893 89.4004C112.893 89.4004 112.893 89.4004 112.993 89.4004C113.093 89.4004 113.093 89.4004 113.193 89.4004C127.293 91.5004 141.393 93.6004 155.393 95.6004C155.793 95.8004 155.793 96.3004 155.393 96.3004ZM155.393 96.3004C141.393 94.2004 127.293 92.2004 113.293 90.1004C113.093 90.8004 112.893 91.5004 112.693 92.2004C126.593 94.6004 140.593 96.7004 154.593 98.6004C154.793 97.9004 154.993 97.2004 155.093 96.5004C155.193 96.4004 155.293 96.3004 155.393 96.3004Z" fill="#414648"/>
<path d="M154.493 102.8C154.593 102.9 154.693 103 154.593 103.1C154.293 103.8 154.093 104.6 153.793 105.3C153.693 105.6 153.393 105.5 153.193 105.3C153.193 105.4 153.093 105.6 152.893 105.5C138.793 103.5 124.793 101.1 110.893 98.5004C110.693 98.5004 110.693 98.3004 110.693 98.1004C110.593 98.1004 110.393 98.0004 110.393 97.8004C110.393 97.0004 110.593 96.3004 110.993 95.5004C111.093 95.4004 111.193 95.4004 111.293 95.4004C125.493 98.2004 139.693 100.5 154.093 102.4C154.393 102.5 154.493 102.7 154.493 102.8ZM153.193 105.1C153.493 104.4 153.693 103.7 153.993 103C146.693 102 139.393 100.9 132.093 99.7004C128.393 99.1004 124.693 98.5004 121.093 97.8004C119.493 97.5004 117.793 97.2004 116.193 96.9004C115.193 96.7004 114.293 96.5004 113.293 96.3004C112.993 96.2004 112.293 96.0004 111.993 96.1004C111.293 96.3004 111.193 97.2004 111.193 97.8004V97.9004C125.093 100.6 139.093 102.9 153.093 104.9C153.093 105 153.093 105.1 153.193 105.1C153.193 105.2 153.193 105.1 153.193 105.1Z" fill="#414648"/>
<path d="M148.893 115.6C134.893 113.2 120.893 110.9 106.993 108.5C106.793 109.2 106.593 109.9 106.293 110.6C120.193 113.3 134.093 115.7 148.093 117.8C148.293 117.1 148.493 116.4 148.693 115.7C148.693 115.7 148.793 115.6 148.893 115.6ZM148.893 115.6C148.893 115.6 148.993 115.6 148.893 115.6C148.993 115.6 148.993 115.6 148.893 115.6C149.093 115.6 149.293 115.8 149.193 116C148.993 116.8 148.793 117.6 148.493 118.4C148.393 118.7 148.093 118.6 147.993 118.5C133.993 116.4 119.993 114 106.093 111.2C105.893 111.2 105.793 111 105.793 110.9C105.693 110.9 105.493 110.7 105.593 110.5C105.793 109.8 105.993 109.1 106.293 108.4C106.193 108.2 106.193 107.9 106.493 107.9C106.493 107.9 106.493 107.9 106.593 107.9C106.693 107.9 106.693 107.9 106.793 107.9C120.793 110.3 134.893 112.6 148.893 115C149.393 115.1 149.293 115.6 148.893 115.6C148.993 115.6 148.993 115.6 148.893 115.6Z" fill="#414648"/>
<path d="M147.893 122.1C147.993 122.2 148.093 122.3 147.993 122.4C147.693 123.1 147.393 123.8 147.093 124.6C146.993 124.9 146.693 124.8 146.493 124.6C146.493 124.7 146.393 124.9 146.193 124.8C132.193 122.5 118.193 119.9 104.293 116.9C104.093 116.9 104.093 116.7 104.093 116.5C103.993 116.5 103.793 116.4 103.793 116.2C103.893 115.4 104.093 114.7 104.493 114C104.593 113.9 104.693 113.9 104.793 113.9C118.893 116.9 133.093 119.6 147.393 121.8C147.793 121.8 147.893 121.9 147.893 122.1ZM146.593 124.4C146.893 123.7 147.093 123 147.393 122.4C140.093 121.3 132.793 120 125.593 118.7C121.893 118 118.293 117.3 114.593 116.6C112.993 116.3 111.293 115.9 109.693 115.6C108.693 115.4 107.793 115.2 106.793 115C106.493 114.9 105.793 114.6 105.493 114.7C104.793 114.9 104.693 115.8 104.593 116.4V116.5C118.393 119.5 132.393 122.1 146.293 124.4C146.493 124.3 146.493 124.3 146.593 124.4Z" fill="#414648"/>
<path d="M145.093 153.2C145.393 153.3 145.293 153.8 144.993 153.7C143.893 153.4 142.793 153.1 141.693 153C141.393 153 141.393 152.5 141.693 152.5C142.793 152.6 143.893 152.8 145.093 153.2Z" fill="#414648"/>
<path d="M144.793 5.90026C144.893 6.20026 144.393 6.30026 144.293 6.00026C143.993 5.20026 143.393 4.60026 142.593 4.30026C142.293 4.20026 142.393 3.70026 142.693 3.80026C143.793 4.20026 144.493 4.90026 144.793 5.90026Z" fill="#414648"/>
<path d="M144.493 6.8006C144.593 7.1006 144.093 7.2006 143.993 6.9006C143.893 6.2006 143.393 5.6006 142.793 5.2006C142.493 5.0006 142.793 4.6006 143.093 4.8006C143.793 5.2006 144.293 5.9006 144.493 6.8006Z" fill="#414648"/>
<path d="M144.093 153.8C144.393 153.9 144.293 154.3 143.993 154.3C142.293 154 140.693 153.6 138.993 153.3C138.693 153.2 138.793 152.8 139.093 152.8C140.793 153.1 142.493 153.5 144.093 153.8Z" fill="#414648"/>
<path d="M122.993 47.8997C123.093 47.9997 123.193 48.1997 122.993 48.2997C122.193 49.1997 121.393 50.0997 120.493 50.9997C120.593 51.0997 120.693 51.1997 120.693 51.2997C120.193 54.4997 119.793 57.7997 118.493 60.7997C118.393 60.9997 118.193 60.9997 118.093 60.8997L117.993 60.6997C117.993 60.5997 117.993 60.5997 117.993 60.4997C119.293 57.6997 119.593 54.5997 120.093 51.4997C119.493 52.1997 118.793 52.8997 118.193 53.5997C117.493 54.3997 116.693 55.1997 115.993 55.9997C115.393 56.6997 114.593 57.8997 113.793 58.3997C112.993 58.8997 112.693 58.7997 112.093 58.0997C111.593 57.4997 111.193 56.8997 110.793 56.2997C110.493 57.4997 110.193 58.5997 109.893 59.7997C109.893 59.8997 109.893 59.8997 109.793 59.9997C109.593 60.1997 109.193 59.9997 109.293 59.6997C109.693 58.3997 109.993 56.9997 110.393 55.6997C109.793 54.7997 109.293 53.8997 108.693 52.9997C108.593 52.7997 108.693 52.5997 108.893 52.5997C108.793 52.3997 108.893 52.0997 109.193 52.0997C109.793 52.1997 110.293 52.2997 110.893 52.2997C111.093 51.5997 111.293 50.9997 111.393 50.2997C111.393 50.1997 111.493 50.1997 111.493 50.0997C111.393 49.8997 111.493 49.5997 111.693 49.5997C113.393 49.4997 114.993 49.5997 116.693 49.8997C116.793 49.8997 116.793 49.8997 116.893 49.9997C117.593 49.0997 118.393 48.1997 119.093 47.2997C118.993 47.0997 119.093 46.7997 119.393 46.8997C120.493 47.2997 121.593 47.4997 122.693 47.5997C122.893 47.6997 122.993 47.7997 122.993 47.8997ZM115.793 55.3997C117.993 52.9997 120.193 50.5997 122.393 48.1997C121.493 48.0997 120.593 47.8997 119.693 47.5997C117.793 50.0997 115.793 52.4997 113.493 54.6997C113.293 54.7997 113.093 54.7997 112.993 54.5997C112.593 54.0997 112.193 53.4997 111.793 52.9997C110.893 52.9997 109.993 52.8997 109.193 52.7997C109.793 53.5997 110.293 54.4997 110.793 55.3997C110.893 55.3997 110.893 55.4997 110.893 55.5997C111.193 55.9997 111.493 56.4997 111.793 56.8997C112.093 57.4997 112.593 57.8997 113.293 58.1997C113.593 57.8997 113.893 57.5997 114.193 57.1997C114.793 56.5997 115.293 55.9997 115.793 55.3997ZM113.293 53.9997C114.393 52.8997 115.493 51.6997 116.493 50.5997C114.993 50.3997 113.493 50.2997 111.993 50.3997C111.993 50.4997 111.993 50.4997 111.993 50.5997C111.793 51.1997 111.693 51.7997 111.493 52.4997C111.693 52.4997 111.793 52.4997 111.993 52.4997C112.193 52.4997 112.193 52.5997 112.293 52.6997C112.693 53.0997 112.993 53.5997 113.293 53.9997Z" fill="#414648"/>
<path d="M118.093 60.9004C118.093 61.1004 117.993 61.3004 117.793 61.2004C115.193 61.0004 112.593 60.7004 109.993 60.5004C109.693 60.5004 109.593 60.1004 109.793 60.0004C109.793 59.9004 109.893 59.9004 109.993 59.9004C112.593 60.1004 115.193 60.4004 117.793 60.6004C117.893 60.6004 117.893 60.6004 117.993 60.7004L118.093 60.9004Z" fill="#414648"/>
<path d="M116.793 66.4001C116.893 66.5001 116.993 66.7001 116.793 66.8001C115.993 67.7001 115.093 68.6001 114.293 69.4001C114.393 69.5001 114.493 69.6001 114.393 69.7001C113.793 72.9001 113.293 76.1001 111.893 79.1001C111.793 79.3001 111.593 79.3001 111.493 79.2001L111.393 79.0001C111.393 78.9001 111.393 78.9001 111.393 78.8001C112.793 76.0001 113.193 72.9001 113.793 69.9001C113.193 70.6001 112.493 71.2001 111.893 71.9001C111.093 72.7001 110.393 73.5001 109.593 74.3001C108.893 75.0001 108.193 76.2001 107.293 76.7001C106.493 77.2001 106.193 77.1001 105.593 76.3001C105.093 75.7001 104.693 75.1001 104.293 74.5001C103.993 75.7001 103.593 76.8001 103.293 78.0001C103.293 78.1001 103.193 78.1001 103.193 78.2001C102.993 78.3001 102.593 78.2001 102.693 77.9001C103.093 76.6001 103.493 75.2001 103.893 73.9001C103.393 73.0001 102.893 72.1001 102.293 71.2001C102.193 71.0001 102.293 70.8001 102.493 70.8001C102.393 70.6001 102.493 70.3001 102.793 70.3001C103.393 70.4001 103.893 70.5001 104.493 70.6001C104.693 69.9001 104.893 69.3001 105.093 68.6001C105.093 68.5001 105.193 68.5001 105.193 68.4001C105.093 68.2001 105.193 67.9001 105.493 67.9001C107.193 67.9001 108.793 68.0001 110.493 68.3001C110.593 68.3001 110.593 68.4001 110.693 68.4001C111.493 67.5001 112.193 66.6001 112.993 65.7001C112.893 65.5001 112.993 65.2001 113.293 65.3001C114.393 65.7001 115.393 66.0001 116.593 66.1001C116.693 66.1001 116.793 66.2001 116.793 66.4001ZM109.393 73.7001C111.693 71.4001 113.893 69.0001 116.193 66.7001C115.293 66.5001 114.393 66.3001 113.493 66.0001C111.593 68.5001 109.393 70.8001 107.093 72.9001C106.893 73.0001 106.693 73.0001 106.593 72.8001C106.193 72.3001 105.793 71.7001 105.493 71.2001C104.593 71.2001 103.693 71.1001 102.893 70.9001C103.393 71.8001 103.893 72.7001 104.493 73.5001C104.593 73.5001 104.593 73.6001 104.593 73.7001C104.893 74.2001 105.193 74.6001 105.493 75.0001C105.793 75.6001 106.293 76.1001 106.893 76.3001C107.193 76.0001 107.493 75.7001 107.793 75.4001C108.293 74.8001 108.793 74.2001 109.393 73.7001ZM106.893 72.1001C108.093 71.0001 109.193 69.9001 110.193 68.8001C108.693 68.5001 107.193 68.4001 105.693 68.4001C105.693 68.5001 105.693 68.5001 105.693 68.6001C105.493 69.2001 105.293 69.8001 105.093 70.5001C105.293 70.5001 105.393 70.5001 105.593 70.5001C105.793 70.5001 105.793 70.6001 105.893 70.7001C106.293 71.2001 106.593 71.7001 106.893 72.1001Z" fill="#414648"/>
<path d="M114.893 25.7998C115.193 25.7998 115.193 26.2998 114.893 26.2998H112.493C112.193 26.2998 112.193 25.7998 112.493 25.7998H114.893Z" fill="#414648"/>
<path d="M114.493 25.1004C114.793 25.1004 114.793 25.6004 114.493 25.6004C113.293 25.5004 111.993 25.5004 110.793 25.4004C110.493 25.4004 110.493 24.9004 110.793 24.9004C112.093 24.9004 113.293 25.0004 114.493 25.1004Z" fill="#414648"/>
<path d="M111.493 79.2C111.493 79.4 111.393 79.6 111.193 79.5C108.593 79.2 105.993 78.9 103.393 78.6C103.093 78.6 103.093 78.2 103.193 78.1C103.193 78 103.293 78 103.393 78C105.993 78.3 108.593 78.6 111.193 78.9C111.293 78.9 111.293 78.9 111.393 79L111.493 79.2Z" fill="#414648"/>
<path d="M109.493 85.2001C109.593 85.3001 109.693 85.5001 109.493 85.6001C108.593 86.5001 107.793 87.3001 106.893 88.2001C106.993 88.3001 107.093 88.4001 106.993 88.5001C106.293 91.7001 105.793 94.9001 104.293 97.8001C104.193 98.0001 103.993 98.0001 103.893 97.8001L103.793 97.6001C103.793 97.5001 103.793 97.5001 103.793 97.4001C105.193 94.6001 105.693 91.6001 106.393 88.6001C105.693 89.3001 105.093 89.9001 104.393 90.6001C103.593 91.4001 102.893 92.1001 102.093 92.9001C101.393 93.6001 100.593 94.7001 99.7928 95.2001C98.9928 95.6001 98.6928 95.5001 98.0928 94.8001C97.6928 94.2001 97.2928 93.6001 96.8928 92.9001C96.4928 94.1001 96.1928 95.2001 95.7928 96.4001C95.7928 96.5001 95.7928 96.5001 95.6928 96.5001C95.4928 96.7001 95.0928 96.5001 95.1928 96.2001C95.5928 94.9001 95.9928 93.5001 96.4928 92.2001C95.9928 91.3001 95.4928 90.3001 94.9928 89.5001C94.8928 89.3001 94.9928 89.1001 95.1928 89.1001C95.0928 88.9001 95.1928 88.6001 95.4928 88.6001C96.0928 88.8001 96.5928 88.9001 97.1928 88.9001C97.3928 88.2001 97.5928 87.6001 97.7928 86.9001C97.7928 86.8001 97.8928 86.8001 97.8928 86.7001C97.7928 86.5001 97.8928 86.2001 98.1928 86.2001C99.8928 86.2001 101.493 86.4001 103.093 86.7001C103.193 86.7001 103.193 86.8001 103.293 86.8001C104.093 85.9001 104.893 85.1001 105.593 84.2001C105.493 84.0001 105.693 83.7001 105.893 83.8001C106.993 84.2001 107.993 84.5001 109.093 84.7001C109.393 85.0001 109.393 85.1001 109.493 85.2001ZM101.893 92.4001C104.193 90.1001 106.493 87.8001 108.793 85.5001C107.893 85.3001 106.993 85.1001 106.093 84.8001C104.093 87.2001 101.993 89.5001 99.5928 91.5001C99.3928 91.6001 99.1928 91.6001 99.0928 91.4001C98.6928 90.8001 98.3928 90.3001 97.9928 89.7001C97.0928 89.7001 96.1928 89.6001 95.3928 89.3001C95.8928 90.2001 96.3928 91.1001 96.8928 92.0001C96.9928 92.0001 96.9928 92.1001 96.9928 92.2001C97.2928 92.7001 97.5928 93.1001 97.8928 93.5001C98.1928 94.1001 98.5928 94.6001 99.2928 94.8001C99.5928 94.5001 99.8928 94.2001 100.193 93.9001C100.793 93.5001 101.393 92.9001 101.893 92.4001ZM99.4928 90.8001C100.693 89.8001 101.793 88.7001 102.893 87.5001C101.393 87.2001 99.8928 87.1001 98.3928 87.0001C98.3928 87.1001 98.3928 87.1001 98.3928 87.2001C98.1928 87.8001 97.9928 88.4001 97.7928 89.0001C97.9928 89.0001 98.0928 89.0001 98.2928 89.0001C98.4928 89.0001 98.4928 89.1001 98.5928 89.2001C98.8928 89.9001 99.1928 90.3001 99.4928 90.8001Z" fill="#414648"/>
<path d="M107.793 25.3998C107.493 26.0998 107.293 26.8998 107.193 27.6998C106.893 29.5998 106.793 31.5998 106.593 33.5998L102.193 33.0998C100.893 32.9998 99.3926 32.4998 98.0926 32.6998C97.0926 32.8998 96.1926 33.9998 97.0926 34.7998C96.3926 34.6998 95.5926 34.5998 94.8926 34.5998C94.7926 34.5998 94.6926 34.6998 94.6926 34.7998C92.9926 47.5998 91.3926 60.4998 89.6926 73.2998C86.7926 82.7998 83.1926 91.9998 77.9926 100.6C77.5926 101.2 77.2926 101.8 76.8926 102.4C77.7926 97.6998 78.2926 92.9998 78.7926 88.1998C79.2926 83.0998 79.8926 78.0998 80.5926 73.0998L84.6926 41.7998C85.4926 35.9998 86.1926 30.0998 86.9926 24.2998C93.9926 24.9998 100.893 25.2998 107.793 25.3998ZM87.6926 35.9998C87.6926 35.6998 87.1926 35.6998 87.1926 35.9998C87.0926 37.1998 86.8926 38.4998 86.7926 39.6998C86.7926 39.9998 87.2926 39.9998 87.2926 39.6998C87.3926 38.4998 87.4926 37.2998 87.6926 35.9998ZM86.7926 37.3998C86.8926 37.0998 86.3926 36.9998 86.2926 37.2998C85.9926 38.4998 85.6926 39.7998 85.3926 40.9998C85.2926 41.2998 85.7926 41.3998 85.8926 41.0998C86.1926 39.7998 86.4926 38.5998 86.7926 37.3998Z" fill="#AFD8DD"/>
<path d="M103.893 98.0001C103.893 98.2001 103.793 98.4001 103.593 98.3001C100.993 97.9001 98.3926 97.6001 95.8926 97.2001C95.5926 97.2001 95.5926 96.8001 95.6926 96.6001C95.6926 96.6001 95.7926 96.5001 95.8926 96.6001C98.4926 97.0001 101.093 97.3001 103.593 97.7001C103.693 97.7001 103.693 97.7001 103.793 97.8001L103.893 98.0001Z" fill="#414648"/>
<path d="M103.293 103.601C103.393 103.701 103.493 103.901 103.293 104.001C102.393 104.801 101.493 105.701 100.593 106.501C100.693 106.601 100.793 106.701 100.693 106.801C99.9931 110.001 99.3931 113.201 97.7931 116.101C97.6931 116.301 97.4931 116.301 97.3931 116.101L97.2931 115.901C97.2931 115.801 97.2931 115.801 97.2931 115.701C98.7931 113.001 99.3931 109.901 99.9931 106.901C99.2931 107.501 98.5931 108.201 97.9931 108.801C97.1931 109.601 96.3931 110.301 95.5931 111.101C94.8931 111.801 94.0931 112.901 93.1931 113.401C92.3931 113.801 92.0931 113.701 91.4931 112.901C91.0931 112.301 90.6931 111.701 90.2931 111.001C89.8931 112.101 89.4931 113.301 89.0931 114.401C89.0931 114.401 89.0931 114.501 88.9931 114.501C88.7931 114.701 88.3931 114.501 88.4931 114.201C88.8931 112.901 89.3931 111.601 89.7931 110.301C89.2931 109.401 88.7931 108.401 88.2931 107.501C88.1931 107.301 88.2931 107.101 88.4931 107.101C88.3931 106.901 88.5931 106.601 88.8931 106.701C89.4931 106.901 89.9931 107.001 90.5931 107.101C90.7931 106.401 91.0931 105.801 91.2931 105.101C91.2931 105.001 91.3931 105.001 91.3931 105.001C91.2931 104.801 91.3931 104.501 91.6931 104.501C93.3931 104.501 94.9931 104.701 96.5931 105.101C96.6931 105.101 96.6931 105.201 96.7931 105.201C97.5931 104.401 98.3931 103.501 99.1931 102.601C99.0931 102.401 99.2931 102.101 99.5931 102.201C100.593 102.601 101.693 103.001 102.793 103.201C103.193 103.301 103.193 103.401 103.293 103.601ZM95.5931 110.601C97.9931 108.301 100.293 106.101 102.693 103.801C101.793 103.601 100.893 103.401 100.093 103.001C98.0931 105.401 95.8931 107.601 93.4931 109.601C93.2931 109.701 93.0931 109.701 92.9931 109.501C92.5931 108.901 92.2931 108.401 91.8931 107.801C90.9931 107.801 90.0931 107.601 89.2931 107.401C89.7931 108.301 90.2931 109.201 90.7931 110.101C90.8931 110.101 90.8931 110.201 90.8931 110.301C91.1931 110.801 91.3931 111.201 91.6931 111.601C91.9931 112.201 92.3931 112.701 93.0931 113.001C93.3931 112.701 93.6931 112.401 93.9931 112.101C94.4931 111.601 94.9931 111.101 95.5931 110.601ZM93.1931 109.001C94.3931 108.001 95.4931 106.901 96.5931 105.801C95.0931 105.501 93.5931 105.301 92.0931 105.201C92.0931 105.301 92.0931 105.301 92.0931 105.401C91.8931 106.001 91.6931 106.601 91.4931 107.201C91.6931 107.201 91.7931 107.201 91.9931 107.201C92.1931 107.201 92.1931 107.301 92.2931 107.401C92.5931 108.001 92.8931 108.501 93.1931 109.001Z" fill="#414648"/>
<path d="M101.293 39.0998C101.393 38.7998 101.893 39.0999 101.693 39.3999C101.293 40.2999 100.793 41.1999 100.393 42.1999C100.293 42.4999 99.7931 42.1999 99.9931 41.8999C100.393 40.8999 100.793 39.9998 101.293 39.0998Z" fill="#414648"/>
<path d="M100.893 38.4002C101.093 38.1002 101.393 38.5002 101.293 38.8002C100.893 39.3002 100.693 39.9002 100.593 40.5002C100.593 40.8002 100.093 40.8002 100.093 40.5002C100.093 39.7002 100.393 39.0002 100.893 38.4002Z" fill="#414648"/>
<path d="M97.3926 116.2C97.3926 116.4 97.2926 116.6 97.0926 116.5C94.4926 116.1 91.9926 115.7 89.3926 115.3C89.0926 115.3 89.0926 114.9 89.1926 114.7C89.1926 114.7 89.2926 114.6 89.3926 114.7C91.9926 115.1 94.4926 115.5 97.0926 115.9C97.1926 115.9 97.1926 115.9 97.2926 116L97.3926 116.2Z" fill="#414648"/>
<path d="M88.6929 149.9C88.9929 150 88.8929 150.5 88.5929 150.4C87.5929 150.1 86.5929 149.8 85.6929 149.4C85.3929 149.3 85.4929 148.8 85.7929 148.9C86.7929 149.3 87.6929 149.6 88.6929 149.9Z" fill="#414648"/>
<path d="M88.3929 148.801C88.6929 148.901 88.5929 149.401 88.2929 149.301C86.8929 148.801 85.5929 148.201 84.1929 147.701C83.8929 147.601 83.9929 147.101 84.2929 147.201C85.6929 147.701 86.9929 148.201 88.3929 148.801Z" fill="#414648"/>
<path d="M87.193 36.0004C87.193 35.7004 87.693 35.7004 87.693 36.0004C87.593 37.2004 87.393 38.5004 87.293 39.7004C87.293 40.0004 86.793 40.0004 86.793 39.7004C86.893 38.5004 86.993 37.3004 87.193 36.0004Z" fill="#414648"/>
<path d="M86.3926 37.3003C86.4926 37.0003 86.9926 37.1003 86.8926 37.4003C86.5926 38.6003 86.2926 39.9003 85.9926 41.1003C85.8926 41.4003 85.3926 41.3003 85.4926 41.0003C85.7926 39.7003 86.0926 38.5003 86.3926 37.3003Z" fill="#414648"/>
<path d="M29.4932 129.2H9.99316C9.69316 129.2 9.49316 129 9.49316 128.7V109.1C9.49316 108.8 9.69316 108.6 9.99316 108.6H29.5932C29.8932 108.6 30.0932 108.8 30.0932 109.1V128.7C29.9932 129 29.7932 129.2 29.4932 129.2ZM10.4932 128.2H29.0932V109.6H10.4932V128.2Z" fill="#AFD8DD"/>
<path d="M55.1928 129.2H35.5928C35.2928 129.2 35.0928 129 35.0928 128.7V109.1C35.0928 108.8 35.2928 108.6 35.5928 108.6H55.1928C55.4928 108.6 55.6928 108.8 55.6928 109.1V128.7C55.6928 129 55.3928 129.2 55.1928 129.2ZM36.0928 128.2H54.6928V109.6H36.0928V128.2Z" fill="#AFD8DD"/>
<path d="M17.4928 124.5H17.3928C17.0928 124.5 16.7928 124.3 16.5928 124L13.2928 117.3C13.0928 116.8 13.2928 116.2 13.6928 116C14.1928 115.8 14.7928 116 14.9928 116.4L17.6928 121.8L26.4928 112.1C26.8928 111.7 27.4928 111.7 27.8928 112C28.2928 112.3 28.2928 113 27.9928 113.4L18.1928 124.2C18.0928 124.4 17.7928 124.5 17.4928 124.5Z" fill="#AFD8DD"/>
<path d="M29.4932 67.5H9.99316C9.69316 67.5 9.49316 67.3 9.49316 67V47.5C9.49316 47.2 9.69316 47 9.99316 47H29.5932C29.8932 47 30.0932 47.2 30.0932 47.5V67.1C29.9932 67.3 29.7932 67.5 29.4932 67.5ZM10.4932 66.5H29.0932V48H10.4932V66.5Z" fill="#AFD8DD"/>
<path d="M55.1928 67.5H35.5928C35.2928 67.5 35.0928 67.3 35.0928 67V47.5C35.0928 47.2 35.2928 47 35.5928 47H55.1928C55.4928 47 55.6928 47.2 55.6928 47.5V67.1C55.6928 67.3 55.3928 67.5 55.1928 67.5ZM36.0928 66.5H54.6928V48H36.0928V66.5Z" fill="#AFD8DD"/>
<path d="M17.4928 62.9004H17.3928C17.0928 62.9004 16.7928 62.7004 16.5928 62.4004L13.2928 55.7004C13.0928 55.2004 13.2928 54.6004 13.6928 54.4004C14.1928 54.2004 14.7928 54.4004 14.9928 54.8004L17.6928 60.2004L26.4928 50.5004C26.8928 50.1004 27.4928 50.1004 27.8928 50.4004C28.2928 50.7004 28.2928 51.4004 27.9928 51.8004L18.1928 62.6004C18.0928 62.8004 17.7928 62.9004 17.4928 62.9004Z" fill="#AFD8DD"/>
<path d="M29.4932 99.4004H9.99316C9.69316 99.4004 9.49316 99.2004 9.49316 98.9004V79.4004C9.49316 79.1004 9.69316 78.9004 9.99316 78.9004H29.5932C29.8932 78.9004 30.0932 79.1004 30.0932 79.4004V99.0004C29.9932 99.2004 29.7932 99.4004 29.4932 99.4004ZM10.4932 98.4004H29.0932V79.9004H10.4932V98.4004Z" fill="#AFD8DD"/>
<path d="M55.1928 99.4004H35.5928C35.2928 99.4004 35.0928 99.2004 35.0928 98.9004V79.4004C35.0928 79.1004 35.2928 78.9004 35.5928 78.9004H55.1928C55.4928 78.9004 55.6928 79.1004 55.6928 79.4004V99.0004C55.6928 99.2004 55.3928 99.4004 55.1928 99.4004ZM36.0928 98.4004H54.6928V79.9004H36.0928V98.4004Z" fill="#AFD8DD"/>
<path d="M43.0929 94.8002H42.9929C42.6929 94.8002 42.3929 94.6002 42.1929 94.3002L38.8929 87.5002C38.6929 87.0002 38.8929 86.4002 39.2929 86.2002C39.7929 86.0002 40.3929 86.2002 40.5929 86.6002L43.2929 92.0002L52.0929 82.3002C52.4929 81.9002 53.0929 81.9002 53.4929 82.2002C53.8929 82.5002 53.8929 83.2002 53.5929 83.6002L43.8929 94.5002C43.6929 94.7002 43.3929 94.8002 43.0929 94.8002Z" fill="#AFD8DD"/>
<path d="M216.493 80.1004H214.593L214.293 78.0004H211.993L211.693 80.1004H209.993L211.893 68.4004H214.593L216.493 80.1004ZM212.293 76.4004H214.093L213.193 70.5004L212.293 76.4004Z" fill="#C7E4E7"/>
<path d="M216.192 112.7V113.1C216.192 114.3 215.792 115.1 214.992 115.5C215.992 115.9 216.392 116.8 216.392 118V119C216.392 120.8 215.392 121.8 213.592 121.8H210.692V110.1H213.492C215.392 110 216.192 110.9 216.192 112.7ZM212.492 111.6V114.7H213.192C213.892 114.7 214.292 114.4 214.292 113.5V112.8C214.292 112 213.992 111.6 213.392 111.6H212.492ZM212.492 116.4V120H213.592C214.192 120 214.592 119.7 214.592 118.8V117.8C214.592 116.7 214.192 116.4 213.392 116.4H212.492Z" fill="#C7E4E7"/>
<path d="M216.293 157.701V159.301C216.293 161.201 215.393 162.201 213.593 162.201C211.793 162.201 210.893 161.101 210.893 159.301V153.201C210.893 151.301 211.793 150.301 213.593 150.301C215.393 150.301 216.293 151.401 216.293 153.201V154.301H214.593V153.001C214.593 152.201 214.193 151.801 213.593 151.801C212.993 151.801 212.593 152.101 212.593 153.001V159.301C212.593 160.101 212.993 160.401 213.593 160.401C214.193 160.401 214.593 160.101 214.593 159.301V157.601H216.293V157.701Z" fill="#C7E4E7"/>
<path d="M220.593 101.2H205.393V86H220.593V101.2ZM206.393 100.2H219.593V87H206.393V100.2Z" fill="#C7E4E7"/>
<path d="M220.593 142.801H205.393V127.601H220.593V142.801ZM206.393 141.801H219.593V128.601H206.393V141.801Z" fill="#C7E4E7"/>
<path d="M220.593 183.1H205.393V167.9H220.593V183.1ZM206.393 182.1H219.593V168.9H206.393V182.1Z" fill="#C7E4E7"/>
<path d="M261.193 99.7002H227.093V100.7H261.193V99.7002Z" fill="#C7E4E7"/>
<path d="M261.193 141.301H227.093V142.301H261.193V141.301Z" fill="#C7E4E7"/>
<path d="M261.193 181.601H227.093V182.601H261.193V181.601Z" fill="#C7E4E7"/>
</g>
<defs>
<filter id="filter0_dd_221_1100" x="0.191406" y="0.321289" width="265.001" height="199.254" filterUnits="userSpaceOnUse" color-interpolation-filters="sRGB">
<feFlood flood-opacity="0" result="BackgroundImageFix"/>
<feColorMatrix in="SourceAlpha" type="matrix" values="0 0 0 0 0 0 0 0 0 0 0 0 0 0 0 0 0 0 127 0" result="hardAlpha"/>
<feOffset dy="4"/>
<feGaussianBlur stdDeviation="2"/>
<feComposite in2="hardAlpha" operator="out"/>
<feColorMatrix type="matrix" values="0 0 0 0 0 0 0 0 0 0 0 0 0 0 0 0 0 0 0.25 0"/>
<feBlend mode="normal" in2="BackgroundImageFix" result="effect1_dropShadow_221_1100"/>
<feColorMatrix in="SourceAlpha" type="matrix" values="0 0 0 0 0 0 0 0 0 0 0 0 0 0 0 0 0 0 127 0" result="hardAlpha"/>
<feOffset dy="4"/>
<feGaussianBlur stdDeviation="2"/>
<feComposite in2="hardAlpha" operator="out"/>
<feColorMatrix type="matrix" values="0 0 0 0 0 0 0 0 0 0 0 0 0 0 0 0 0 0 0.25 0"/>
<feBlend mode="normal" in2="effect1_dropShadow_221_1100" result="effect2_dropShadow_221_1100"/>
<feBlend mode="normal" in="SourceGraphic" in2="effect2_dropShadow_221_1100" result="shape"/>
</filter>
</defs>
</svg>
