<svg width="619" height="576" viewBox="0 0 619 576" fill="none" xmlns="http://www.w3.org/2000/svg">
<path opacity="0.3" d="M528.341 521.488C547.819 507.702 564.262 489.741 576.657 466.469C649.004 331.008 632.561 131.295 493.432 45.6674C429.054 6.07887 336.343 -18.9643 266.905 21.636C210.495 54.6475 175.965 116.75 147.254 173.16C129.294 208.701 114.496 246.898 92.2352 280.163C63.524 323.293 -24.2659 387.485 7.7337 437.571C51.2431 505.871 189.625 530.342 264.123 550.832C344.944 573.092 435.884 576.254 510.634 532.871C516.705 529.33 522.523 525.535 528.341 521.488Z" fill="#AFD8DD"/>
<g opacity="0.3">
<path opacity="0.3" d="M592.593 245.76H461.053V73.3662H592.593V245.76ZM462.318 244.495H591.328V74.631H462.318V244.495Z" fill="#AFD8DD"/>
<path opacity="0.3" d="M568.688 214.393H484.958V104.86H568.688V214.393ZM486.223 213.128H567.424V106.125H486.223V213.128Z" fill="#AFD8DD"/>
</g>
<path d="M431.077 54.9004H86.1641V361.869H431.077V54.9004Z" fill="#414648"/>
<path d="M424.626 47.4385H79.7134V354.407H424.626V47.4385Z" fill="white"/>
<path d="M424.627 355.039H79.7135C79.334 355.039 79.0811 354.786 79.0811 354.407V47.4381C79.0811 47.0586 79.334 46.8057 79.7135 46.8057H424.627C425.006 46.8057 425.259 47.0586 425.259 47.4381V354.407C425.259 354.786 424.879 355.039 424.627 355.039ZM80.3459 353.774H423.994V48.0705H80.3459V353.774Z" fill="#414648"/>
<path d="M357.3 171.253H374.501V154.052H357.3V171.253Z" fill="white"/>
<path d="M374.54 171.895H357.339C356.96 171.895 356.707 171.642 356.707 171.262V154.061C356.707 153.682 356.96 153.429 357.339 153.429H374.54C374.92 153.429 375.173 153.682 375.173 154.061V171.262C375.173 171.642 374.92 171.895 374.54 171.895ZM358.098 170.63H374.034V154.694H358.098V170.63Z" fill="#414648"/>
<path d="M379.816 171.253H397.018V154.052H379.816V171.253Z" fill="white"/>
<path d="M397.054 171.895H379.853C379.473 171.895 379.22 171.642 379.22 171.262V154.061C379.22 153.682 379.473 153.429 379.853 153.429H397.054C397.433 153.429 397.686 153.682 397.686 154.061V171.262C397.686 171.642 397.307 171.895 397.054 171.895ZM380.485 170.63H396.422V154.694H380.485V170.63Z" fill="#414648"/>
<path d="M350.509 164.433H263.364C262.984 164.433 262.731 164.18 262.731 163.8C262.731 163.421 262.984 163.168 263.364 163.168H350.509C350.889 163.168 351.142 163.421 351.142 163.8C351.142 164.18 350.889 164.433 350.509 164.433Z" fill="#414648"/>
<path d="M357.3 211.732H374.501V194.531H357.3V211.732Z" fill="white"/>
<path d="M374.54 212.369H357.339C356.96 212.369 356.707 212.116 356.707 211.736V194.535C356.707 194.155 356.96 193.902 357.339 193.902H374.54C374.92 193.902 375.173 194.155 375.173 194.535V211.736C375.173 212.116 374.92 212.369 374.54 212.369ZM358.098 211.104H374.034V195.167H358.098V211.104Z" fill="#414648"/>
<path d="M379.816 211.732H397.018V194.531H379.816V211.732Z" fill="white"/>
<path d="M397.054 212.369H379.853C379.473 212.369 379.22 212.116 379.22 211.736V194.535C379.22 194.155 379.473 193.902 379.853 193.902H397.054C397.433 193.902 397.686 194.155 397.686 194.535V211.736C397.686 212.116 397.307 212.369 397.054 212.369ZM380.485 211.104H396.422V195.167H380.485V211.104Z" fill="#414648"/>
<path d="M350.509 204.906H263.364C262.984 204.906 262.731 204.653 262.731 204.274C262.731 203.895 262.984 203.642 263.364 203.642H350.509C350.889 203.642 351.142 203.895 351.142 204.274C351.142 204.653 350.889 204.906 350.509 204.906Z" fill="#414648"/>
<path d="M357.3 252.214H374.501V235.012H357.3V252.214Z" fill="white"/>
<path d="M374.54 252.843H357.339C356.96 252.843 356.707 252.59 356.707 252.211V235.009C356.707 234.63 356.96 234.377 357.339 234.377H374.54C374.92 234.377 375.173 234.63 375.173 235.009V252.211C375.173 252.59 374.92 252.843 374.54 252.843ZM358.098 251.578H374.034V235.642H358.098V251.578Z" fill="#414648"/>
<path d="M379.816 252.214H397.018V235.012H379.816V252.214Z" fill="white"/>
<path d="M397.054 252.843H379.853C379.473 252.843 379.22 252.59 379.22 252.211V235.009C379.22 234.63 379.473 234.377 379.853 234.377H397.054C397.433 234.377 397.686 234.63 397.686 235.009V252.211C397.686 252.59 397.307 252.843 397.054 252.843ZM380.485 251.578H396.422V235.642H380.485V251.578Z" fill="#414648"/>
<path d="M350.509 245.381H263.364C262.984 245.381 262.731 245.128 262.731 244.749C262.731 244.369 262.984 244.116 263.364 244.116H350.509C350.889 244.116 351.142 244.369 351.142 244.749C351.142 245.128 350.889 245.381 350.509 245.381Z" fill="#414648"/>
<path d="M193.412 171.253H210.613V154.052H193.412V171.253Z" fill="white"/>
<path d="M210.621 171.895H193.42C193.04 171.895 192.787 171.642 192.787 171.262V154.061C192.787 153.682 193.04 153.429 193.42 153.429H210.621C211 153.429 211.253 153.682 211.253 154.061V171.262C211.253 171.642 211 171.895 210.621 171.895ZM194.052 170.63H209.988V154.694H194.052V170.63Z" fill="#414648"/>
<path d="M215.802 171.253H233.003V154.052H215.802V171.253Z" fill="white"/>
<path d="M233.008 171.895H215.807C215.427 171.895 215.174 171.642 215.174 171.262V154.061C215.174 153.682 215.427 153.429 215.807 153.429H233.008C233.388 153.429 233.641 153.682 233.641 154.061V171.262C233.641 171.642 233.388 171.895 233.008 171.895ZM216.566 170.63H232.502V154.694H216.566V170.63Z" fill="#414648"/>
<path d="M186.59 164.433H99.4444C99.065 164.433 98.812 164.18 98.812 163.8C98.812 163.421 99.065 163.168 99.4444 163.168H186.59C186.969 163.168 187.222 163.421 187.222 163.8C187.222 164.18 186.969 164.433 186.59 164.433Z" fill="#414648"/>
<path d="M193.412 211.732H210.613V194.531H193.412V211.732Z" fill="white"/>
<path d="M210.621 212.369H193.42C193.04 212.369 192.787 212.116 192.787 211.736V194.535C192.787 194.155 193.04 193.902 193.42 193.902H210.621C211 193.902 211.253 194.155 211.253 194.535V211.736C211.253 212.116 211 212.369 210.621 212.369ZM194.052 211.104H209.988V195.167H194.052V211.104Z" fill="#414648"/>
<path d="M215.802 211.732H233.003V194.531H215.802V211.732Z" fill="white"/>
<path d="M233.008 212.369H215.807C215.427 212.369 215.174 212.116 215.174 211.736V194.535C215.174 194.155 215.427 193.902 215.807 193.902H233.008C233.388 193.902 233.641 194.155 233.641 194.535V211.736C233.641 212.116 233.388 212.369 233.008 212.369ZM216.566 211.104H232.502V195.167H216.566V211.104Z" fill="#414648"/>
<path d="M186.59 204.906H99.4444C99.065 204.906 98.812 204.653 98.812 204.274C98.812 203.895 99.065 203.642 99.4444 203.642H186.59C186.969 203.642 187.222 203.895 187.222 204.274C187.222 204.653 186.969 204.906 186.59 204.906Z" fill="#414648"/>
<path d="M193.412 252.214H210.613V235.012H193.412V252.214Z" fill="white"/>
<path d="M210.621 252.843H193.42C193.04 252.843 192.787 252.59 192.787 252.211V235.009C192.787 234.63 193.04 234.377 193.42 234.377H210.621C211 234.377 211.253 234.63 211.253 235.009V252.211C211.253 252.59 211 252.843 210.621 252.843ZM194.052 251.578H209.988V235.642H194.052V251.578Z" fill="#414648"/>
<path d="M215.802 252.214H233.003V235.012H215.802V252.214Z" fill="white"/>
<path d="M233.008 252.843H215.807C215.427 252.843 215.174 252.59 215.174 252.211V235.009C215.174 234.63 215.427 234.377 215.807 234.377H233.008C233.388 234.377 233.641 234.63 233.641 235.009V252.211C233.641 252.59 233.388 252.843 233.008 252.843ZM216.566 251.578H232.502V235.642H216.566V251.578Z" fill="#414648"/>
<path d="M186.59 245.381H99.4444C99.065 245.381 98.812 245.128 98.812 244.749C98.812 244.369 99.065 244.116 99.4444 244.116H186.59C186.969 244.116 187.222 244.369 187.222 244.749C187.222 245.128 186.969 245.381 186.59 245.381Z" fill="#414648"/>
<path d="M123.729 311.277H104.883V330.123H123.729V311.277Z" fill="white"/>
<path d="M123.729 330.755H104.883C104.504 330.755 104.251 330.502 104.251 330.123V311.277C104.251 310.897 104.504 310.645 104.883 310.645H123.729C124.108 310.645 124.361 310.897 124.361 311.277V330.123C124.361 330.502 124.108 330.755 123.729 330.755ZM105.516 329.49H123.097V311.909H105.516V329.49Z" fill="#414648"/>
<path d="M200.882 311.277H182.037V330.123H200.882V311.277Z" fill="white"/>
<path d="M200.882 330.755H182.037C181.657 330.755 181.404 330.502 181.404 330.123V311.277C181.404 310.897 181.657 310.645 182.037 310.645H200.882C201.262 310.645 201.515 310.897 201.515 311.277V330.123C201.515 330.502 201.262 330.755 200.882 330.755ZM182.669 329.49H200.25V311.909H182.669V329.49Z" fill="#414648"/>
<path d="M280.944 311.277H262.099V330.123H280.944V311.277Z" fill="white"/>
<path d="M281.071 330.755H262.225C261.846 330.755 261.593 330.502 261.593 330.123V311.277C261.593 310.897 261.846 310.645 262.225 310.645H281.071C281.45 310.645 281.703 310.897 281.703 311.277V330.123C281.703 330.502 281.45 330.755 281.071 330.755ZM262.731 329.49H280.312V311.909H262.731V329.49Z" fill="#414648"/>
<path d="M224.407 166.962C224.281 166.962 224.281 166.962 224.154 166.962C223.775 166.836 223.396 166.583 223.269 166.33L220.36 160.511C220.107 159.879 220.36 159.12 220.866 158.867C221.498 158.614 222.257 158.867 222.51 159.373L224.66 163.673L237.561 151.152C238.067 150.646 238.826 150.646 239.332 151.152C239.838 151.658 239.838 152.417 239.332 152.923L225.166 166.583C225.04 166.836 224.787 166.962 224.407 166.962Z" fill="#414648"/>
<path d="M224.407 207.057C224.281 207.057 224.281 207.057 224.154 207.057C223.775 206.93 223.396 206.677 223.269 206.424L220.36 200.606C220.107 199.974 220.36 199.215 220.866 198.962C221.498 198.709 222.257 198.962 222.51 199.468L224.66 203.768L237.561 191.247C238.067 190.741 238.826 190.741 239.332 191.247C239.838 191.753 239.838 192.511 239.332 193.017L225.166 206.677C225.04 206.93 224.787 207.057 224.407 207.057Z" fill="#414648"/>
<path d="M199.997 249.048C199.87 249.048 199.87 249.048 199.744 249.048C199.364 248.922 198.985 248.669 198.858 248.416L195.949 242.471C195.696 241.839 195.949 241.08 196.455 240.827C197.088 240.574 197.847 240.827 198.1 241.333L200.25 245.633L213.151 233.112C213.657 232.606 214.416 232.606 214.921 233.112C215.427 233.618 215.427 234.377 214.921 234.883L200.756 248.543C200.756 248.922 200.376 249.048 199.997 249.048Z" fill="#414648"/>
<path d="M387.442 166.456C387.315 166.456 387.315 166.456 387.189 166.456C386.809 166.33 386.43 166.077 386.303 165.824L383.394 160.006C383.141 159.373 383.394 158.614 383.9 158.361C384.532 158.108 385.291 158.361 385.544 158.867L387.695 163.168L400.596 150.646C401.101 150.14 401.86 150.14 402.366 150.646C402.872 151.152 402.872 151.911 402.366 152.417L388.2 166.077C388.074 166.33 387.821 166.456 387.442 166.456Z" fill="#414648"/>
<path d="M363.789 207.563C363.663 207.563 363.663 207.563 363.536 207.563C363.157 207.436 362.777 207.183 362.651 206.93L359.742 201.112C359.489 200.48 359.742 199.721 360.248 199.468C360.88 199.215 361.639 199.468 361.892 199.974L364.042 204.274L376.943 191.752C377.449 191.247 378.208 191.247 378.714 191.752C379.22 192.258 379.22 193.017 378.714 193.523L364.548 207.183C364.548 207.436 364.169 207.563 363.789 207.563Z" fill="#414648"/>
<path d="M363.789 248.669C363.663 248.669 363.663 248.669 363.536 248.669C363.157 248.543 362.777 248.29 362.651 248.037L359.742 242.219C359.489 241.586 359.742 240.827 360.248 240.574C360.88 240.321 361.639 240.574 361.892 241.08L364.042 245.381L376.943 232.859C377.449 232.353 378.208 232.353 378.714 232.859C379.22 233.365 379.22 234.124 378.714 234.63L364.548 248.29C364.548 248.543 364.169 248.669 363.789 248.669Z" fill="#414648"/>
<path d="M424.626 47.4385H79.7134V95.3747H424.626V47.4385Z" fill="#3BB3BD"/>
<path d="M424.627 96.0067H79.7135C79.334 96.0067 79.0811 95.7537 79.0811 95.3743V47.4381C79.0811 47.0586 79.334 46.8057 79.7135 46.8057H424.627C425.006 46.8057 425.259 47.0586 425.259 47.4381V95.3743C425.259 95.7537 424.879 96.0067 424.627 96.0067ZM80.3459 94.7419H423.994V48.0705H80.3459V94.7419Z" fill="#414648"/>
<path d="M424.627 47.4385H411.599V354.407H424.627V47.4385Z" fill="#AFD8DD"/>
<path d="M424.627 355.039H411.599C411.22 355.039 410.967 354.786 410.967 354.407V47.4381C410.967 47.0586 411.22 46.8057 411.599 46.8057H424.627C425.006 46.8057 425.259 47.0586 425.259 47.4381V354.407C425.259 354.786 424.88 355.039 424.627 355.039ZM412.232 353.774H423.994V48.0705H412.232V353.774Z" fill="#414648"/>
<path d="M424.627 153.429H411.599C411.22 153.429 410.967 153.176 410.967 152.797V93.4771C410.967 93.0977 411.22 92.8447 411.599 92.8447H424.627C425.006 92.8447 425.259 93.0977 425.259 93.4771V152.797C425.259 153.176 424.88 153.429 424.627 153.429ZM412.232 152.164H423.994V94.1095H412.232V152.164Z" fill="#414648"/>
<path d="M424.626 47.4385H79.7134V70.7109H424.626V47.4385Z" fill="#AFD8DD"/>
<path d="M424.627 71.3429H79.7135C79.334 71.3429 79.0811 71.09 79.0811 70.7105V47.4381C79.0811 47.0586 79.334 46.8057 79.7135 46.8057H424.627C425.006 46.8057 425.259 47.0586 425.259 47.4381V70.7105C425.259 71.09 424.879 71.3429 424.627 71.3429ZM80.3459 70.0781H423.994V48.0705H80.3459V70.0781Z" fill="#414648"/>
<path d="M233.135 54.1416H97.168V63.8806H233.135V54.1416Z" fill="white"/>
<path d="M233.135 64.5126H97.168C96.7886 64.5126 96.5356 64.2597 96.5356 63.8802V54.1412C96.5356 53.7618 96.7886 53.5088 97.168 53.5088H233.135C233.514 53.5088 233.767 53.7618 233.767 54.1412V63.8802C233.767 64.2597 233.514 64.5126 233.135 64.5126ZM97.8005 63.2478H232.502V54.7736H97.8005V63.2478Z" fill="#414648"/>
<path d="M416.152 55.2804H404.263C403.884 55.2804 403.631 55.0275 403.631 54.648C403.631 54.2686 403.884 54.0156 404.263 54.0156H416.152C416.532 54.0156 416.785 54.2686 416.785 54.648C416.785 55.0275 416.532 55.2804 416.152 55.2804Z" fill="#414648"/>
<path d="M416.152 60.34H404.263C403.884 60.34 403.631 60.087 403.631 59.7076C403.631 59.3282 403.884 59.0752 404.263 59.0752H416.152C416.532 59.0752 416.785 59.3282 416.785 59.7076C416.785 60.087 416.532 60.34 416.152 60.34Z" fill="#414648"/>
<path d="M416.152 65.3986H404.263C403.884 65.3986 403.631 65.1456 403.631 64.7662C403.631 64.3868 403.884 64.1338 404.263 64.1338H416.152C416.532 64.1338 416.785 64.3868 416.785 64.7662C416.785 65.1456 416.532 65.3986 416.152 65.3986Z" fill="#414648"/>
<path d="M200.123 114.726C200.123 111.69 201.641 110.046 204.55 110.046C207.459 110.046 208.977 111.817 208.977 114.726V124.465C208.977 127.5 207.459 129.144 204.55 129.144C201.641 129.144 200.123 127.374 200.123 124.465V114.726ZM203.032 124.591C203.032 125.982 203.665 126.488 204.55 126.488C205.435 126.488 206.068 125.982 206.068 124.591V114.473C206.068 113.081 205.435 112.576 204.55 112.576C203.665 112.576 203.032 113.081 203.032 114.473V124.591Z" fill="#414648"/>
<path d="M213.53 115.358V128.891H210.874V110.299H214.542L217.578 121.429V110.299H220.234V129.018H217.198L213.53 115.358Z" fill="#414648"/>
<path d="M222.384 110.299H225.293V126.362H230.099V129.018H222.384V110.299Z" fill="#414648"/>
<path d="M231.364 110.299H234.273V129.018H231.364V110.299Z" fill="#414648"/>
<path d="M239.079 115.358V128.891H236.423V110.299H240.091L243.126 121.429V110.299H245.782V129.018H242.747L239.079 115.358Z" fill="#414648"/>
<path d="M250.842 118.141H254.889V120.797H250.842V126.235H255.901V128.891H247.933V110.299H255.901V112.955H250.842V118.141Z" fill="#414648"/>
<path d="M260.96 110.299H270.067V112.955H267.032V129.018H264.122V112.955H261.087V110.299H260.96Z" fill="#414648"/>
<path d="M274.241 118.141H278.288V120.797H274.241V126.235H279.3V128.891H271.332V110.299H279.3V112.955H274.241V118.141Z" fill="#414648"/>
<path d="M285.118 110.046C288.027 110.046 289.419 111.817 289.419 114.726V115.358H286.636V114.599C286.636 113.208 286.13 112.702 285.118 112.702C284.233 112.702 283.6 113.208 283.6 114.599C283.6 118.394 289.292 119.153 289.292 124.465C289.292 127.5 287.774 129.144 284.865 129.144C281.956 129.144 280.438 127.374 280.438 124.465V123.326H283.221V124.718C283.221 126.109 283.853 126.488 284.739 126.488C285.624 126.488 286.257 125.982 286.257 124.718C286.257 120.923 280.565 120.164 280.565 114.852C280.818 111.817 282.209 110.046 285.118 110.046Z" fill="#414648"/>
<path d="M290.304 110.299H299.41V112.955H296.375V129.018H293.339V112.955H290.304V110.299Z" fill="#414648"/>
<path d="M119.555 306.724H116.646L116.14 303.309H112.472L111.966 306.724H109.31L112.346 288.005H116.646L119.555 306.724ZM112.852 300.779H115.634L114.243 291.293L112.852 300.779Z" fill="#414648"/>
<path d="M195.443 292.305V292.938C195.443 294.835 194.811 296.1 193.546 296.732C195.064 297.364 195.696 298.756 195.696 300.779V302.297C195.696 305.206 194.179 306.724 191.27 306.724H186.59V288.005H191.017C194.179 288.005 195.443 289.396 195.443 292.305ZM189.625 290.661V295.594H190.764C191.902 295.594 192.534 295.088 192.534 293.57V292.558C192.534 291.167 192.029 290.661 191.017 290.661H189.625ZM189.625 298.25V303.941H191.27C192.281 303.941 192.787 303.436 192.787 302.044V300.4C192.787 298.629 192.281 298.123 190.89 298.123H189.625V298.25Z" fill="#414648"/>
<path d="M276.391 299.767V302.297C276.391 305.332 274.873 306.977 271.964 306.977C269.055 306.977 267.538 305.206 267.538 302.297V292.558C267.538 289.522 269.055 287.878 271.964 287.878C274.873 287.878 276.391 289.649 276.391 292.558V294.328H273.609V292.305C273.609 290.913 272.976 290.408 272.091 290.408C271.206 290.408 270.573 290.913 270.573 292.305V302.423C270.573 303.815 271.206 304.194 272.091 304.194C272.976 304.194 273.609 303.688 273.609 302.423V299.767H276.391Z" fill="#414648"/>
<path d="M324.96 278.645H100.836C100.457 278.645 100.204 278.392 100.204 278.012C100.204 277.633 100.457 277.38 100.836 277.38H324.96C325.339 277.38 325.592 277.633 325.592 278.012C325.592 278.392 325.339 278.645 324.96 278.645Z" fill="#414648"/>
<path d="M493.812 49.4618H469.022C468.642 49.4618 468.389 49.2088 468.389 48.8294V24.1656C468.389 23.7862 468.642 23.5332 469.022 23.5332H493.812C494.191 23.5332 494.444 23.7862 494.444 24.1656V48.9558C494.444 49.2088 494.065 49.4618 493.812 49.4618ZM469.654 48.197H493.179V24.798H469.654V48.197Z" fill="#AFD8DD"/>
<path d="M526.191 49.4618H501.4C501.021 49.4618 500.768 49.2088 500.768 48.8294V24.1656C500.768 23.7862 501.021 23.5332 501.4 23.5332H526.191C526.57 23.5332 526.823 23.7862 526.823 24.1656V48.9558C526.823 49.2088 526.57 49.4618 526.191 49.4618ZM502.033 48.197H525.558V24.798H502.033V48.197Z" fill="#AFD8DD"/>
<path d="M478.508 43.644H478.381C478.002 43.644 477.622 43.3911 477.369 43.0116L473.195 34.5374C472.942 33.905 473.195 33.1461 473.701 32.8932C474.334 32.6402 475.093 32.8932 475.346 33.3991L478.761 40.2291L489.891 27.9604C490.397 27.4545 491.156 27.4545 491.662 27.8339C492.168 28.3399 492.168 29.0988 491.788 29.6047L479.393 43.2646C479.267 43.5176 478.887 43.644 478.508 43.644Z" fill="#AFD8DD"/>
<path d="M119.049 412.714H94.2589C93.8794 412.714 93.6265 412.461 93.6265 412.082V387.292C93.6265 386.912 93.8794 386.659 94.2589 386.659H119.049C119.429 386.659 119.682 386.912 119.682 387.292V412.082C119.682 412.335 119.429 412.714 119.049 412.714ZM94.8913 411.449H118.417V387.924H94.8913V411.449Z" fill="#AFD8DD"/>
<path d="M151.428 412.714H126.638C126.258 412.714 126.005 412.461 126.005 412.082V387.292C126.005 386.912 126.258 386.659 126.638 386.659H151.428C151.807 386.659 152.06 386.912 152.06 387.292V412.082C152.06 412.335 151.807 412.714 151.428 412.714ZM127.27 411.449H150.796V387.924H127.27V411.449Z" fill="#AFD8DD"/>
<path d="M103.871 406.77H103.745C103.365 406.77 102.986 406.517 102.733 406.138L98.5592 397.663C98.3062 397.031 98.5592 396.272 99.0651 396.019C99.6975 395.766 100.456 396.019 100.709 396.525L104.124 403.355L115.255 391.086C115.761 390.58 116.519 390.58 117.025 390.96C117.531 391.339 117.531 392.225 117.152 392.731L104.757 406.391C104.504 406.644 104.124 406.77 103.871 406.77Z" fill="#AFD8DD"/>
<path d="M236.297 412.714H211.506C211.127 412.714 210.874 412.461 210.874 412.082V387.292C210.874 386.912 211.127 386.659 211.506 386.659H236.297C236.676 386.659 236.929 386.912 236.929 387.292V412.082C236.929 412.335 236.676 412.714 236.297 412.714ZM212.139 411.449H235.664V387.924H212.139V411.449Z" fill="#AFD8DD"/>
<path d="M268.676 412.714H244.012C243.632 412.714 243.379 412.461 243.379 412.082V387.292C243.379 386.912 243.632 386.659 244.012 386.659H268.802C269.181 386.659 269.434 386.912 269.434 387.292V412.082C269.308 412.335 269.055 412.714 268.676 412.714ZM244.644 411.449H268.043V387.924H244.518V411.449H244.644Z" fill="#AFD8DD"/>
<path d="M221.119 406.77H220.992C220.613 406.77 220.234 406.517 219.981 406.138L215.807 397.663C215.554 397.031 215.807 396.272 216.313 396.019C216.945 395.766 217.704 396.019 217.957 396.525L221.372 403.355L232.502 391.086C233.008 390.58 233.767 390.58 234.273 390.96C234.779 391.339 234.779 392.225 234.399 392.731L222.004 406.391C221.751 406.644 221.498 406.77 221.119 406.77Z" fill="#AFD8DD"/>
<g opacity="0.3">
<path opacity="0.3" d="M247.427 37.3196C238.32 37.3196 230.858 29.8572 230.858 20.7506C230.858 11.644 238.32 4.18164 247.427 4.18164C256.533 4.18164 263.996 11.644 263.996 20.7506C263.996 29.8572 256.533 37.3196 247.427 37.3196ZM247.427 5.57293C239.079 5.57293 232.123 12.4029 232.123 20.8771C232.123 29.3513 238.953 36.1813 247.427 36.1813C255.901 36.1813 262.731 29.3513 262.731 20.8771C262.731 12.4029 255.775 5.57293 247.427 5.57293Z" fill="#AFD8DD"/>
<path opacity="0.3" d="M251.854 27.2008C251.727 27.2008 251.474 27.0743 251.348 26.9478L246.921 21.2562C246.794 21.1297 246.794 21.0032 246.794 20.8767V11.7701C246.794 11.3907 247.047 11.1377 247.427 11.1377C247.806 11.1377 248.059 11.3907 248.059 11.7701V20.6238L252.36 26.1889C252.613 26.4419 252.486 26.8213 252.233 27.0743C252.107 27.2008 251.98 27.2008 251.854 27.2008Z" fill="#AFD8DD"/>
</g>
<g opacity="0.3">
<g opacity="0.3">
<path opacity="0.3" d="M543.898 325.57H541.495L541.115 322.914H538.206L537.827 325.57H535.677L538.08 310.771H541.495L543.898 325.57ZM538.586 320.89H540.862L539.724 313.428L538.586 320.89Z" fill="#AFD8DD"/>
</g>
<g opacity="0.3">
<path opacity="0.3" d="M577.036 314.186V314.692C577.036 316.21 576.53 317.222 575.518 317.728C576.783 318.234 577.289 319.372 577.289 320.89V322.155C577.289 324.431 576.024 325.696 573.748 325.696H570.08V310.771H573.621C576.024 310.771 577.036 311.91 577.036 314.186ZM572.483 312.795V316.716H573.368C574.253 316.716 574.759 316.337 574.759 315.198V314.313C574.759 313.301 574.38 312.795 573.621 312.795H572.483ZM572.483 318.866V323.42H573.874C574.633 323.42 575.139 323.04 575.139 321.902V320.637C575.139 319.246 574.633 318.866 573.621 318.866H572.483Z" fill="#AFD8DD"/>
</g>
<g opacity="0.3">
<path opacity="0.3" d="M610.554 320.004V322.028C610.554 324.431 609.415 325.696 607.139 325.696C604.862 325.696 603.724 324.304 603.724 322.028V314.312C603.724 311.909 604.862 310.645 607.139 310.645C609.415 310.645 610.554 312.036 610.554 314.312V315.704H608.403V314.06C608.403 313.048 607.898 312.542 607.139 312.542C606.38 312.542 605.874 312.921 605.874 314.06V322.028C605.874 323.04 606.38 323.419 607.139 323.419C607.898 323.419 608.403 323.04 608.403 322.028V319.878H610.554V320.004Z" fill="#AFD8DD"/>
</g>
<path opacity="0.3" d="M549.21 352.257H529.985V333.032H549.21V352.257ZM531.25 350.992H547.946V334.297H531.25V350.992Z" fill="#AFD8DD"/>
<path opacity="0.3" d="M582.727 352.257H563.502V333.032H582.727V352.257ZM564.641 350.992H581.336V334.297H564.641V350.992Z" fill="#AFD8DD"/>
<path opacity="0.3" d="M616.119 352.257H596.894V333.032H616.119V352.257ZM598.158 350.992H614.854V334.297H598.158V350.992Z" fill="#AFD8DD"/>
</g>
<path d="M121.958 541.472H83.8872V542.736H121.958V541.472Z" fill="#414648"/>
<path d="M618.901 541.472H134.353V542.736H618.901V541.472Z" fill="#414648"/>
<path d="M472.563 541.726L480.657 418.028L486.602 359.214L470.16 340.874L461.938 334.93C461.938 334.93 450.302 345.048 442.081 347.325C433.86 349.601 426.018 351.878 426.018 351.878C426.018 351.878 397.939 404.747 395.662 428.652C393.386 452.557 389.718 541.346 389.718 541.346L392.88 541.852H472.563V541.726Z" fill="white"/>
<path d="M473.195 542.358H392.88L389.085 541.852V541.219C389.085 540.334 392.88 452.177 395.03 428.399C397.307 404.62 425.132 351.878 425.385 351.372L425.512 351.119L425.765 350.992C425.891 350.992 433.733 348.716 441.828 346.439C449.796 344.289 461.306 334.297 461.432 334.17L461.812 333.791L470.539 340.115L487.235 358.708L481.163 417.774L473.195 542.358ZM390.35 540.714L392.88 541.093H471.93L480.025 418.027L485.97 359.467L469.78 341.38L461.938 335.688C459.788 337.459 449.796 345.807 442.207 347.83C434.871 349.854 427.789 351.878 426.397 352.257C424.374 356.178 398.445 405.759 396.295 428.525C394.145 451.292 390.603 532.998 390.35 540.714Z" fill="#414648"/>
<path d="M433.607 440.288C432.848 439.908 432.089 438.264 434.745 431.561L435.883 432.066C433.48 438.138 434.239 439.276 434.239 439.276C434.239 439.276 434.239 439.276 434.113 439.149L433.607 440.288Z" fill="#414648"/>
<path d="M430.698 350.36C430.698 350.36 432.974 366.17 432.974 380.462C432.974 380.462 441.449 377.047 448.152 365.284C454.856 353.522 457.765 345.427 457.765 345.427L430.698 350.36Z" fill="#414648"/>
<path d="M472.563 541.725L479.899 430.548C472.689 434.216 458.523 440.287 442.84 440.54C424.121 440.793 400.848 426.248 400.848 426.248L395.662 428.272C395.662 428.398 395.662 428.398 395.662 428.525C393.386 452.556 389.718 541.219 389.718 541.219L392.88 541.725H472.563Z" fill="white"/>
<path d="M473.195 542.357H392.88L389.085 541.852V541.219C389.085 540.334 392.88 452.177 395.03 428.398V427.892L395.409 427.639L400.975 425.489L401.228 425.616C401.481 425.742 423.994 439.782 442.207 439.782C442.46 439.782 442.587 439.782 442.84 439.782C458.397 439.529 472.563 433.458 479.519 429.916L480.531 429.41L473.195 542.357ZM390.35 540.713L392.88 541.093H471.93L479.14 431.56C471.677 435.228 457.891 440.92 442.84 441.173C442.587 441.173 442.46 441.173 442.207 441.173C424.753 441.173 403.378 428.651 400.722 427.007L396.168 428.778C394.145 451.671 390.603 532.998 390.35 540.713Z" fill="#414648"/>
<path d="M460.421 479.496C460.421 508.081 461.433 535.654 461.686 541.725H516.958C517.717 532.745 522.523 477.22 524.926 457.236C527.582 435.481 545.037 403.102 545.037 391.466C545.037 379.956 548.578 381.727 532.641 373.253C516.705 364.778 481.417 346.565 476.484 344.415C471.551 342.138 466.239 336.826 466.239 336.826C466.239 336.826 468.01 347.956 467.63 378.185C467.124 408.414 460.421 447.117 460.421 479.496Z" fill="#3BB3BD"/>
<path d="M517.464 542.357H461.053V541.725C460.8 536.413 459.789 508.334 459.789 479.496C459.789 462.295 461.686 443.323 463.457 424.983C465.101 408.288 466.619 392.477 466.872 378.312C467.251 348.589 465.607 337.205 465.607 337.079L465.354 335.182L466.745 336.573C466.745 336.573 472.057 341.885 476.737 344.035C481.67 346.312 516.958 364.525 532.894 372.873C545.796 379.703 546.301 379.956 545.922 386.533C545.796 387.924 545.669 389.568 545.669 391.592C545.669 397.157 541.875 407.023 537.448 418.533C532.515 431.307 526.95 445.852 525.559 457.362C523.029 477.599 518.096 535.274 517.59 541.725L517.464 542.357ZM462.192 541.092H516.199C516.958 532.365 521.638 477.093 524.167 457.236C525.559 445.599 531.25 431.054 536.183 418.153C540.61 406.77 544.404 396.904 544.404 391.592C544.404 389.442 544.531 387.798 544.657 386.406C545.037 380.588 545.037 380.588 532.389 373.885C516.452 365.537 481.164 347.197 476.231 345.047C472.69 343.403 469.022 340.367 467.124 338.597C467.63 342.771 468.642 354.913 468.263 378.185C468.01 392.477 466.492 408.288 464.848 424.983C463.077 443.323 461.18 462.295 461.18 479.37C461.053 507.448 461.939 534.515 462.192 541.092Z" fill="#414648"/>
<path d="M466.239 336.953C466.239 336.953 468.009 348.083 467.63 378.312C467.504 385.901 466.998 394.122 466.365 402.597C467.883 400.446 472.816 393.869 473.954 393.49C475.345 392.984 482.428 399.688 488.12 400.573C493.938 401.458 496.088 401.458 489.891 394.755C483.693 388.051 481.037 368.573 478.76 353.902C478.128 349.854 477.369 346.819 476.737 344.668C476.737 344.668 476.61 344.668 476.61 344.542C471.551 342.265 466.239 336.953 466.239 336.953Z" fill="#414648"/>
<path d="M462.824 494.927V494.042L463.203 482.785H464.468L464.089 493.283C465.353 493.156 468.768 492.777 476.863 492.271C487.993 491.638 507.471 483.417 510.633 482.026L509.369 471.781C508.104 472.413 505.701 473.552 502.792 474.817L502.286 473.678C506.333 471.781 509.495 470.263 509.622 470.263L510.381 469.884L512.151 482.785L511.772 483.038C510.886 483.417 489.385 492.777 477.116 493.536C465.353 494.295 463.836 494.674 463.709 494.674L462.824 494.927Z" fill="#414648"/>
<path d="M491.788 479.37L491.408 478.231C493.432 477.599 495.962 476.587 498.871 475.322L499.376 476.461C496.341 477.725 493.811 478.737 491.788 479.37Z" fill="#414648"/>
<path d="M468.009 482.279V481.014C468.136 481.014 479.519 480.761 487.234 479.243L487.487 480.508C479.646 482.026 468.136 482.279 468.009 482.279Z" fill="#414648"/>
<path d="M512.049 482.393L510.789 482.498L511.534 491.448L512.794 491.343L512.049 482.393Z" fill="#414648"/>
<path d="M341.908 541.725H404.01C404.137 536.919 405.908 474.944 407.172 443.323C408.437 410.438 430.698 360.605 430.698 360.605C430.698 360.605 433.733 353.522 430.571 350.36C427.409 347.198 419.821 348.463 414.129 352.89C408.437 357.316 355.948 380.083 352.786 383.245C349.624 386.407 350.256 397.158 348.991 409.806C347.726 422.454 326.857 509.726 326.857 509.726C326.857 509.726 321.166 510.991 319.268 512.255C317.371 513.52 317.371 517.315 317.371 517.315C317.371 517.315 319.901 517.947 327.49 521.741C334.572 525.283 341.023 539.449 341.908 541.725Z" fill="#3BB3BD"/>
<path d="M404.642 542.357H341.529L341.402 541.978C340.643 540.333 334.193 525.788 327.236 522.373C319.9 518.705 317.244 517.946 317.244 517.946L316.738 517.82V517.314C316.738 517.187 316.738 513.14 318.888 511.749C320.533 510.61 324.96 509.472 326.351 509.219C327.869 502.895 347.22 421.821 348.358 409.805C348.738 406.011 348.991 402.469 349.117 399.181C349.623 391.086 349.876 385.268 352.279 382.865C353.797 381.347 364.422 376.288 381.623 368.32C395.915 361.616 410.84 354.66 413.623 352.509C419.694 347.83 427.535 346.691 430.95 349.98C434.365 353.395 431.456 360.604 431.33 360.857C431.077 361.363 409.069 411.07 407.804 443.449C406.666 472.034 405.148 525.662 404.642 541.345V542.357ZM342.414 541.092H403.504C404.01 525.156 405.528 471.907 406.666 443.323C407.931 410.691 430.065 360.857 430.318 360.351C430.318 360.351 433.101 353.648 430.318 350.865C427.409 347.956 420.2 349.221 414.761 353.395C411.852 355.672 396.927 362.628 382.508 369.331C368.975 375.655 354.935 382.232 353.544 383.624C351.521 385.647 351.141 391.592 350.762 399.181C350.635 402.343 350.382 406.011 350.003 409.805C348.738 422.327 328.754 506.184 327.869 509.852L327.742 510.231L327.363 510.357C327.363 510.357 321.798 511.622 320.027 512.761C318.888 513.52 318.509 515.67 318.383 516.808C319.394 517.187 322.303 518.199 328.122 521.108C334.699 524.65 340.77 537.551 342.414 541.092Z" fill="#414648"/>
<path d="M317.498 517.314C317.498 517.314 320.027 517.947 327.616 521.741C335.205 525.536 342.161 541.978 342.161 541.978H354.43C355.189 539.701 357.086 531.354 348.485 521.109C338.367 509.093 326.984 509.725 326.984 509.725C326.984 509.725 321.292 510.99 319.395 512.255C317.498 513.52 317.498 517.314 317.498 517.314Z" fill="#414648"/>
<path d="M422.982 348.842C420.2 356.051 413.876 372.367 408.437 380.082C401.481 390.201 388.833 398.422 393.26 402.216C397.686 406.011 410.334 393.995 410.334 393.995C410.334 393.995 413.496 402.849 414.129 405.378C414.129 405.505 414.255 405.631 414.255 405.758C421.212 381.853 430.698 360.604 430.698 360.604C430.698 360.604 433.733 353.521 430.571 350.359C429.054 348.715 426.145 348.336 422.982 348.842Z" fill="#414648"/>
<path d="M377.449 410.059L376.185 409.932C376.69 406.391 376.943 404.114 376.943 402.976H378.208C378.208 404.114 377.955 406.391 377.449 410.059Z" fill="#414648"/>
<path d="M367.457 543.369H366.192C366.192 542.99 368.09 502.642 368.09 479.496C368.09 464.571 371.631 440.667 374.287 423.212C374.667 420.936 374.92 418.785 375.299 416.762L376.564 416.888C376.311 418.912 375.931 421.062 375.552 423.339C372.896 440.667 369.354 464.571 369.354 479.37C369.354 502.516 367.457 542.863 367.457 543.369Z" fill="#414648"/>
<path d="M399.71 491.639L398.825 491.133C398.825 491.133 397.686 490.627 386.809 486.959C375.552 483.165 368.469 480.003 368.469 480.003L368.975 478.864C369.102 478.864 376.058 482.026 387.315 485.821C394.398 488.224 397.433 489.236 398.698 489.742L399.71 476.841L385.165 475.07C380.105 474.438 370.24 471.402 369.861 471.276L370.24 470.011C370.366 470.011 380.358 473.173 385.291 473.805L401.101 475.829L399.71 491.639Z" fill="#414648"/>
<path d="M393.892 525.156C390.856 525.156 387.441 524.397 386.936 524.27L387.189 523.006C389.465 523.511 395.663 524.523 397.433 523.132C397.686 522.879 397.813 522.753 397.813 522.373C397.813 518.579 398.572 490.753 398.572 490.5H399.837C399.837 490.753 399.078 518.579 399.078 522.373C399.078 523.006 398.825 523.638 398.192 524.144C397.307 524.903 395.536 525.156 393.892 525.156Z" fill="#414648"/>
<path d="M408.184 335.562C408.184 335.562 420.073 352.763 430.824 360.605C441.449 368.573 450.555 357.443 457.765 345.554C464.848 333.664 469.654 324.937 473.195 314.692C476.737 304.447 473.195 287.373 458.903 273.966C444.611 260.559 411.473 240.701 403.125 251.073C394.777 261.317 386.935 283.958 392.501 303.309C397.939 322.661 408.184 335.562 408.184 335.562Z" fill="white"/>
<path d="M438.034 363.893C435.504 363.893 432.848 363.008 430.445 361.111C419.947 353.269 408.184 336.574 407.678 335.941C407.299 335.435 397.18 322.408 391.868 303.436C386.176 283.325 394.777 260.432 402.619 250.693C404.137 248.922 406.287 247.784 409.322 247.658C422.35 246.772 447.267 262.203 459.282 273.586C474.207 287.625 477.116 304.953 473.701 314.945C470.16 325.19 465.48 333.791 458.27 345.933C454.097 352.89 447.773 362.249 440.184 363.767C439.551 363.767 438.792 363.893 438.034 363.893ZM410.461 248.796C410.081 248.796 409.702 248.796 409.449 248.796C406.793 248.922 404.896 249.808 403.631 251.325C395.915 260.938 387.441 283.325 393.006 302.93C398.445 322.028 408.564 334.929 408.69 335.056C408.817 335.182 420.706 352.257 431.204 359.972C434.113 362.123 437.022 362.882 439.931 362.376C446.887 360.984 453.085 351.878 457.132 345.174C464.342 333.032 469.021 324.558 472.563 314.439C475.978 304.7 472.942 288.005 458.523 274.345C446.887 263.468 423.488 248.796 410.461 248.796Z" fill="#414648"/>
<path d="M417.038 299.893C416.911 299.893 416.785 299.893 416.658 299.893C410.081 297.743 403.757 299.893 403.631 299.893C402.998 300.146 402.239 299.767 401.986 299.135C401.733 298.502 402.113 297.743 402.745 297.49C402.998 297.364 409.828 295.087 417.291 297.49C417.923 297.743 418.302 298.376 418.05 299.135C418.05 299.514 417.544 299.893 417.038 299.893Z" fill="#414648"/>
<path d="M413.37 309.253C413.749 311.277 413.243 313.174 412.358 313.301C411.346 313.427 410.334 311.909 409.955 309.886C409.575 307.862 410.081 305.965 410.966 305.838C411.978 305.585 412.99 307.23 413.37 309.253Z" fill="#414648"/>
<path d="M448.532 309.759C448.911 311.783 448.405 313.68 447.52 313.807C446.508 313.933 445.496 312.415 445.117 310.392C444.737 308.368 445.243 306.471 446.129 306.344C447.14 306.218 448.152 307.736 448.532 309.759Z" fill="#414648"/>
<path d="M434.872 340.368C427.536 340.368 422.477 338.344 422.35 338.344L422.856 337.206C422.856 337.206 428.801 339.482 436.769 339.103C444.737 338.723 451.694 333.032 451.82 332.905L452.579 333.917C452.326 334.17 445.243 339.988 436.769 340.368C436.136 340.241 435.504 340.368 434.872 340.368Z" fill="#414648"/>
<path d="M404.39 259.799C404.39 259.799 421.971 299.893 424.121 301.032C426.271 302.17 430.698 289.016 430.698 289.016C430.698 289.016 436.769 300.02 443.852 303.308C450.935 306.597 453.211 301.158 453.211 301.158C453.211 301.158 460.927 305.585 463.583 307.735C466.365 309.885 466.365 309.885 466.365 309.885L469.148 319.751C469.148 319.751 460.927 346.691 463.709 349.98C466.492 353.268 481.796 348.841 481.796 348.841C481.796 348.841 478.002 354.28 482.934 354.28C487.867 354.28 496.721 355.418 509.242 338.344C521.89 321.269 523.029 293.822 523.029 293.822C523.029 293.822 529.1 300.399 529.606 292.178C530.112 283.957 522.523 270.17 522.523 270.17C522.523 270.17 534.538 282.186 533.527 269.664C532.515 257.143 525.305 242.724 522.523 239.436C519.74 236.147 503.298 226.788 503.298 226.788C503.298 226.788 509.875 225.649 504.942 218.06C500.009 210.345 481.922 208.195 475.345 208.195C468.768 208.195 454.982 210.345 454.982 210.345C454.982 210.345 463.709 193.27 454.476 192.258C445.117 191.12 428.674 209.333 428.674 209.333C428.674 209.333 412.232 196.179 407.299 198.962C402.366 201.744 405.655 205.539 405.655 205.539C405.655 205.539 384.279 207.183 378.208 216.543C372.137 225.902 379.347 231.341 379.347 231.341C379.347 231.341 340.896 257.649 346.967 267.514C353.039 277.38 364.042 268.02 364.042 268.02C364.042 268.02 348.612 307.482 350.888 310.265C353.039 313.047 363.536 309.126 363.536 309.126C363.536 309.126 363.031 341 371.252 344.288C379.473 347.577 381.117 341.506 381.117 341.506C381.117 341.506 385.544 345.932 395.41 346.438C405.275 346.944 408.564 335.434 408.564 335.434C408.564 335.434 397.56 309.632 398.192 288.257C398.319 266.882 404.39 259.799 404.39 259.799Z" fill="#414648"/>
<path d="M426.523 305.966C426.523 305.966 422.603 326.582 425.765 330.883C428.927 335.183 440.057 330.883 440.816 328.479" fill="white"/>
<path d="M430.318 333.412C427.915 333.412 426.144 332.653 425.132 331.262C421.844 326.708 425.638 306.724 425.765 305.839L427.03 306.092C425.891 311.783 423.615 327.088 426.144 330.503C427.536 332.4 430.571 332.147 432.215 331.894C436.01 331.262 439.678 329.238 440.057 328.226L441.195 328.605C440.563 330.503 436.01 332.526 432.342 333.032C431.709 333.412 431.077 333.412 430.318 333.412Z" fill="#414648"/>
<path d="M410.081 319.245C401.101 319.245 393.765 313.807 393.765 307.103C393.765 300.4 401.101 294.961 410.081 294.961C419.061 294.961 426.397 300.4 426.397 307.103C426.271 313.933 419.061 319.245 410.081 319.245ZM410.081 296.352C401.86 296.352 395.03 301.158 395.03 307.23C395.03 313.174 401.733 318.107 410.081 318.107C418.302 318.107 425.132 313.301 425.132 307.23C425.006 301.285 418.302 296.352 410.081 296.352Z" fill="#414648"/>
<path d="M447.646 318.486C438.666 318.486 431.33 313.048 431.33 306.344C431.33 299.641 438.666 294.202 447.646 294.202C456.626 294.202 463.962 299.641 463.962 306.344C463.836 313.048 456.626 318.486 447.646 318.486ZM447.646 295.593C439.425 295.593 432.595 300.4 432.595 306.471C432.595 312.415 439.298 317.348 447.646 317.348C455.867 317.348 462.697 312.542 462.697 306.471C462.571 300.4 455.867 295.593 447.646 295.593Z" fill="#414648"/>
<path d="M431.583 306.85C429.559 304.573 427.03 306.471 426.903 306.597L426.145 305.585C427.409 304.7 430.318 303.561 432.595 306.091L431.583 306.85Z" fill="#414648"/>
<path d="M296.375 524.904C296.375 524.904 316.232 519.338 322.304 518.327C328.375 517.315 340.643 528.571 342.667 534.643C344.691 540.714 342.161 542.105 342.161 542.105L301.434 540.714L296.375 524.904Z" fill="#AFD8DD"/>
<path d="M342.288 542.61H342.161L301.055 541.219L295.616 524.397L296.249 524.271C297.007 524.018 316.233 518.706 322.304 517.694C328.881 516.555 341.276 528.065 343.426 534.389C345.576 540.966 342.667 542.61 342.541 542.61H342.288ZM301.94 540.081L341.908 541.472C342.288 541.093 343.679 539.575 342.035 534.895C340.137 529.204 328.248 518.073 322.43 518.959C316.991 519.844 300.549 524.397 297.134 525.409L301.94 540.081Z" fill="#414648"/>
<path d="M303.458 522.879C303.458 522.879 318.383 528.445 322.177 530.721C325.972 532.998 324.833 537.425 322.557 539.701C320.28 541.978 314.715 544.255 313.197 544.255C311.679 544.255 307.252 544.634 302.699 544.255C298.146 543.875 294.098 544.634 290.304 544.634C286.51 544.634 275.379 543.496 275.379 543.496L271.964 541.219C271.964 541.219 265.64 543.116 260.707 545.014C255.775 546.911 257.292 542.737 261.087 539.828C264.881 536.792 274.241 529.33 275.759 528.571C277.276 527.812 296.375 522.247 296.375 522.247L303.458 522.879Z" fill="#AFD8DD"/>
<path d="M258.81 546.152C258.051 546.152 257.546 545.899 257.293 545.393C256.407 543.875 258.431 541.092 260.834 539.322C267.411 534.136 274.241 528.697 275.506 528.065C277.024 527.306 294.225 522.247 296.249 521.614H296.375L303.711 522.373C304.343 522.626 318.762 528.065 322.557 530.341C324.074 531.227 325.086 532.618 325.213 534.389C325.466 536.412 324.58 538.816 323.063 540.333C320.786 542.61 315.094 545.013 313.197 545.013C312.818 545.013 312.312 545.013 311.553 545.013C309.529 545.14 305.988 545.266 302.573 545.013C299.917 544.76 297.261 545.013 294.857 545.14C293.213 545.266 291.822 545.393 290.304 545.393C286.51 545.393 275.759 544.254 275.253 544.254H275.126L271.838 542.104C270.573 542.484 265.134 544.128 260.961 545.772C260.202 545.899 259.443 546.152 258.81 546.152ZM296.502 522.753C291.063 524.397 277.277 528.444 276.138 529.077C274.747 529.836 265.261 537.298 261.719 540.207C259.19 542.231 258.178 544.254 258.431 544.76C258.431 544.887 259.063 545.013 260.581 544.381C265.387 542.484 271.838 540.586 271.838 540.586L272.091 540.46L275.632 542.737C277.024 542.863 287.016 543.875 290.431 543.875C291.822 543.875 293.34 543.748 294.857 543.622C297.387 543.495 300.043 543.242 302.826 543.495C306.114 543.748 309.529 543.622 311.553 543.495C312.312 543.495 312.818 543.495 313.197 543.495C314.462 543.495 319.901 541.345 322.177 539.195C323.442 537.93 324.201 535.907 324.074 534.262C323.948 532.998 323.189 531.859 321.924 531.227C318.383 529.077 304.47 523.891 303.332 523.385L296.502 522.753Z" fill="#414648"/>
<path d="M309.149 524.397C309.149 524.397 299.41 519.844 296.754 519.844C294.098 519.844 275.379 526.168 272.723 528.065C270.067 529.962 267.537 547.922 269.308 549.061C271.205 550.199 272.723 546.784 273.102 544.508C273.482 542.231 278.668 530.215 278.668 530.215L274.873 549.314C274.873 549.314 276.391 552.349 277.909 549.693C279.426 547.037 288.786 529.077 289.545 527.939C290.304 526.8 292.96 525.282 292.96 525.282C292.96 525.282 291.063 533.504 289.545 541.345C288.027 549.187 289.165 551.464 291.442 551.843C293.719 552.223 294.857 546.911 295.995 544.381C297.134 541.725 301.94 526.8 301.94 526.8" fill="#AFD8DD"/>
<path d="M291.822 552.729C291.695 552.729 291.569 552.729 291.442 552.729C290.557 552.602 289.798 552.096 289.292 551.464C288.154 549.82 288.154 546.658 289.039 541.599C290.177 535.78 291.442 529.709 292.075 526.927C291.316 527.433 290.557 528.065 290.177 528.571C289.798 529.203 286.762 534.895 284.106 539.954C281.703 544.634 279.3 549.061 278.668 550.199C278.162 551.085 277.529 551.59 276.77 551.59C275.506 551.59 274.62 549.946 274.62 549.82L274.494 549.567L277.15 536.16C275.632 539.701 274.114 543.622 273.988 544.761C273.735 546.152 272.85 549.061 271.205 549.82C270.573 550.073 269.941 550.073 269.308 549.693C268.676 549.314 268.423 548.428 268.423 546.784C268.17 541.851 270.193 529.456 272.723 527.686C275.379 525.788 294.225 519.338 297.007 519.338C299.664 519.338 308.644 523.385 309.655 523.891L309.15 525.03C306.493 523.765 299.031 520.603 297.007 520.603C295.363 520.603 287.015 523.259 280.565 525.662L275.885 549.44C276.138 549.82 276.518 550.326 276.897 550.326C277.15 550.326 277.403 550.073 277.656 549.567C278.288 548.428 280.691 544.002 283.095 539.322C286.51 532.745 288.913 528.445 289.292 527.812C290.051 526.547 292.581 525.156 292.834 525.03L294.098 524.271L293.719 525.662C293.719 525.788 291.822 534.01 290.304 541.725C289.419 546.405 289.419 549.314 290.304 550.705C290.557 551.211 291.063 551.464 291.695 551.464C292.96 551.717 293.972 548.555 294.731 546.531C294.984 545.772 295.237 545.014 295.49 544.381C296.628 541.851 301.434 526.927 301.434 526.8L302.699 527.18C302.446 527.812 297.766 542.231 296.628 544.887C296.375 545.519 296.122 546.152 295.869 546.911C294.857 549.693 293.845 552.729 291.822 552.729ZM280.185 525.662C276.77 526.927 273.988 528.065 273.103 528.697C271.838 529.583 270.193 536.16 269.561 542.61C269.182 547.037 269.561 548.428 269.688 548.681C269.941 548.808 270.193 548.808 270.32 548.681C271.205 548.302 272.091 546.152 272.344 544.508C272.723 542.231 277.782 530.595 278.035 530.089L280.185 525.662Z" fill="#414648"/>
<path d="M320.027 531.86C320.027 531.86 308.771 543.496 307.253 546.153C305.735 548.809 305.735 549.188 309.909 549.188C314.083 549.188 326.731 540.967 327.869 539.829C329.008 538.69 328.628 535.275 325.972 533.125C323.316 530.722 320.027 531.86 320.027 531.86Z" fill="#AFD8DD"/>
<path d="M309.909 549.694C307.506 549.694 306.367 549.567 305.861 548.808C305.482 548.049 305.861 547.164 306.747 545.773C308.265 543.117 319.142 531.86 319.521 531.354L319.648 531.227H319.774C319.901 531.227 323.569 529.963 326.351 532.492C327.996 533.883 329.007 535.781 329.007 537.678C329.007 538.69 328.754 539.575 328.248 540.207C326.984 541.472 314.209 549.694 309.909 549.694ZM320.28 532.492C319.142 533.757 309.15 544.128 307.759 546.532C307.506 547.037 306.873 548.049 306.873 548.302C307.126 548.555 309.15 548.555 309.782 548.555C313.577 548.555 326.351 540.334 327.363 539.322C327.616 539.069 327.743 538.437 327.743 537.804C327.743 536.666 327.11 534.895 325.466 533.504C323.569 531.733 320.913 532.239 320.28 532.492Z" fill="#414648"/>
<path d="M390.097 530.595C390.097 530.595 375.172 535.401 371.378 538.184C367.71 540.966 362.398 544.002 363.536 544.887C364.674 545.773 368.342 544.887 369.481 544.002C370.619 543.116 375.931 542.105 375.931 542.105C375.931 542.105 382.129 538.437 386.935 535.401C391.994 532.492 395.662 529.204 390.097 530.595Z" fill="#AFD8DD"/>
<path d="M365.18 545.899C364.422 545.899 363.663 545.773 363.283 545.393C363.03 545.14 362.904 544.887 362.904 544.508C362.904 543.37 364.675 542.231 367.963 539.955C368.975 539.196 370.113 538.437 371.125 537.678C374.793 534.895 389.338 530.216 389.971 529.963C391.741 529.457 393.133 529.33 393.512 530.216C393.639 530.595 394.145 531.733 387.568 535.907C382.761 538.816 376.564 542.611 376.437 542.611L376.184 542.737C374.161 543.117 370.746 543.876 369.987 544.508C369.101 545.14 366.951 545.899 365.18 545.899ZM364.169 544.508C365.18 545.014 368.216 544.382 369.228 543.496C370.366 542.611 374.667 541.725 375.805 541.599C376.564 541.093 382.255 537.678 386.809 535.022C389.971 532.998 391.615 531.607 392.121 530.975C391.868 530.975 391.236 531.101 390.35 531.228C389.718 531.481 375.425 536.16 371.884 538.69C370.872 539.449 369.734 540.208 368.722 540.967C366.825 542.231 364.548 543.749 364.169 544.508Z" fill="#414648"/>
<path d="M472.816 505.173C472.816 505.173 431.077 512.762 416.026 518.074C400.975 523.386 394.903 527.054 387.315 532.366C379.726 537.678 364.422 547.797 366.698 549.568C368.975 551.338 376.943 545.141 378.208 543.749C379.599 542.358 389.338 538.437 389.338 538.437L395.915 535.149C395.915 535.149 386.05 547.291 382.508 550.326C378.967 553.488 381.37 555.259 384.026 554.374C386.682 553.489 391.741 548.176 391.741 548.176L408.057 537.425C408.057 537.425 401.354 546.785 398.318 549.441C395.156 552.097 401.86 554.374 403.251 552.097C404.642 549.821 411.219 544.129 411.219 544.129C411.219 544.129 422.35 538.311 425.006 536.161C427.662 533.884 434.365 527.686 434.365 527.686L484.072 531.734C484.072 531.734 487.234 529.963 485.464 519.718C483.44 509.726 472.816 505.173 472.816 505.173Z" fill="white"/>
<path d="M382.761 555.385C381.75 555.385 380.864 555.006 380.358 554.247C380.105 553.741 379.599 552.223 382.129 549.947C384.659 547.796 390.477 540.84 393.512 537.172L389.718 539.069C385.923 540.587 379.726 543.37 378.714 544.255C378.588 544.381 369.354 552.476 366.319 550.073C366.066 549.82 365.813 549.441 365.813 549.061C365.939 546.658 373.528 541.219 383.394 534.263C384.659 533.378 385.923 532.492 386.935 531.86C394.145 526.674 400.089 523.006 415.773 517.441C430.698 512.129 472.31 504.667 472.689 504.54H472.816L472.942 504.666C473.448 504.793 483.946 509.346 485.717 519.844C487.488 530.216 484.452 532.239 484.073 532.492L483.946 532.619H483.693L434.239 528.698C433.101 529.71 427.536 535.022 425.132 536.919C422.476 539.069 412.358 544.381 411.346 545.014C410.714 545.52 404.769 550.832 403.504 552.856C402.998 553.741 401.734 554.247 400.216 553.994C398.824 553.868 397.18 553.109 396.801 551.717C396.674 551.085 396.674 550.2 397.813 549.314C399.71 547.67 403.251 543.243 405.401 540.208L392.121 548.935C391.489 549.567 386.935 554.373 384.153 555.259C383.773 555.259 383.267 555.385 382.761 555.385ZM398.192 533.251L396.295 535.528C395.915 536.034 386.429 547.67 382.888 550.832C381.37 552.097 381.117 553.109 381.37 553.488C381.623 553.994 382.635 554.247 383.773 553.868C385.797 553.235 389.844 549.314 391.236 547.796L391.362 547.67L410.461 535.148L408.437 537.931C408.184 538.31 401.734 547.291 398.572 550.073C398.066 550.453 397.939 550.832 397.939 551.211C398.066 551.844 399.204 552.35 400.342 552.476C401.354 552.603 402.113 552.35 402.492 551.97C403.884 549.694 410.334 544.002 410.587 543.876L410.714 543.749C410.84 543.749 421.844 537.931 424.374 535.781C427.03 533.631 433.607 527.433 433.733 527.307L433.986 527.054L483.693 531.101C484.199 530.595 486.096 528.192 484.578 519.844C483.061 510.738 474.081 506.311 472.689 505.678C469.654 506.184 430.445 513.394 416.152 518.453C400.722 523.892 394.777 527.686 387.694 532.745C386.682 533.504 385.417 534.263 384.153 535.148C378.588 539.069 366.825 547.164 367.078 548.935C368.596 550.2 375.931 545.014 377.702 543.117C379.093 541.725 387.947 538.057 388.959 537.678L398.192 533.251Z" fill="#414648"/>
<path d="M506.586 426.628L530.997 486.959L491.535 500.745L502.665 533.125C502.665 533.125 530.997 533.251 553.258 531.86C575.518 530.468 591.076 517.188 587.534 501.125C583.993 485.188 570.712 462.042 559.961 434.47C549.21 406.897 552.625 390.454 547.693 382.106C542.76 373.632 529.1 371.482 529.1 371.482L521.511 370.091" fill="#3BB3BD"/>
<path d="M503.298 533.884C502.792 533.884 502.665 533.884 502.539 533.884H502.033L490.523 500.493L529.985 486.706L505.827 426.881L506.965 426.375L531.629 487.339L492.041 501.125L502.792 532.492C506.46 532.492 532.515 532.492 552.878 531.227C565.779 530.469 577.036 525.409 582.854 517.694C586.522 512.761 587.787 507.07 586.522 501.252C584.498 492.018 579.06 480.382 572.862 466.849C568.435 457.236 563.376 446.232 558.949 434.723C552.752 418.66 551.234 406.391 550.095 397.284C549.337 390.581 548.704 385.775 546.68 382.36C542.001 374.265 528.594 371.988 528.467 371.988L520.878 370.597L521.131 369.332L528.72 370.723C529.226 370.85 542.886 373.126 547.819 381.727C549.969 385.395 550.601 390.328 551.36 397.158C552.499 406.138 553.89 418.407 560.087 434.217C564.514 445.726 569.573 456.604 574 466.216C580.198 479.75 585.637 491.512 587.66 500.872C589.051 507.07 587.66 513.141 583.739 518.326C577.668 526.295 566.158 531.607 552.878 532.366C533.147 533.757 507.851 533.884 503.298 533.884Z" fill="#414648"/>
<path d="M526.57 489.236L530.744 486.58C531.377 486.074 547.819 475.323 557.179 474.438L557.305 475.702C551.108 476.335 541.242 481.647 535.677 484.935C540.483 483.544 547.946 481.394 554.649 480.256L554.902 481.52C544.025 483.291 531.377 487.591 531.25 487.591L526.57 489.236Z" fill="#414648"/>
<path d="M566.032 481.014C564.641 480.761 562.996 480.761 560.846 480.888L560.72 479.623C562.87 479.496 564.641 479.623 566.158 479.876L566.032 481.014Z" fill="#414648"/>
<path d="M503.045 495.939C503.045 495.939 512.025 504.54 514.681 511.117C517.337 517.82 516.325 535.781 514.554 537.678C512.784 539.448 479.772 539.195 474.334 532.492C472.942 530.721 482.681 526.674 477.748 516.808C472.816 507.069 470.666 506.184 470.666 506.184C470.666 506.184 466.618 503.907 474.207 499.101C481.669 494.168 498.997 490.627 503.045 495.939Z" fill="#414648"/>
<path d="M581.716 564.366H548.958L544.91 499.607H585.89L581.716 564.366Z" fill="#414648"/>
<path d="M587.787 499.607H543.139V509.093H587.787V499.607Z" fill="white"/>
<path d="M587.661 509.725H543.013C542.633 509.725 542.38 509.473 542.38 509.093V499.607C542.38 499.228 542.633 498.975 543.013 498.975H587.661C588.04 498.975 588.293 499.228 588.293 499.607V509.093C588.293 509.473 588.04 509.725 587.661 509.725ZM543.772 508.461H587.155V500.239H543.772V508.461Z" fill="#414648"/>
<path d="M587.66 499.987H543.139L547.566 494.422H583.234L587.66 499.987Z" fill="white"/>
<path d="M587.661 500.619H543.013C542.76 500.619 542.507 500.493 542.38 500.24C542.254 499.987 542.254 499.734 542.507 499.607L546.934 494.042C547.06 493.916 547.187 493.789 547.44 493.789H583.107C583.36 493.789 583.487 493.916 583.613 494.042L588.04 499.607C588.166 499.86 588.166 500.113 588.166 500.24C588.166 500.493 587.914 500.619 587.661 500.619ZM544.404 499.354H586.396L582.981 495.054H547.946L544.404 499.354Z" fill="#414648"/>
<path d="M582.981 545.393L584.625 519.591H546.175L547.819 545.393H582.981Z" fill="white"/>
<path d="M582.981 546.025H547.819C547.44 546.025 547.187 545.772 547.187 545.393L545.542 519.591C545.542 519.464 545.542 519.211 545.669 519.085C545.795 518.959 545.922 518.832 546.175 518.832H584.625C584.752 518.832 585.005 518.959 585.131 519.085C585.257 519.211 585.257 519.338 585.257 519.591L583.613 545.393C583.613 545.772 583.36 546.025 582.981 546.025ZM548.325 544.761H582.348L583.866 520.223H546.807L548.325 544.761Z" fill="#414648"/>
<path d="M392.88 568.665L433.227 558.041V563.48L392.88 574.736V568.665Z" fill="#414648"/>
<path d="M433.227 558.041H222.004L181.151 568.665H392.88L433.227 558.041Z" fill="white"/>
<path d="M392.88 569.298H181.151C180.772 569.298 180.519 569.045 180.519 568.792C180.519 568.539 180.645 568.16 181.024 568.16L221.878 557.535H222.004H433.227C433.607 557.535 433.86 557.788 433.86 558.041C433.86 558.294 433.733 558.673 433.354 558.673L393.006 569.298H392.88ZM186.084 568.033H392.753L428.421 558.673H222.131L186.084 568.033Z" fill="#414648"/>
<path d="M392.753 446.612H181.151V574.737H392.753V446.612Z" fill="white"/>
<path d="M392.88 575.369H181.151C180.772 575.369 180.519 575.116 180.519 574.737V446.612C180.519 446.232 180.772 445.979 181.151 445.979H392.753C393.133 445.979 393.386 446.232 393.386 446.612V574.737C393.512 575.116 393.259 575.369 392.88 575.369ZM181.783 574.105H392.121V447.244H181.783V574.105Z" fill="#414648"/>
<path d="M392.88 465.204C346.841 467.354 319.394 509.852 278.668 538.31C241.482 564.239 195.696 568.665 181.277 569.298V574.863H392.88V465.204Z" fill="#414648"/>
<path d="M392.753 568.666H181.151V574.737H392.753V568.666Z" fill="white"/>
<path d="M393.512 575.369H180.519V568.033H393.386V575.369H393.512ZM181.783 574.104H392.121V569.298H181.783V574.104Z" fill="#414648"/>
<path d="M118.543 526.421C118.543 526.421 100.962 498.216 115.002 482.279C129.167 466.469 152.06 474.058 156.74 488.73C161.42 503.401 151.428 528.065 151.428 528.065L118.543 526.421Z" fill="#3BB3BD"/>
<path d="M151.428 528.824L118.543 527.053C118.29 527.053 118.164 526.927 118.037 526.8C117.278 525.662 100.33 497.963 114.622 482.026C121.199 474.69 130.179 471.655 139.413 473.552C148.013 475.323 154.97 481.267 157.373 488.73C162.053 503.528 152.44 527.559 152.061 528.571C151.934 528.697 151.681 528.824 151.428 528.824ZM118.923 525.788L151.049 527.559C152.314 524.271 160.408 502.263 156.108 488.982C153.831 482.026 147.254 476.334 139.033 474.69C130.179 472.793 121.579 475.828 115.381 482.785C102.607 497.204 117.152 522.879 118.923 525.788Z" fill="#414648"/>
<path d="M119.176 494.041C116.267 494.041 105.01 489.867 101.595 484.681C98.0536 479.369 97.4212 467.606 107.413 467.606C117.405 467.606 120.947 485.314 120.947 485.314L121.579 491.764" fill="#3BB3BD"/>
<path d="M119.176 494.673C115.887 494.673 104.63 490.373 100.962 484.934C98.5593 481.393 97.5474 475.195 99.6976 471.022C100.709 469.124 102.86 466.848 107.286 466.848C117.658 466.848 121.326 484.302 121.452 484.934L122.085 491.511C122.085 491.891 121.832 492.144 121.452 492.144C121.073 492.144 120.82 491.891 120.82 491.511L120.188 485.061C120.188 484.934 116.646 467.986 107.286 467.986C104.251 467.986 101.974 469.124 100.709 471.401C98.6858 475.069 99.8241 480.887 101.848 484.049C105.389 489.235 116.393 493.156 118.923 493.156C119.302 493.156 119.555 493.409 119.555 493.788C119.555 494.168 119.429 494.673 119.176 494.673Z" fill="#414648"/>
<path d="M128.156 483.037C125.5 481.772 117.405 473.045 116.52 466.721C115.761 460.397 120.441 449.646 129.421 454.073C138.401 458.5 133.595 475.828 133.595 475.828L131.192 481.899" fill="#3BB3BD"/>
<path d="M128.156 483.67C128.03 483.67 127.903 483.67 127.903 483.544C124.994 482.026 116.773 473.172 116.014 466.722C115.508 462.548 117.279 456.477 121.073 453.694C122.844 452.429 125.753 451.417 129.8 453.441C139.16 458.121 134.607 475.196 134.354 475.955L131.95 482.026C131.824 482.405 131.445 482.532 131.192 482.405C130.812 482.279 130.686 481.899 130.812 481.646L133.215 475.575C133.215 475.449 137.642 458.753 129.294 454.579C126.512 453.188 123.982 453.315 121.958 454.832C118.543 457.236 116.899 462.801 117.405 466.595C118.164 472.793 126.385 481.267 128.662 482.405C128.915 482.532 129.041 482.911 128.915 483.291C128.662 483.544 128.409 483.67 128.156 483.67Z" fill="#414648"/>
<path d="M138.78 486.073C137.262 483.543 135.365 471.781 138.148 466.089C140.93 460.397 150.922 454.073 155.855 462.674C160.788 471.401 147.254 483.164 147.254 483.164L141.942 486.832" fill="#3BB3BD"/>
<path d="M142.069 487.591C141.816 487.591 141.689 487.465 141.563 487.338C141.31 487.085 141.436 486.706 141.689 486.453L147.001 482.785C147.128 482.658 160.029 471.275 155.349 463.18C153.831 460.524 151.681 459.133 149.152 459.259C144.978 459.386 140.551 463.18 138.78 466.469C135.998 472.161 138.021 483.544 139.413 485.82C139.539 486.073 139.539 486.453 139.16 486.706C138.907 486.832 138.527 486.832 138.274 486.453C136.63 483.544 134.733 471.655 137.642 465.836C139.539 462.042 144.345 457.995 149.025 457.868C151.175 457.868 154.211 458.501 156.361 462.421C161.547 471.402 148.266 483.164 147.634 483.67L142.322 487.465C142.322 487.465 142.195 487.591 142.069 487.591Z" fill="#414648"/>
<path d="M142.322 507.068C141.816 504.159 144.093 492.523 148.646 488.096C153.326 483.796 164.835 481.266 166.48 491.005C168.124 500.871 151.302 507.321 151.302 507.321L144.978 508.966" fill="#3BB3BD"/>
<path d="M145.104 509.725C144.851 509.725 144.598 509.599 144.472 509.219C144.345 508.84 144.598 508.587 144.978 508.46L151.302 506.816C151.428 506.816 167.491 500.492 165.974 491.259C165.468 488.223 163.95 486.2 161.42 485.441C157.373 484.049 151.934 486.073 149.152 488.729C144.598 493.03 142.575 504.539 142.954 507.069C142.954 507.448 142.828 507.701 142.448 507.828C142.069 507.828 141.816 507.701 141.689 507.322C141.183 504.033 143.46 492.271 148.266 487.844C151.428 484.935 157.246 482.785 161.8 484.302C163.823 484.935 166.353 486.706 167.112 491.132C168.883 501.377 152.314 507.828 151.555 508.081L145.231 509.725H145.104Z" fill="#414648"/>
<path d="M104.757 481.267C104.504 481.267 104.377 481.14 104.251 481.014L102.227 477.852C102.101 477.599 102.101 477.219 102.48 476.966C102.733 476.84 103.112 476.84 103.365 477.219L105.389 480.381C105.516 480.634 105.516 481.014 105.136 481.267C105.01 481.267 104.883 481.267 104.757 481.267Z" fill="white"/>
<path d="M111.587 488.477C111.46 488.477 111.334 488.477 111.208 488.35L108.045 485.82C107.793 485.568 107.793 485.188 107.919 484.935C108.172 484.682 108.551 484.682 108.804 484.809L111.966 487.338C112.219 487.591 112.219 487.971 112.093 488.224C111.966 488.35 111.713 488.477 111.587 488.477Z" fill="white"/>
<path d="M108.172 476.84C107.919 476.84 107.793 476.714 107.666 476.587L104.504 472.034C104.251 471.781 104.378 471.402 104.631 471.149C104.884 470.896 105.263 471.022 105.516 471.275L108.678 475.828C108.931 476.081 108.804 476.461 108.551 476.714C108.425 476.714 108.299 476.84 108.172 476.84Z" fill="white"/>
<path d="M115.887 486.705C115.634 486.705 115.508 486.579 115.381 486.326L111.966 480.128C111.84 479.875 111.966 479.496 112.219 479.243C112.472 479.117 112.851 479.243 113.104 479.496L116.519 485.693C116.646 485.946 116.519 486.326 116.266 486.579C116.014 486.705 115.887 486.705 115.887 486.705Z" fill="white"/>
<path d="M121.452 468.872C121.199 468.872 120.946 468.746 120.82 468.493L119.682 465.078C119.555 464.698 119.808 464.445 120.061 464.319C120.44 464.192 120.693 464.445 120.82 464.698L121.958 468.113C122.085 468.493 121.832 468.746 121.579 468.872C121.705 468.872 121.579 468.872 121.452 468.872Z" fill="white"/>
<path d="M126.385 477.979C126.132 477.979 126.006 477.852 125.879 477.726L123.856 474.943C123.603 474.69 123.729 474.311 123.982 474.058C124.235 473.805 124.615 473.931 124.868 474.184L126.891 476.967C127.144 477.22 127.018 477.599 126.765 477.852C126.638 477.852 126.512 477.979 126.385 477.979Z" fill="white"/>
<path d="M126.006 464.318C125.753 464.318 125.5 464.192 125.373 463.939L122.844 458.247C122.717 457.868 122.844 457.615 123.223 457.362C123.603 457.235 123.856 457.362 124.109 457.741L126.638 463.433C126.765 463.812 126.638 464.065 126.259 464.318C126.259 464.318 126.132 464.318 126.006 464.318Z" fill="white"/>
<path d="M114.369 503.78C114.116 503.78 113.737 503.527 113.737 503.274L112.852 498.215C112.852 497.836 112.978 497.583 113.357 497.456C113.737 497.456 113.99 497.583 114.116 497.962L115.002 503.021C115.128 503.401 114.875 503.654 114.369 503.78C114.496 503.78 114.496 503.78 114.369 503.78Z" fill="white"/>
<path d="M117.278 512.76C117.025 512.76 116.772 512.634 116.646 512.254L115.508 507.954C115.381 507.574 115.634 507.321 116.013 507.195C116.393 507.069 116.646 507.322 116.772 507.701L117.911 512.001C118.037 512.381 117.784 512.634 117.405 512.76H117.278Z" fill="white"/>
<path d="M120.061 504.539C119.808 504.539 119.555 504.286 119.429 504.033L118.29 498.342C118.164 497.962 118.417 497.709 118.796 497.583C119.176 497.456 119.429 497.709 119.555 498.089L120.693 503.78C120.82 504.16 120.567 504.539 120.061 504.539C120.187 504.539 120.187 504.539 120.061 504.539Z" fill="white"/>
<path d="M123.476 512.76C123.223 512.76 122.97 512.507 122.844 512.254L121.958 507.954C121.832 507.574 122.085 507.321 122.464 507.195C122.844 507.069 123.097 507.322 123.223 507.701L124.108 512.001C124.235 512.381 123.982 512.76 123.476 512.76C123.602 512.76 123.476 512.76 123.476 512.76Z" fill="white"/>
<path d="M126.385 499.48C126.132 499.48 125.879 499.227 125.753 498.974L124.109 491.006C123.982 490.626 124.235 490.373 124.615 490.247C124.994 490.12 125.247 490.373 125.373 490.753L127.018 498.721C127.144 499.1 126.891 499.353 126.512 499.48C126.385 499.48 126.385 499.48 126.385 499.48Z" fill="white"/>
<path d="M128.915 510.863C128.535 510.863 128.282 510.61 128.282 510.231L128.029 506.563C128.029 506.184 128.282 505.931 128.662 505.931C129.041 505.931 129.294 506.184 129.294 506.563L129.547 510.231C129.547 510.484 129.294 510.737 128.915 510.863Z" fill="white"/>
<path d="M133.089 496.318C132.836 496.318 132.583 496.065 132.456 495.812L131.065 488.476C130.939 488.097 131.192 487.844 131.571 487.717C131.95 487.591 132.203 487.844 132.33 488.223L133.721 495.559C133.848 495.939 133.595 496.318 133.089 496.318C133.215 496.318 133.215 496.318 133.089 496.318Z" fill="white"/>
<path d="M133.721 511.623C133.341 511.623 133.088 511.37 133.088 510.99L132.583 503.275C132.583 502.896 132.835 502.643 133.215 502.643C133.594 502.643 133.847 502.896 133.847 503.275L134.353 510.99C134.353 511.37 134.1 511.623 133.721 511.623Z" fill="white"/>
<path d="M139.919 498.088C139.539 498.088 139.286 497.835 139.286 497.456V491.258C139.286 490.879 139.539 490.626 139.919 490.626C140.298 490.626 140.551 490.879 140.551 491.258V497.456C140.551 497.835 140.298 498.088 139.919 498.088Z" fill="white"/>
<path d="M139.413 510.863C139.033 510.863 138.78 510.61 138.78 510.231L138.527 505.424C138.527 505.045 138.78 504.792 139.16 504.792C139.539 504.792 139.792 505.045 139.792 505.424L140.045 510.231C140.045 510.484 139.792 510.737 139.413 510.863Z" fill="white"/>
<path d="M145.61 465.71C145.484 465.71 145.484 465.71 145.357 465.71C144.978 465.583 144.851 465.204 144.978 464.824L146.369 461.409C146.495 461.03 146.875 460.903 147.254 461.03C147.634 461.156 147.76 461.536 147.634 461.915L146.242 465.33C146.116 465.583 145.863 465.71 145.61 465.71Z" fill="white"/>
<path d="M143.587 474.563H143.46C143.081 474.437 142.954 474.057 143.081 473.804L144.472 468.998C144.598 468.619 144.978 468.492 145.231 468.619C145.61 468.745 145.737 469.125 145.61 469.378L144.219 474.184C144.219 474.31 143.966 474.563 143.587 474.563Z" fill="white"/>
<path d="M151.049 473.425C150.922 473.425 150.796 473.425 150.796 473.299C150.543 473.172 150.416 472.793 150.543 472.413L152.819 467.86C152.946 467.607 153.325 467.481 153.705 467.607C153.958 467.734 154.084 468.113 153.958 468.493L151.681 473.046C151.428 473.299 151.175 473.425 151.049 473.425Z" fill="white"/>
<path d="M143.586 481.267C143.46 481.267 143.333 481.267 143.207 481.141C142.954 480.888 142.954 480.508 143.207 480.256L145.736 477.473C145.989 477.22 146.369 477.22 146.622 477.473C146.875 477.726 146.875 478.105 146.622 478.358L144.092 481.141C143.966 481.267 143.839 481.267 143.586 481.267Z" fill="white"/>
<path d="M139.919 472.286H139.792C139.413 472.16 139.286 471.907 139.286 471.527L140.172 467.859C140.298 467.48 140.551 467.354 140.93 467.354C141.31 467.48 141.436 467.733 141.436 468.112L140.551 471.78C140.551 472.033 140.171 472.286 139.919 472.286Z" fill="white"/>
<path d="M150.163 494.042C150.037 494.042 149.911 494.042 149.784 493.915C149.531 493.789 149.405 493.283 149.531 493.03L152.693 487.971C152.82 487.718 153.325 487.591 153.578 487.718C153.831 487.844 153.958 488.35 153.831 488.603L150.669 493.662C150.543 494.042 150.416 494.042 150.163 494.042Z" fill="white"/>
<path d="M146.496 501.757C146.369 501.757 146.369 501.757 146.243 501.757C145.863 501.63 145.737 501.251 145.863 500.998L147.508 496.444C147.634 496.065 148.014 495.939 148.266 496.065C148.646 496.191 148.772 496.571 148.646 496.824L147.002 501.377C147.002 501.63 146.749 501.757 146.496 501.757Z" fill="white"/>
<path d="M150.669 504.034C150.416 504.034 150.29 503.907 150.163 503.654C150.037 503.401 150.163 503.022 150.416 502.769L155.476 499.986C155.729 499.86 156.108 499.986 156.361 500.239C156.487 500.492 156.361 500.872 156.108 501.124L151.049 503.907C150.922 504.034 150.796 504.034 150.669 504.034Z" fill="white"/>
<path d="M156.361 493.283C156.235 493.283 156.108 493.283 155.982 493.156C155.729 493.03 155.602 492.65 155.729 492.271L158.258 487.971C158.385 487.718 158.764 487.591 159.144 487.718C159.397 487.844 159.523 488.224 159.397 488.603L156.867 492.903C156.867 493.156 156.614 493.283 156.361 493.283Z" fill="white"/>
<path d="M158.132 496.319C157.879 496.319 157.752 496.192 157.626 496.066C157.373 495.813 157.499 495.433 157.752 495.18L161.167 492.651C161.42 492.398 161.8 492.524 162.053 492.777C162.305 493.03 162.179 493.409 161.926 493.662L158.511 496.192C158.385 496.319 158.258 496.319 158.132 496.319Z" fill="white"/>
<path d="M157.752 516.556H109.563V564.745H157.752V516.556Z" fill="#414648"/>
</svg>
