<svg width="36" height="36" viewBox="0 0 36 36" fill="none" xmlns="http://www.w3.org/2000/svg">
<path d="M4.29346 5.42676L6.50643 12.1998L8.85353 5.42676" stroke="#24BB36" stroke-width="1.5" stroke-miterlimit="10"/>
<path d="M13.404 5.42676L11.191 12.1998L8.85352 5.42676" stroke="#24BB36" stroke-width="1.5" stroke-miterlimit="10"/>
<path d="M14.3331 16.578H3.36402C2.10904 16.578 1.08398 15.5625 1.08398 14.298V3.32887C1.08398 2.07389 2.09946 1.04883 3.36402 1.04883H14.3331C15.5881 1.04883 16.6132 2.06431 16.6132 3.32887V14.298C16.6132 15.5529 15.5881 16.578 14.3331 16.578Z" stroke="#24BB36" stroke-width="1.5" stroke-miterlimit="10"/>
<path d="M27.4006 12.2094C29.2736 12.2094 30.7919 10.691 30.7919 8.81807C30.7919 6.9451 29.2736 5.42676 27.4006 5.42676C25.5276 5.42676 24.0093 6.9451 24.0093 8.81807C24.0093 10.691 25.5276 12.2094 27.4006 12.2094Z" stroke="#24BB36" stroke-width="1.5" stroke-miterlimit="10"/>
<path d="M32.8802 16.578H21.9207C20.6657 16.578 19.6406 15.5625 19.6406 14.298V3.32887C19.6406 2.07389 20.6561 1.04883 21.9207 1.04883H32.8802C34.1352 1.04883 35.1602 2.06431 35.1602 3.32887V14.298C35.1602 15.5529 34.1352 16.578 32.8802 16.578Z" stroke="#24BB36" stroke-width="1.5" stroke-miterlimit="10"/>
<path d="M6.68848 30.6706V27.2793" stroke="#24BB36" stroke-width="1.5" stroke-miterlimit="10"/>
<path d="M9.27507 27.279H9.30381C10.2427 27.279 10.9995 26.5222 10.9995 25.5834C10.9995 24.6445 10.2427 23.8877 9.30381 23.8877H6.68848V27.279H9.27507Z" stroke="#24BB36" stroke-width="1.5" stroke-miterlimit="10"/>
<path d="M11.0088 30.6706L8.84375 27.2793" stroke="#24BB36" stroke-width="1.5" stroke-miterlimit="10"/>
<path d="M14.3331 35.0391H3.36402C2.10904 35.0391 1.08398 34.0236 1.08398 32.7591V21.7996C1.08398 20.5446 2.09946 19.5195 3.36402 19.5195H14.3331C15.5881 19.5195 16.6132 20.535 16.6132 21.7996V32.7591C16.6132 34.0236 15.5881 35.0391 14.3331 35.0391Z" stroke="#24BB36" stroke-width="1.5" stroke-miterlimit="10"/>
<path d="M24.8711 23.8885V30.6615H27.5439C28.8564 30.6615 29.9293 29.5982 29.9293 28.2761V26.2643C29.9293 24.9519 28.8659 23.8789 27.5439 23.8789L24.8711 23.8885Z" stroke="#24BB36" stroke-width="1.5" stroke-miterlimit="10"/>
<path d="M32.8802 35.0391H21.9207C20.6657 35.0391 19.6406 34.0236 19.6406 32.7591V21.7996C19.6406 20.5446 20.6561 19.5195 21.9207 19.5195H32.8802C34.1352 19.5195 35.1602 20.535 35.1602 21.7996V32.7591C35.1602 34.0236 34.1352 35.0391 32.8802 35.0391Z" stroke="#24BB36" stroke-width="1.5" stroke-miterlimit="10"/>
</svg>
