<svg width="37" height="34" viewBox="0 0 37 34" fill="none" xmlns="http://www.w3.org/2000/svg">
<path d="M19.6323 1.52832H8.23682V6.20455H19.6323V1.52832Z" stroke="#FFA34F" stroke-width="1.5" stroke-miterlimit="10" stroke-linecap="round" stroke-linejoin="round"/>
<path d="M26.4423 32.5257V32.5598H1.42676V3.67383H8.23681" stroke="#FFA34F" stroke-width="1.5" stroke-miterlimit="10" stroke-linecap="round" stroke-linejoin="round"/>
<path d="M19.6323 3.67383H26.4424V13.8548" stroke="#FFA34F" stroke-width="1.5" stroke-miterlimit="10" stroke-linecap="round" stroke-linejoin="round"/>
<path d="M4.27539 10.3359H23.5819" stroke="#FFA34F" stroke-width="1.5" stroke-miterlimit="10" stroke-linecap="round" stroke-linejoin="round"/>
<path d="M4.22998 14.9102H16.3859" stroke="#FFA34F" stroke-width="1.5" stroke-miterlimit="10" stroke-linecap="round" stroke-linejoin="round"/>
<path d="M4.18457 19.4844H14.0364" stroke="#FFA34F" stroke-width="1.5" stroke-miterlimit="10" stroke-linecap="round" stroke-linejoin="round"/>
<path d="M4.13965 24.0469H14.0823" stroke="#FFA34F" stroke-width="1.5" stroke-miterlimit="10" stroke-linecap="round" stroke-linejoin="round"/>
<path d="M4.09424 28.6211H13.9461" stroke="#FFA34F" stroke-width="1.5" stroke-miterlimit="10" stroke-linecap="round" stroke-linejoin="round"/>
<path d="M26.488 32.514C31.6407 32.514 35.8177 28.3369 35.8177 23.1843C35.8177 18.0316 31.6407 13.8545 26.488 13.8545C21.3353 13.8545 17.1582 18.0316 17.1582 23.1843C17.1582 28.3369 21.3353 32.514 26.488 32.514Z" stroke="#FFA34F" stroke-width="1.5" stroke-miterlimit="10" stroke-linecap="round" stroke-linejoin="round"/>
<path d="M22.2773 22.6509L25.444 25.8062L30.6878 20.5625" stroke="#FFA34F" stroke-width="1.5" stroke-miterlimit="10" stroke-linecap="round" stroke-linejoin="round"/>
</svg>
