<svg width="38" height="39" viewBox="0 0 38 39" fill="none" xmlns="http://www.w3.org/2000/svg">
<path d="M19.1221 37.3496C29.0632 37.3496 37.1221 29.2907 37.1221 19.3496C37.1221 9.40849 29.0632 1.34961 19.1221 1.34961C9.18095 1.34961 1.12207 9.40849 1.12207 19.3496C1.12207 29.2907 9.18095 37.3496 19.1221 37.3496Z" stroke="#FFA34F" stroke-width="1.5" stroke-miterlimit="10" stroke-linecap="round" stroke-linejoin="round"/>
<path d="M11.7886 28.8735C13.4076 26.4926 16.0743 24.9688 19.1219 24.9688C22.1695 24.9688 24.8362 26.4926 26.4552 28.8735" stroke="#FFA34F" stroke-width="1.5" stroke-miterlimit="10" stroke-linecap="round" stroke-linejoin="round"/>
<path d="M19.122 31.3491C13.122 31.3491 8.16964 26.9682 7.3125 21.2539H19.122" stroke="#FFA34F" stroke-width="1.5" stroke-miterlimit="10" stroke-linecap="round" stroke-linejoin="round"/>
<path d="M19.1221 31.3491C25.1221 31.3491 30.0744 26.9682 30.9316 21.2539H19.1221" stroke="#FFA34F" stroke-width="1.5" stroke-miterlimit="10" stroke-linecap="round" stroke-linejoin="round"/>
<path d="M8.93164 13.7309C8.93164 11.7309 10.5507 10.0166 12.6459 10.0166C14.7412 10.0166 16.3602 11.6356 16.3602 13.7309" stroke="#FFA34F" stroke-width="1.5" stroke-miterlimit="10" stroke-linecap="round" stroke-linejoin="round"/>
<path d="M29.3124 13.7309C29.3124 11.7309 27.6933 10.0166 25.5981 10.0166C23.5028 10.0166 21.8838 11.6356 21.8838 13.7309" stroke="#FFA34F" stroke-width="1.5" stroke-miterlimit="10" stroke-linecap="round" stroke-linejoin="round"/>
</svg>
