<svg width="41" height="40" viewBox="0 0 41 40" fill="none" xmlns="http://www.w3.org/2000/svg">
<path d="M20.6116 33.4801C27.0137 33.4801 32.2036 26.9745 32.2036 18.9495C32.2036 10.9245 27.0137 4.41895 20.6116 4.41895C14.2095 4.41895 9.01953 10.9245 9.01953 18.9495C9.01953 26.9745 14.2095 33.4801 20.6116 33.4801Z" stroke="#3BB3BD" stroke-width="1.5" stroke-miterlimit="10" stroke-linecap="round" stroke-linejoin="round"/>
<path d="M6.08105 19.2336C6.08105 9.99236 12.6674 1.33887 20.6116 1.33887" stroke="#3BB3BD" stroke-width="1.5" stroke-miterlimit="10" stroke-linecap="round" stroke-linejoin="round"/>
<path d="M6.24341 24.5228C6.24341 24.6444 5.73677 24.5228 5.73677 24.5228C3.42647 24.5228 1.56201 22.6583 1.56201 20.348V19.4766C1.56201 17.1663 3.42647 15.3019 5.73677 15.3019H6.24341C6.24341 15.2816 5.93942 18.362 6.24341 24.5228Z" stroke="#3BB3BD" stroke-width="1.5" stroke-miterlimit="10" stroke-linecap="round" stroke-linejoin="round"/>
<path d="M35.1424 19.2336C35.1424 9.99236 28.556 1.33887 20.6118 1.33887" stroke="#3BB3BD" stroke-width="1.5" stroke-miterlimit="10" stroke-linecap="round" stroke-linejoin="round"/>
<path d="M22.6182 36.9662C29.6301 35.6692 35.1424 27.7047 35.1424 19.2539" stroke="#3BB3BD" stroke-width="1.5" stroke-miterlimit="10" stroke-linecap="round" stroke-linejoin="round"/>
<path d="M35.0005 24.5228C35.0005 24.6444 35.5071 24.5228 35.5071 24.5228C37.8174 24.5228 39.6819 22.6583 39.6819 20.348V19.4766C39.6819 17.1663 37.8174 15.3019 35.5071 15.3019H35.0005C35.0005 15.2816 35.3045 18.362 35.0005 24.5228Z" stroke="#3BB3BD" stroke-width="1.5" stroke-miterlimit="10" stroke-linecap="round" stroke-linejoin="round"/>
<path d="M20.5512 38.7493C21.7265 38.7493 22.6792 38.0961 22.6792 37.2902C22.6792 36.4843 21.7265 35.8311 20.5512 35.8311C19.376 35.8311 18.4233 36.4843 18.4233 37.2902C18.4233 38.0961 19.376 38.7493 20.5512 38.7493Z" stroke="#3BB3BD" stroke-width="1.5" stroke-miterlimit="10" stroke-linecap="round" stroke-linejoin="round"/>
</svg>
