<svg width="37" height="41" viewBox="0 0 37 41" fill="none" xmlns="http://www.w3.org/2000/svg">
<path d="M17.7222 2.99902H18.9222" stroke="#3BB3BD" stroke-width="1.5" stroke-miterlimit="10" stroke-linecap="round" stroke-linejoin="round"/>
<path d="M18.9221 37.699H5.62207C3.42207 37.699 1.62207 35.899 1.62207 33.699V6.99902C1.62207 4.79902 3.42207 2.99902 5.62207 2.99902" stroke="#3BB3BD" stroke-width="1.5" stroke-miterlimit="10" stroke-linecap="round" stroke-linejoin="round"/>
<path d="M10.5223 3.09961H8.32227V5.29961H10.5223V3.09961Z" stroke="#3BB3BD" stroke-width="1.5" stroke-miterlimit="10" stroke-linecap="round" stroke-linejoin="round"/>
<path d="M8.32227 3.09941C8.32227 1.89941 9.32227 0.899414 10.5223 0.899414" stroke="#3BB3BD" stroke-width="1.5" stroke-miterlimit="10" stroke-linecap="round" stroke-linejoin="round"/>
<path d="M15.222 3.09961H13.022V5.29961H15.222V3.09961Z" stroke="#3BB3BD" stroke-width="1.5" stroke-miterlimit="10" stroke-linecap="round" stroke-linejoin="round"/>
<path d="M13.022 3.09941C13.022 1.89941 14.022 0.899414 15.222 0.899414" stroke="#3BB3BD" stroke-width="1.5" stroke-miterlimit="10" stroke-linecap="round" stroke-linejoin="round"/>
<path d="M8.32227 10.999H29.5223" stroke="#3BB3BD" stroke-width="1.5" stroke-miterlimit="10" stroke-linecap="round" stroke-linejoin="round"/>
<path d="M8.32227 20.3994H29.5223" stroke="#3BB3BD" stroke-width="1.5" stroke-miterlimit="10" stroke-linecap="round" stroke-linejoin="round"/>
<path d="M8.32227 29.6992H29.5223" stroke="#3BB3BD" stroke-width="1.5" stroke-miterlimit="10" stroke-linecap="round" stroke-linejoin="round"/>
<path d="M19.5223 37.6992H18.3223" stroke="#3BB3BD" stroke-width="1.5" stroke-miterlimit="10" stroke-linecap="round" stroke-linejoin="round"/>
<path d="M18.3223 2.99902H31.6223C33.8223 2.99902 35.6223 4.79902 35.6223 6.99902V33.599C35.6223 35.799 33.8223 37.599 31.6223 37.599" stroke="#3BB3BD" stroke-width="1.5" stroke-miterlimit="10" stroke-linecap="round" stroke-linejoin="round"/>
<path d="M26.8107 37.6631L29.0107 37.6631L29.0107 35.4631L26.8107 35.4631L26.8107 37.6631Z" stroke="#3BB3BD" stroke-width="1.5" stroke-miterlimit="10" stroke-linecap="round" stroke-linejoin="round"/>
<path d="M29.0223 37.5986C29.0223 38.7986 28.0223 39.7986 26.8223 39.7986" stroke="#3BB3BD" stroke-width="1.5" stroke-miterlimit="10" stroke-linecap="round" stroke-linejoin="round"/>
<path d="M22.1037 37.6631L24.3037 37.6631L24.3037 35.4631L22.1037 35.4631L22.1037 37.6631Z" stroke="#3BB3BD" stroke-width="1.5" stroke-miterlimit="10" stroke-linecap="round" stroke-linejoin="round"/>
<path d="M24.2225 37.5986C24.2225 38.7986 23.2225 39.7986 22.0225 39.7986" stroke="#3BB3BD" stroke-width="1.5" stroke-miterlimit="10" stroke-linecap="round" stroke-linejoin="round"/>
<path d="M29.0222 29.6992H7.72217" stroke="#3BB3BD" stroke-width="1.5" stroke-miterlimit="10" stroke-linecap="round" stroke-linejoin="round"/>
<path d="M29.0222 20.3994H7.72217" stroke="#3BB3BD" stroke-width="1.5" stroke-miterlimit="10" stroke-linecap="round" stroke-linejoin="round"/>
<path d="M29.0222 10.999H7.72217" stroke="#3BB3BD" stroke-width="1.5" stroke-miterlimit="10" stroke-linecap="round" stroke-linejoin="round"/>
</svg>
