<svg width="94" height="52" viewBox="0 0 94 52" fill="none" xmlns="http://www.w3.org/2000/svg">
<path d="M28.6008 22.2041L25.5006 25.3044H27.9569L32.1303 31.9818H7.90069L12.0979 25.3044H14.6497L11.5494 22.2041H10.3809L2.29639 35.0821H37.7585L29.674 22.2041H28.6008Z" fill="#414648"/>
<path d="M20.063 29.0486L11.2393 20.201L14.6018 16.8384L20.063 22.2996L33.418 8.96851L36.7806 12.3311L20.063 29.0486Z" fill="#6FB1BB"/>
<path d="M59.2744 31.8828V35.082H48.6787V31.8828H59.2744ZM50.0186 15.1758V35.082H45.917V15.1758H50.0186ZM57.8936 23.2832V26.4004H48.6787V23.2832H57.8936ZM59.2608 15.1758V18.3887H48.6787V15.1758H59.2608ZM73.9039 31.8828V35.082H63.8824V31.8828H73.9039ZM65.2086 15.1758V35.082H61.107V15.1758H65.2086ZM81.4787 15.1758V35.082H77.3908V15.1758H81.4787ZM87.6037 15.1758V18.3887H71.3615V15.1758H87.6037Z" fill="#3C4447"/>
<path d="M6.67287 46.3921V47.082H3.28469V46.3921H6.67287ZM3.45607 40.6836V47.082H2.60793V40.6836H3.45607ZM6.22463 43.4346V44.1245H3.28469V43.4346H6.22463ZM6.62893 40.6836V41.3779H3.28469V40.6836H6.62893ZM8.23311 43.3423V47.082H7.42012V42.3271H8.18916L8.23311 43.3423ZM8.03975 44.5244L7.70137 44.5112C7.7043 44.186 7.75264 43.8857 7.84639 43.6104C7.94014 43.332 8.07197 43.0903 8.24189 42.8853C8.41182 42.6802 8.61396 42.522 8.84834 42.4106C9.08564 42.2964 9.34785 42.2393 9.63496 42.2393C9.86934 42.2393 10.0803 42.2715 10.2678 42.3359C10.4553 42.3975 10.6149 42.4971 10.7468 42.6348C10.8815 42.7725 10.9841 42.9512 11.0544 43.1709C11.1247 43.3877 11.1599 43.6528 11.1599 43.9663V47.082H10.3425V43.9575C10.3425 43.7085 10.3059 43.5093 10.2326 43.3599C10.1594 43.2075 10.0524 43.0977 9.91182 43.0303C9.77119 42.96 9.59834 42.9248 9.39326 42.9248C9.19111 42.9248 9.00654 42.9673 8.83955 43.0522C8.67549 43.1372 8.5334 43.2544 8.41328 43.4038C8.29609 43.5532 8.20381 43.7246 8.13643 43.918C8.07197 44.1084 8.03975 44.3105 8.03975 44.5244ZM15.2953 42.3271H16.0336V46.981C16.0336 47.3999 15.9486 47.7573 15.7787 48.0532C15.6088 48.3491 15.3715 48.5732 15.0668 48.7256C14.765 48.8809 14.4164 48.9585 14.0209 48.9585C13.8568 48.9585 13.6635 48.9321 13.4408 48.8794C13.2211 48.8296 13.0043 48.7432 12.7904 48.6201C12.5795 48.5 12.4022 48.3374 12.2587 48.1323L12.6849 47.6489C12.8842 47.8892 13.0922 48.0562 13.309 48.1499C13.5287 48.2437 13.7455 48.2905 13.9594 48.2905C14.2172 48.2905 14.4398 48.2422 14.6273 48.1455C14.8148 48.0488 14.9598 47.9053 15.0624 47.7148C15.1679 47.5273 15.2206 47.2959 15.2206 47.0205V43.373L15.2953 42.3271ZM12.0214 44.7573V44.665C12.0214 44.3018 12.0638 43.9722 12.1488 43.6763C12.2367 43.3774 12.3612 43.1211 12.5223 42.9072C12.6864 42.6934 12.8842 42.5293 13.1156 42.415C13.3471 42.2979 13.6078 42.2393 13.8978 42.2393C14.1967 42.2393 14.4574 42.292 14.6801 42.3975C14.9056 42.5 15.0961 42.6509 15.2513 42.8501C15.4096 43.0464 15.5341 43.2837 15.6249 43.562C15.7157 43.8403 15.7787 44.1553 15.8138 44.5068V44.9111C15.7816 45.2598 15.7186 45.5732 15.6249 45.8516C15.5341 46.1299 15.4096 46.3672 15.2513 46.5635C15.0961 46.7598 14.9056 46.9106 14.6801 47.0161C14.4545 47.1187 14.1908 47.1699 13.889 47.1699C13.6049 47.1699 13.3471 47.1099 13.1156 46.9897C12.8871 46.8696 12.6908 46.7012 12.5267 46.4844C12.3627 46.2676 12.2367 46.0127 12.1488 45.7197C12.0638 45.4238 12.0214 45.103 12.0214 44.7573ZM12.8344 44.665V44.7573C12.8344 44.9946 12.8578 45.2173 12.9047 45.4253C12.9545 45.6333 13.0292 45.8164 13.1288 45.9746C13.2313 46.1328 13.3617 46.2573 13.5199 46.3481C13.6781 46.436 13.8671 46.48 14.0868 46.48C14.3563 46.48 14.579 46.4229 14.7548 46.3086C14.9305 46.1943 15.0697 46.0435 15.1722 45.856C15.2777 45.6685 15.3597 45.4648 15.4183 45.2451V44.186C15.3861 44.0249 15.3363 43.8696 15.2689 43.7202C15.2045 43.5679 15.1195 43.4331 15.014 43.3159C14.9115 43.1958 14.7841 43.1006 14.6317 43.0303C14.4794 42.96 14.3007 42.9248 14.0956 42.9248C13.8729 42.9248 13.681 42.9717 13.5199 43.0654C13.3617 43.1562 13.2313 43.2822 13.1288 43.4434C13.0292 43.6016 12.9545 43.7861 12.9047 43.9971C12.8578 44.2051 12.8344 44.4277 12.8344 44.665ZM17.9717 40.332V47.082H17.1544V40.332H17.9717ZM19.9802 42.3271V47.082H19.1628V42.3271H19.9802ZM19.1013 41.0659C19.1013 40.9341 19.1409 40.8228 19.22 40.7319C19.302 40.6411 19.4221 40.5957 19.5803 40.5957C19.7356 40.5957 19.8542 40.6411 19.9363 40.7319C20.0212 40.8228 20.0637 40.9341 20.0637 41.0659C20.0637 41.1919 20.0212 41.3003 19.9363 41.3911C19.8542 41.479 19.7356 41.5229 19.5803 41.5229C19.4221 41.5229 19.302 41.479 19.22 41.3911C19.1409 41.3003 19.1013 41.1919 19.1013 41.0659ZM23.8739 45.8208C23.8739 45.7036 23.8476 45.5952 23.7948 45.4956C23.745 45.3931 23.641 45.3008 23.4828 45.2188C23.3276 45.1338 23.0932 45.0605 22.7797 44.999C22.516 44.9434 22.2773 44.8774 22.0634 44.8013C21.8525 44.7251 21.6723 44.6328 21.5229 44.5244C21.3764 44.416 21.2636 44.2886 21.1845 44.1421C21.1054 43.9956 21.0658 43.8242 21.0658 43.6279C21.0658 43.4404 21.1069 43.2632 21.1889 43.0962C21.2738 42.9292 21.3925 42.7812 21.5448 42.6523C21.7001 42.5234 21.8862 42.4224 22.1029 42.3491C22.3197 42.2759 22.5614 42.2393 22.828 42.2393C23.2089 42.2393 23.5341 42.3066 23.8036 42.4414C24.0732 42.5762 24.2797 42.7563 24.4233 42.9819C24.5668 43.2046 24.6386 43.4521 24.6386 43.7246H23.8256C23.8256 43.5928 23.7861 43.4653 23.707 43.3423C23.6308 43.2163 23.518 43.1123 23.3686 43.0303C23.2221 42.9482 23.0419 42.9072 22.828 42.9072C22.6025 42.9072 22.4194 42.9424 22.2787 43.0127C22.141 43.0801 22.04 43.1665 21.9755 43.272C21.914 43.3774 21.8832 43.4888 21.8832 43.606C21.8832 43.6938 21.8979 43.7729 21.9272 43.8433C21.9594 43.9106 22.0151 43.9736 22.0942 44.0322C22.1733 44.0879 22.2846 44.1406 22.4281 44.1904C22.5717 44.2402 22.7548 44.29 22.9775 44.3398C23.3671 44.4277 23.6879 44.5332 23.9399 44.6562C24.1918 44.7793 24.3793 44.9302 24.5024 45.1089C24.6254 45.2876 24.6869 45.5044 24.6869 45.7593C24.6869 45.9673 24.643 46.1577 24.5551 46.3306C24.4701 46.5034 24.3456 46.6528 24.1816 46.7788C24.0204 46.9019 23.8271 46.9985 23.6015 47.0688C23.3788 47.1362 23.1283 47.1699 22.85 47.1699C22.4311 47.1699 22.0766 47.0952 21.7865 46.9458C21.4965 46.7964 21.2768 46.603 21.1274 46.3657C20.9779 46.1284 20.9032 45.8779 20.9032 45.6143H21.7206C21.7323 45.8369 21.7968 46.0142 21.914 46.146C22.0312 46.2749 22.1747 46.3672 22.3446 46.4229C22.5146 46.4756 22.683 46.502 22.85 46.502C23.0727 46.502 23.2587 46.4727 23.4081 46.4141C23.5605 46.3555 23.6762 46.2749 23.7553 46.1724C23.8344 46.0698 23.8739 45.9526 23.8739 45.8208ZM26.3878 40.332V47.082H25.5748V40.332H26.3878ZM26.1944 44.5244L25.8561 44.5112C25.859 44.186 25.9073 43.8857 26.0011 43.6104C26.0948 43.332 26.2267 43.0903 26.3966 42.8853C26.5665 42.6802 26.7687 42.522 27.003 42.4106C27.2403 42.2964 27.5025 42.2393 27.7896 42.2393C28.024 42.2393 28.235 42.2715 28.4225 42.3359C28.61 42.3975 28.7696 42.4971 28.9015 42.6348C29.0362 42.7725 29.1388 42.9512 29.2091 43.1709C29.2794 43.3877 29.3146 43.6528 29.3146 43.9663V47.082H28.4972V43.9575C28.4972 43.7085 28.4605 43.5093 28.3873 43.3599C28.3141 43.2075 28.2071 43.0977 28.0665 43.0303C27.9259 42.96 27.753 42.9248 27.5479 42.9248C27.3458 42.9248 27.1612 42.9673 26.9942 43.0522C26.8302 43.1372 26.6881 43.2544 26.568 43.4038C26.4508 43.5532 26.3585 43.7246 26.2911 43.918C26.2267 44.1084 26.1944 44.3105 26.1944 44.5244ZM36.4077 46.3921V47.082H33.2085V46.3921H36.4077ZM33.3754 40.6836V47.082H32.5273V40.6836H33.3754ZM39.049 47.1699C38.7179 47.1699 38.4176 47.1143 38.1481 47.0029C37.8815 46.8887 37.6515 46.729 37.4581 46.5239C37.2677 46.3188 37.1212 46.0757 37.0187 45.7944C36.9162 45.5132 36.8649 45.2056 36.8649 44.8716V44.687C36.8649 44.3003 36.922 43.9561 37.0363 43.6543C37.1505 43.3496 37.3058 43.0918 37.5021 42.8809C37.6984 42.6699 37.921 42.5103 38.1701 42.4019C38.4191 42.2935 38.6769 42.2393 38.9435 42.2393C39.2833 42.2393 39.5763 42.2979 39.8224 42.415C40.0714 42.5322 40.275 42.6963 40.4332 42.9072C40.5914 43.1152 40.7086 43.3613 40.7848 43.6455C40.861 43.9268 40.8991 44.2344 40.8991 44.5684V44.9331H37.3483V44.2695H40.0861V44.208C40.0744 43.9971 40.0304 43.792 39.9542 43.5928C39.881 43.3936 39.7638 43.2295 39.6027 43.1006C39.4415 42.9717 39.2218 42.9072 38.9435 42.9072C38.7589 42.9072 38.589 42.9468 38.4337 43.0259C38.2785 43.1021 38.1452 43.2163 38.0338 43.3687C37.9225 43.521 37.8361 43.707 37.7746 43.9268C37.713 44.1465 37.6823 44.3999 37.6823 44.687V44.8716C37.6823 45.0972 37.713 45.3096 37.7746 45.5088C37.839 45.7051 37.9313 45.8779 38.0514 46.0273C38.1745 46.1768 38.3224 46.2939 38.4953 46.3789C38.671 46.4639 38.8703 46.5063 39.0929 46.5063C39.38 46.5063 39.6232 46.4478 39.8224 46.3306C40.0216 46.2134 40.1959 46.0566 40.3454 45.8604L40.8375 46.2515C40.735 46.4067 40.6046 46.5547 40.4464 46.6953C40.2882 46.8359 40.0934 46.9502 39.862 47.0381C39.6334 47.126 39.3624 47.1699 39.049 47.1699ZM44.472 46.269V43.8213C44.472 43.6338 44.4339 43.4712 44.3577 43.3335C44.2845 43.1929 44.1732 43.0845 44.0238 43.0083C43.8743 42.9321 43.6898 42.894 43.47 42.894C43.265 42.894 43.0848 42.9292 42.9295 42.9995C42.7772 43.0698 42.6571 43.1621 42.5692 43.2764C42.4842 43.3906 42.4417 43.5137 42.4417 43.6455H41.6287C41.6287 43.4756 41.6727 43.3071 41.7606 43.1401C41.8485 42.9731 41.9744 42.8223 42.1385 42.6875C42.3055 42.5498 42.5047 42.4414 42.7362 42.3623C42.9705 42.2803 43.2313 42.2393 43.5184 42.2393C43.8641 42.2393 44.1688 42.2979 44.4324 42.415C44.699 42.5322 44.9071 42.7095 45.0565 42.9468C45.2088 43.1812 45.285 43.4756 45.285 43.8301V46.0449C45.285 46.2031 45.2982 46.3716 45.3245 46.5503C45.3538 46.729 45.3963 46.8828 45.452 47.0117V47.082H44.6038C44.5628 46.9883 44.5306 46.8638 44.5071 46.7085C44.4837 46.5503 44.472 46.4038 44.472 46.269ZM44.6126 44.1992L44.6214 44.7705H43.7996C43.5682 44.7705 43.3616 44.7896 43.18 44.8276C42.9984 44.8628 42.846 44.917 42.723 44.9902C42.5999 45.0635 42.5062 45.1558 42.4417 45.2671C42.3773 45.3755 42.345 45.5029 42.345 45.6494C42.345 45.7988 42.3787 45.9351 42.4461 46.0581C42.5135 46.1812 42.6146 46.2793 42.7493 46.3525C42.887 46.4229 43.0555 46.458 43.2547 46.458C43.5037 46.458 43.7235 46.4053 43.9139 46.2998C44.1043 46.1943 44.2552 46.0654 44.3665 45.9131C44.4808 45.7607 44.5423 45.6128 44.5511 45.4692L44.8983 45.8604C44.8778 45.9834 44.8221 46.1196 44.7313 46.269C44.6404 46.4185 44.5189 46.562 44.3665 46.6997C44.2171 46.8345 44.0384 46.9473 43.8304 47.0381C43.6253 47.126 43.3939 47.1699 43.1361 47.1699C42.8138 47.1699 42.5311 47.1069 42.2879 46.981C42.0477 46.855 41.8602 46.6865 41.7254 46.4756C41.5936 46.2617 41.5277 46.0229 41.5277 45.7593C41.5277 45.5044 41.5775 45.2803 41.6771 45.0869C41.7767 44.8906 41.9202 44.728 42.1077 44.5991C42.2952 44.4673 42.5208 44.3677 42.7845 44.3003C43.0482 44.2329 43.3426 44.1992 43.6678 44.1992H44.6126ZM47.1968 43.0742V47.082H46.3838V42.3271H47.1748L47.1968 43.0742ZM48.6821 42.3008L48.6777 43.0566C48.6104 43.042 48.5459 43.0332 48.4844 43.0303C48.4258 43.0244 48.3584 43.0215 48.2822 43.0215C48.0947 43.0215 47.9292 43.0508 47.7856 43.1094C47.6421 43.168 47.5205 43.25 47.4209 43.3555C47.3213 43.4609 47.2422 43.5869 47.1836 43.7334C47.1279 43.877 47.0913 44.0352 47.0737 44.208L46.8452 44.3398C46.8452 44.0527 46.873 43.7832 46.9287 43.5312C46.9873 43.2793 47.0767 43.0566 47.1968 42.8633C47.3169 42.667 47.4692 42.5146 47.6538 42.4062C47.8413 42.2949 48.064 42.2393 48.3218 42.2393C48.3804 42.2393 48.4478 42.2466 48.5239 42.2612C48.6001 42.2729 48.6528 42.2861 48.6821 42.3008ZM50.0666 43.3423V47.082H49.2536V42.3271H50.0226L50.0666 43.3423ZM49.8732 44.5244L49.5348 44.5112C49.5378 44.186 49.5861 43.8857 49.6799 43.6104C49.7736 43.332 49.9054 43.0903 50.0754 42.8853C50.2453 42.6802 50.4474 42.522 50.6818 42.4106C50.9191 42.2964 51.1813 42.2393 51.4684 42.2393C51.7028 42.2393 51.9137 42.2715 52.1012 42.3359C52.2887 42.3975 52.4484 42.4971 52.5803 42.6348C52.715 42.7725 52.8176 42.9512 52.8879 43.1709C52.9582 43.3877 52.9933 43.6528 52.9933 43.9663V47.082H52.176V43.9575C52.176 43.7085 52.1393 43.5093 52.0661 43.3599C51.9929 43.2075 51.8859 43.0977 51.7453 43.0303C51.6047 42.96 51.4318 42.9248 51.2267 42.9248C51.0246 42.9248 50.84 42.9673 50.673 43.0522C50.509 43.1372 50.3669 43.2544 50.2468 43.4038C50.1296 43.5532 50.0373 43.7246 49.9699 43.918C49.9054 44.1084 49.8732 44.3105 49.8732 44.5244ZM54.9315 42.3271V47.082H54.1141V42.3271H54.9315ZM54.0526 41.0659C54.0526 40.9341 54.0921 40.8228 54.1712 40.7319C54.2533 40.6411 54.3734 40.5957 54.5316 40.5957C54.6869 40.5957 54.8055 40.6411 54.8876 40.7319C54.9725 40.8228 55.015 40.9341 55.015 41.0659C55.015 41.1919 54.9725 41.3003 54.8876 41.3911C54.8055 41.479 54.6869 41.5229 54.5316 41.5229C54.3734 41.5229 54.2533 41.479 54.1712 41.3911C54.0921 41.3003 54.0526 41.1919 54.0526 41.0659ZM56.8697 43.3423V47.082H56.0567V42.3271H56.8257L56.8697 43.3423ZM56.6763 44.5244L56.3379 44.5112C56.3409 44.186 56.3892 43.8857 56.4829 43.6104C56.5767 43.332 56.7085 43.0903 56.8785 42.8853C57.0484 42.6802 57.2505 42.522 57.4849 42.4106C57.7222 42.2964 57.9844 42.2393 58.2715 42.2393C58.5059 42.2393 58.7168 42.2715 58.9043 42.3359C59.0918 42.3975 59.2515 42.4971 59.3833 42.6348C59.5181 42.7725 59.6206 42.9512 59.691 43.1709C59.7613 43.3877 59.7964 43.6528 59.7964 43.9663V47.082H58.979V43.9575C58.979 43.7085 58.9424 43.5093 58.8692 43.3599C58.7959 43.2075 58.689 43.0977 58.5484 43.0303C58.4078 42.96 58.2349 42.9248 58.0298 42.9248C57.8277 42.9248 57.6431 42.9673 57.4761 43.0522C57.312 43.1372 57.17 43.2544 57.0498 43.4038C56.9327 43.5532 56.8404 43.7246 56.773 43.918C56.7085 44.1084 56.6763 44.3105 56.6763 44.5244ZM63.9319 42.3271H64.6701V46.981C64.6701 47.3999 64.5852 47.7573 64.4153 48.0532C64.2453 48.3491 64.008 48.5732 63.7033 48.7256C63.4016 48.8809 63.0529 48.9585 62.6574 48.9585C62.4934 48.9585 62.3 48.9321 62.0774 48.8794C61.8576 48.8296 61.6408 48.7432 61.427 48.6201C61.216 48.5 61.0388 48.3374 60.8952 48.1323L61.3215 47.6489C61.5207 47.8892 61.7287 48.0562 61.9455 48.1499C62.1653 48.2437 62.382 48.2905 62.5959 48.2905C62.8537 48.2905 63.0764 48.2422 63.2639 48.1455C63.4514 48.0488 63.5964 47.9053 63.6989 47.7148C63.8044 47.5273 63.8571 47.2959 63.8571 47.0205V43.373L63.9319 42.3271ZM60.6579 44.7573V44.665C60.6579 44.3018 60.7004 43.9722 60.7854 43.6763C60.8733 43.3774 60.9978 43.1211 61.1589 42.9072C61.323 42.6934 61.5207 42.5293 61.7522 42.415C61.9836 42.2979 62.2444 42.2393 62.5344 42.2393C62.8332 42.2393 63.094 42.292 63.3166 42.3975C63.5422 42.5 63.7326 42.6509 63.8879 42.8501C64.0461 43.0464 64.1706 43.2837 64.2614 43.562C64.3523 43.8403 64.4153 44.1553 64.4504 44.5068V44.9111C64.4182 45.2598 64.3552 45.5732 64.2614 45.8516C64.1706 46.1299 64.0461 46.3672 63.8879 46.5635C63.7326 46.7598 63.5422 46.9106 63.3166 47.0161C63.091 47.1187 62.8274 47.1699 62.5256 47.1699C62.2414 47.1699 61.9836 47.1099 61.7522 46.9897C61.5237 46.8696 61.3274 46.7012 61.1633 46.4844C60.9992 46.2676 60.8733 46.0127 60.7854 45.7197C60.7004 45.4238 60.6579 45.103 60.6579 44.7573ZM61.4709 44.665V44.7573C61.4709 44.9946 61.4944 45.2173 61.5412 45.4253C61.591 45.6333 61.6657 45.8164 61.7654 45.9746C61.8679 46.1328 61.9983 46.2573 62.1565 46.3481C62.3147 46.436 62.5036 46.48 62.7234 46.48C62.9929 46.48 63.2155 46.4229 63.3913 46.3086C63.5671 46.1943 63.7063 46.0435 63.8088 45.856C63.9143 45.6685 63.9963 45.4648 64.0549 45.2451V44.186C64.0227 44.0249 63.9729 43.8696 63.9055 43.7202C63.841 43.5679 63.7561 43.4331 63.6506 43.3159C63.5481 43.1958 63.4206 43.1006 63.2683 43.0303C63.1159 42.96 62.9372 42.9248 62.7321 42.9248C62.5095 42.9248 62.3176 42.9717 62.1565 43.0654C61.9983 43.1562 61.8679 43.2822 61.7654 43.4434C61.6657 43.6016 61.591 43.7861 61.5412 43.9971C61.4944 44.2051 61.4709 44.4277 61.4709 44.665ZM70.0889 40.6836V47.082H69.254V40.6836H70.0889ZM72.1456 40.6836V41.3779H67.2017V40.6836H72.1456ZM74.3255 47.1699C73.9944 47.1699 73.6941 47.1143 73.4246 47.0029C73.158 46.8887 72.928 46.729 72.7346 46.5239C72.5442 46.3188 72.3977 46.0757 72.2952 45.7944C72.1926 45.5132 72.1414 45.2056 72.1414 44.8716V44.687C72.1414 44.3003 72.1985 43.9561 72.3128 43.6543C72.427 43.3496 72.5823 43.0918 72.7786 42.8809C72.9749 42.6699 73.1975 42.5103 73.4465 42.4019C73.6956 42.2935 73.9534 42.2393 74.22 42.2393C74.5598 42.2393 74.8528 42.2979 75.0989 42.415C75.3479 42.5322 75.5515 42.6963 75.7097 42.9072C75.8679 43.1152 75.9851 43.3613 76.0613 43.6455C76.1375 43.9268 76.1756 44.2344 76.1756 44.5684V44.9331H72.6248V44.2695H75.3626V44.208C75.3508 43.9971 75.3069 43.792 75.2307 43.5928C75.1575 43.3936 75.0403 43.2295 74.8792 43.1006C74.718 42.9717 74.4983 42.9072 74.22 42.9072C74.0354 42.9072 73.8655 42.9468 73.7102 43.0259C73.5549 43.1021 73.4216 43.2163 73.3103 43.3687C73.199 43.521 73.1126 43.707 73.051 43.9268C72.9895 44.1465 72.9588 44.3999 72.9588 44.687V44.8716C72.9588 45.0972 72.9895 45.3096 73.051 45.5088C73.1155 45.7051 73.2078 45.8779 73.3279 46.0273C73.4509 46.1768 73.5989 46.2939 73.7717 46.3789C73.9475 46.4639 74.1467 46.5063 74.3694 46.5063C74.6565 46.5063 74.8997 46.4478 75.0989 46.3306C75.2981 46.2134 75.4724 46.0566 75.6218 45.8604L76.114 46.2515C76.0115 46.4067 75.8811 46.5547 75.7229 46.6953C75.5647 46.8359 75.3699 46.9502 75.1384 47.0381C74.9099 47.126 74.6389 47.1699 74.3255 47.1699ZM79.7133 45.8208C79.7133 45.7036 79.687 45.5952 79.6342 45.4956C79.5844 45.3931 79.4804 45.3008 79.3222 45.2188C79.1669 45.1338 78.9326 45.0605 78.6191 44.999C78.3554 44.9434 78.1166 44.8774 77.9028 44.8013C77.6918 44.7251 77.5117 44.6328 77.3622 44.5244C77.2158 44.416 77.103 44.2886 77.0239 44.1421C76.9448 43.9956 76.9052 43.8242 76.9052 43.6279C76.9052 43.4404 76.9462 43.2632 77.0283 43.0962C77.1132 42.9292 77.2319 42.7812 77.3842 42.6523C77.5395 42.5234 77.7255 42.4224 77.9423 42.3491C78.1591 42.2759 78.4008 42.2393 78.6674 42.2393C79.0483 42.2393 79.3735 42.3066 79.643 42.4414C79.9125 42.5762 80.1191 42.7563 80.2626 42.9819C80.4062 43.2046 80.478 43.4521 80.478 43.7246H79.665C79.665 43.5928 79.6254 43.4653 79.5463 43.3423C79.4702 43.2163 79.3574 43.1123 79.2079 43.0303C79.0615 42.9482 78.8813 42.9072 78.6674 42.9072C78.4418 42.9072 78.2587 42.9424 78.1181 43.0127C77.9804 43.0801 77.8793 43.1665 77.8149 43.272C77.7534 43.3774 77.7226 43.4888 77.7226 43.606C77.7226 43.6938 77.7372 43.7729 77.7665 43.8433C77.7988 43.9106 77.8544 43.9736 77.9335 44.0322C78.0126 44.0879 78.124 44.1406 78.2675 44.1904C78.4111 44.2402 78.5942 44.29 78.8168 44.3398C79.2065 44.4277 79.5273 44.5332 79.7792 44.6562C80.0312 44.7793 80.2187 44.9302 80.3417 45.1089C80.4648 45.2876 80.5263 45.5044 80.5263 45.7593C80.5263 45.9673 80.4824 46.1577 80.3945 46.3306C80.3095 46.5034 80.185 46.6528 80.0209 46.7788C79.8598 46.9019 79.6664 46.9985 79.4409 47.0688C79.2182 47.1362 78.9677 47.1699 78.6894 47.1699C78.2704 47.1699 77.916 47.0952 77.6259 46.9458C77.3359 46.7964 77.1161 46.603 76.9667 46.3657C76.8173 46.1284 76.7426 45.8779 76.7426 45.6143H77.56C77.5717 45.8369 77.6362 46.0142 77.7534 46.146C77.8705 46.2749 78.0141 46.3672 78.184 46.4229C78.3539 46.4756 78.5224 46.502 78.6894 46.502C78.912 46.502 79.0981 46.4727 79.2475 46.4141C79.3998 46.3555 79.5156 46.2749 79.5947 46.1724C79.6738 46.0698 79.7133 45.9526 79.7133 45.8208ZM83.4049 42.3271V42.9512H80.8341V42.3271H83.4049ZM81.7042 41.1714H82.5172V45.9043C82.5172 46.0654 82.5421 46.187 82.5919 46.269C82.6417 46.3511 82.7062 46.4053 82.7853 46.4316C82.8644 46.458 82.9493 46.4712 83.0402 46.4712C83.1075 46.4712 83.1779 46.4653 83.2511 46.4536C83.3273 46.439 83.3844 46.4272 83.4225 46.4185L83.4269 47.082C83.3624 47.1025 83.2775 47.1216 83.172 47.1392C83.0695 47.1597 82.9449 47.1699 82.7985 47.1699C82.5992 47.1699 82.4161 47.1304 82.2491 47.0513C82.0822 46.9722 81.9489 46.8403 81.8492 46.6558C81.7526 46.4683 81.7042 46.2163 81.7042 45.8999V41.1714ZM86.9471 45.8208C86.9471 45.7036 86.9207 45.5952 86.868 45.4956C86.8182 45.3931 86.7142 45.3008 86.556 45.2188C86.4007 45.1338 86.1663 45.0605 85.8528 44.999C85.5892 44.9434 85.3504 44.8774 85.1365 44.8013C84.9256 44.7251 84.7454 44.6328 84.596 44.5244C84.4495 44.416 84.3367 44.2886 84.2576 44.1421C84.1785 43.9956 84.139 43.8242 84.139 43.6279C84.139 43.4404 84.18 43.2632 84.262 43.0962C84.347 42.9292 84.4656 42.7812 84.618 42.6523C84.7732 42.5234 84.9593 42.4224 85.1761 42.3491C85.3929 42.2759 85.6346 42.2393 85.9012 42.2393C86.282 42.2393 86.6072 42.3066 86.8768 42.4414C87.1463 42.5762 87.3528 42.7563 87.4964 42.9819C87.6399 43.2046 87.7117 43.4521 87.7117 43.7246H86.8987C86.8987 43.5928 86.8592 43.4653 86.7801 43.3423C86.7039 43.2163 86.5911 43.1123 86.4417 43.0303C86.2952 42.9482 86.115 42.9072 85.9012 42.9072C85.6756 42.9072 85.4925 42.9424 85.3519 43.0127C85.2142 43.0801 85.1131 43.1665 85.0486 43.272C84.9871 43.3774 84.9563 43.4888 84.9563 43.606C84.9563 43.6938 84.971 43.7729 85.0003 43.8433C85.0325 43.9106 85.0882 43.9736 85.1673 44.0322C85.2464 44.0879 85.3577 44.1406 85.5013 44.1904C85.6448 44.2402 85.8279 44.29 86.0506 44.3398C86.4402 44.4277 86.761 44.5332 87.013 44.6562C87.2649 44.7793 87.4524 44.9302 87.5755 45.1089C87.6985 45.2876 87.7601 45.5044 87.7601 45.7593C87.7601 45.9673 87.7161 46.1577 87.6282 46.3306C87.5433 46.5034 87.4187 46.6528 87.2547 46.7788C87.0936 46.9019 86.9002 46.9985 86.6746 47.0688C86.452 47.1362 86.2015 47.1699 85.9231 47.1699C85.5042 47.1699 85.1497 47.0952 84.8597 46.9458C84.5696 46.7964 84.3499 46.603 84.2005 46.3657C84.0511 46.1284 83.9764 45.8779 83.9764 45.6143H84.7937C84.8055 45.8369 84.8699 46.0142 84.9871 46.146C85.1043 46.2749 85.2478 46.3672 85.4178 46.4229C85.5877 46.4756 85.7561 46.502 85.9231 46.502C86.1458 46.502 86.3318 46.4727 86.4812 46.4141C86.6336 46.3555 86.7493 46.2749 86.8284 46.1724C86.9075 46.0698 86.9471 45.9526 86.9471 45.8208Z" fill="#3C4447"/>
</svg>
